<?xml version="1.0" encoding="UTF-8"?>
<svg xmlns="http://www.w3.org/2000/svg" xmlns:xlink="http://www.w3.org/1999/xlink" width="420" height="316" viewBox="0 0 420 316">
<defs>
<g>
<g id="glyph-0-0">
<path d="M 3.84375 -10.125 C 2.921875 -10.125 2.09375 -9.703125 1.5625 -9.015625 C 0.921875 -8.125 0.609375 -6.78125 0.609375 -4.90625 C 0.609375 -1.484375 1.71875 0.328125 3.84375 0.328125 C 5.953125 0.328125 7.09375 -1.484375 7.09375 -4.8125 C 7.09375 -6.78125 6.796875 -8.09375 6.125 -9.015625 C 5.609375 -9.71875 4.78125 -10.125 3.84375 -10.125 Z M 3.84375 -9.03125 C 5.1875 -9.03125 5.84375 -7.671875 5.84375 -4.921875 C 5.84375 -2.046875 5.1875 -0.703125 3.828125 -0.703125 C 2.515625 -0.703125 1.859375 -2.09375 1.859375 -4.890625 C 1.859375 -7.671875 2.515625 -9.03125 3.84375 -9.03125 Z M 3.84375 -9.03125 "/>
</g>
<g id="glyph-0-1">
<path d="M 6.65625 -9.921875 L 1.546875 -9.921875 L 0.796875 -4.515625 L 1.9375 -4.515625 C 2.5 -5.203125 2.984375 -5.453125 3.765625 -5.453125 C 5.09375 -5.453125 5.921875 -4.53125 5.921875 -3.0625 C 5.921875 -1.640625 5.09375 -0.765625 3.75 -0.765625 C 2.671875 -0.765625 2.015625 -1.3125 1.71875 -2.4375 L 0.484375 -2.4375 C 0.65625 -1.625 0.796875 -1.234375 1.09375 -0.875 C 1.65625 -0.109375 2.65625 0.328125 3.78125 0.328125 C 5.78125 0.328125 7.1875 -1.140625 7.1875 -3.234375 C 7.1875 -5.1875 5.875 -6.53125 3.96875 -6.53125 C 3.28125 -6.53125 2.71875 -6.359375 2.140625 -5.9375 L 2.53125 -8.703125 L 6.65625 -8.703125 Z M 6.65625 -9.921875 "/>
</g>
<g id="glyph-0-2">
<path d="M 3.625 -7.203125 L 3.625 0 L 4.859375 0 L 4.859375 -10.125 L 4.046875 -10.125 C 3.609375 -8.5625 3.328125 -8.359375 1.421875 -8.109375 L 1.421875 -7.203125 Z M 3.625 -7.203125 "/>
</g>
<g id="glyph-0-3">
<path d="M 4.09375 -3.796875 L 6.546875 -7.34375 L 5.234375 -7.34375 L 3.46875 -4.671875 L 1.703125 -7.34375 L 0.375 -7.34375 L 2.828125 -3.734375 L 0.234375 0 L 1.5625 0 L 3.4375 -2.8125 L 5.265625 0 L 6.625 0 Z M 4.09375 -3.796875 "/>
</g>
<g id="glyph-0-4">
</g>
<g id="glyph-0-5">
<path d="M 2.671875 -1.453125 L 1.21875 -1.453125 L 1.21875 0 L 2.671875 0 Z M 2.671875 -1.453125 "/>
</g>
<g id="glyph-0-6">
<path d="M 7.078125 -1.21875 L 1.859375 -1.21875 C 1.984375 -2.0625 2.4375 -2.59375 3.65625 -3.328125 L 5.046875 -4.109375 C 6.4375 -4.890625 7.15625 -5.921875 7.15625 -7.171875 C 7.15625 -8.015625 6.8125 -8.796875 6.234375 -9.34375 C 5.640625 -9.875 4.90625 -10.125 3.96875 -10.125 C 2.71875 -10.125 1.78125 -9.671875 1.234375 -8.8125 C 0.875 -8.28125 0.734375 -7.640625 0.703125 -6.625 L 1.9375 -6.625 C 1.96875 -7.3125 2.0625 -7.71875 2.21875 -8.046875 C 2.546875 -8.671875 3.1875 -9.046875 3.9375 -9.046875 C 5.046875 -9.046875 5.890625 -8.234375 5.890625 -7.140625 C 5.890625 -6.328125 5.4375 -5.625 4.546875 -5.125 L 3.265625 -4.375 C 1.1875 -3.171875 0.59375 -2.21875 0.46875 -0.015625 L 7.078125 -0.015625 Z M 7.078125 -1.21875 "/>
</g>
<g id="glyph-0-7">
<path d="M 3.09375 -4.65625 L 3.765625 -4.65625 C 5.109375 -4.65625 5.828125 -4.03125 5.828125 -2.8125 C 5.828125 -1.546875 5.046875 -0.765625 3.78125 -0.765625 C 2.421875 -0.765625 1.765625 -1.453125 1.6875 -2.9375 L 0.453125 -2.9375 C 0.5 -2.125 0.640625 -1.59375 0.875 -1.140625 C 1.40625 -0.171875 2.359375 0.328125 3.71875 0.328125 C 5.765625 0.328125 7.078125 -0.90625 7.078125 -2.828125 C 7.078125 -4.109375 6.59375 -4.8125 5.40625 -5.234375 C 6.328125 -5.609375 6.796875 -6.3125 6.796875 -7.34375 C 6.796875 -9.078125 5.65625 -10.125 3.765625 -10.125 C 1.765625 -10.125 0.703125 -9 0.65625 -6.859375 L 1.890625 -6.859375 C 1.90625 -7.46875 1.953125 -7.828125 2.109375 -8.140625 C 2.390625 -8.703125 3.015625 -9.046875 3.78125 -9.046875 C 4.875 -9.046875 5.53125 -8.390625 5.53125 -7.296875 C 5.53125 -6.578125 5.28125 -6.140625 4.734375 -5.90625 C 4.390625 -5.765625 3.953125 -5.71875 3.09375 -5.703125 Z M 3.09375 -4.65625 "/>
</g>
<g id="glyph-0-8">
<path d="M 4.953125 -9.0625 L 8.296875 -9.0625 L 8.296875 -10.203125 L 0.296875 -10.203125 L 0.296875 -9.0625 L 3.65625 -9.0625 L 3.65625 0 L 4.953125 0 Z M 4.953125 -9.0625 "/>
</g>
<g id="glyph-0-9">
<path d="M 2.09375 -7.34375 L 0.9375 -7.34375 L 0.9375 0 L 2.09375 0 Z M 2.09375 -10.203125 L 0.921875 -10.203125 L 0.921875 -8.734375 L 2.09375 -8.734375 Z M 2.09375 -10.203125 "/>
</g>
<g id="glyph-0-10">
<path d="M 0.984375 -7.34375 L 0.984375 0 L 2.15625 0 L 2.15625 -4.609375 C 2.15625 -5.671875 2.921875 -6.53125 3.875 -6.53125 C 4.75 -6.53125 5.234375 -5.984375 5.234375 -5.046875 L 5.234375 0 L 6.40625 0 L 6.40625 -4.609375 C 6.40625 -5.671875 7.1875 -6.53125 8.140625 -6.53125 C 8.984375 -6.53125 9.484375 -5.984375 9.484375 -5.046875 L 9.484375 0 L 10.671875 0 L 10.671875 -5.5 C 10.671875 -6.8125 9.90625 -7.546875 8.546875 -7.546875 C 7.5625 -7.546875 6.96875 -7.25 6.28125 -6.421875 C 5.859375 -7.203125 5.265625 -7.546875 4.3125 -7.546875 C 3.328125 -7.546875 2.671875 -7.1875 2.0625 -6.296875 L 2.0625 -7.34375 Z M 0.984375 -7.34375 "/>
</g>
<g id="glyph-0-11">
<path d="M 7.1875 -3.28125 C 7.1875 -4.390625 7.09375 -5.0625 6.890625 -5.609375 C 6.40625 -6.8125 5.296875 -7.546875 3.921875 -7.546875 C 1.875 -7.546875 0.5625 -5.984375 0.5625 -3.5625 C 0.5625 -1.140625 1.8125 0.328125 3.890625 0.328125 C 5.578125 0.328125 6.734375 -0.625 7.03125 -2.21875 L 5.859375 -2.21875 C 5.53125 -1.265625 4.875 -0.75 3.9375 -0.75 C 3.1875 -0.75 2.5625 -1.09375 2.171875 -1.703125 C 1.890625 -2.125 1.796875 -2.546875 1.78125 -3.28125 Z M 1.8125 -4.234375 C 1.90625 -5.59375 2.734375 -6.46875 3.90625 -6.46875 C 5.09375 -6.46875 5.921875 -5.546875 5.921875 -4.234375 Z M 1.8125 -4.234375 "/>
</g>
<g id="glyph-0-12">
<path d="M 1.21875 -1.453125 L 1.21875 0 L 2.0625 0 L 2.0625 0.25 C 2.0625 1.21875 1.875 1.5 1.21875 1.53125 L 1.21875 2.0625 C 2.140625 2.09375 2.6875 1.40625 2.6875 0.21875 L 2.6875 -1.453125 Z M 1.21875 -1.453125 "/>
</g>
<g id="glyph-0-13">
<path d="M 3.296875 -10.203125 C 1.90625 -8.375 1.015625 -5.828125 1.015625 -3.625 C 1.015625 -1.40625 1.90625 1.140625 3.296875 2.96875 L 4.078125 2.96875 C 2.84375 0.96875 2.15625 -1.390625 2.15625 -3.625 C 2.15625 -5.859375 2.84375 -8.21875 4.078125 -10.203125 Z M 3.296875 -10.203125 "/>
</g>
<g id="glyph-0-14">
<path d="M 6.125 -5.296875 C 6.125 -6.734375 5.171875 -7.546875 3.46875 -7.546875 C 1.765625 -7.546875 0.65625 -6.65625 0.65625 -5.3125 C 0.65625 -4.15625 1.25 -3.609375 2.984375 -3.1875 L 4.078125 -2.921875 C 4.890625 -2.734375 5.203125 -2.4375 5.203125 -1.921875 C 5.203125 -1.21875 4.515625 -0.75 3.5 -0.75 C 2.875 -0.75 2.34375 -0.9375 2.046875 -1.25 C 1.859375 -1.453125 1.78125 -1.671875 1.703125 -2.1875 L 0.46875 -2.1875 C 0.53125 -0.484375 1.484375 0.328125 3.40625 0.328125 C 5.25 0.328125 6.421875 -0.59375 6.421875 -2 C 6.421875 -3.09375 5.8125 -3.703125 4.359375 -4.046875 L 3.234375 -4.3125 C 2.28125 -4.53125 1.875 -4.84375 1.875 -5.359375 C 1.875 -6.046875 2.484375 -6.46875 3.4375 -6.46875 C 4.375 -6.46875 4.875 -6.0625 4.90625 -5.296875 Z M 6.125 -5.296875 "/>
</g>
<g id="glyph-0-15">
<path d="M 1.296875 2.96875 C 2.703125 1.140625 3.578125 -1.40625 3.578125 -3.609375 C 3.578125 -5.828125 2.703125 -8.375 1.296875 -10.203125 L 0.53125 -10.203125 C 1.765625 -8.203125 2.453125 -5.859375 2.453125 -3.609375 C 2.453125 -1.390625 1.765625 0.984375 0.53125 2.96875 Z M 1.296875 2.96875 "/>
</g>
<g id="glyph-0-16">
<path d="M 3.8125 -7.546875 C 1.734375 -7.546875 0.5 -6.078125 0.5 -3.609375 C 0.5 -1.140625 1.734375 0.328125 3.828125 0.328125 C 5.890625 0.328125 7.140625 -1.140625 7.140625 -3.5625 C 7.140625 -6.109375 5.9375 -7.546875 3.8125 -7.546875 Z M 3.828125 -6.46875 C 5.140625 -6.46875 5.921875 -5.390625 5.921875 -3.5625 C 5.921875 -1.828125 5.109375 -0.75 3.828125 -0.75 C 2.515625 -0.75 1.71875 -1.828125 1.71875 -3.609375 C 1.71875 -5.390625 2.515625 -6.46875 3.828125 -6.46875 Z M 3.828125 -6.46875 "/>
</g>
<g id="glyph-0-17">
<path d="M 3.5625 -7.34375 L 2.359375 -7.34375 L 2.359375 -9.359375 L 1.1875 -9.359375 L 1.1875 -7.34375 L 0.203125 -7.34375 L 0.203125 -6.390625 L 1.1875 -6.390625 L 1.1875 -0.84375 C 1.1875 -0.078125 1.6875 0.328125 2.609375 0.328125 C 2.90625 0.328125 3.15625 0.296875 3.5625 0.21875 L 3.5625 -0.75 C 3.390625 -0.71875 3.234375 -0.703125 3 -0.703125 C 2.484375 -0.703125 2.359375 -0.84375 2.359375 -1.359375 L 2.359375 -6.390625 L 3.5625 -6.390625 Z M 3.5625 -7.34375 "/>
</g>
<g id="glyph-0-18">
<path d="M 7.484375 -0.6875 C 7.359375 -0.65625 7.3125 -0.65625 7.234375 -0.65625 C 6.828125 -0.65625 6.609375 -0.875 6.609375 -1.234375 L 6.609375 -5.546875 C 6.609375 -6.84375 5.65625 -7.546875 3.84375 -7.546875 C 2.765625 -7.546875 1.921875 -7.234375 1.40625 -6.6875 C 1.078125 -6.3125 0.9375 -5.890625 0.90625 -5.171875 L 2.09375 -5.171875 C 2.1875 -6.0625 2.71875 -6.46875 3.8125 -6.46875 C 4.875 -6.46875 5.453125 -6.078125 5.453125 -5.375 L 5.453125 -5.0625 C 5.4375 -4.5625 5.1875 -4.375 4.234375 -4.25 C 2.578125 -4.046875 2.328125 -3.984375 1.875 -3.8125 C 1.015625 -3.4375 0.59375 -2.796875 0.59375 -1.84375 C 0.59375 -0.515625 1.515625 0.328125 3 0.328125 C 3.921875 0.328125 4.65625 0 5.484375 -0.75 C 5.578125 0 5.9375 0.328125 6.6875 0.328125 C 6.9375 0.328125 7.09375 0.296875 7.484375 0.203125 Z M 5.453125 -2.3125 C 5.453125 -1.921875 5.328125 -1.6875 4.984375 -1.359375 C 4.515625 -0.921875 3.9375 -0.703125 3.25 -0.703125 C 2.34375 -0.703125 1.8125 -1.140625 1.8125 -1.875 C 1.8125 -2.640625 2.3125 -3.03125 3.5625 -3.21875 C 4.8125 -3.390625 5.046875 -3.4375 5.453125 -3.625 Z M 5.453125 -2.3125 "/>
</g>
<g id="glyph-0-19">
<path d="M 2.125 -10.203125 L 0.953125 -10.203125 L 0.953125 0 L 2.125 0 Z M 2.125 -10.203125 "/>
</g>
<g id="glyph-0-20">
<path d="M 2.5625 -4.640625 L 8.125 -4.640625 L 8.125 -5.796875 L 2.5625 -5.796875 L 2.5625 -9.0625 L 8.328125 -9.0625 L 8.328125 -10.203125 L 1.265625 -10.203125 L 1.265625 0 L 8.578125 0 L 8.578125 -1.140625 L 2.5625 -1.140625 Z M 2.5625 -4.640625 "/>
</g>
<g id="glyph-0-21">
<path d="M 0.984375 -7.34375 L 0.984375 0 L 2.15625 0 L 2.15625 -4.046875 C 2.15625 -5.546875 2.9375 -6.53125 4.140625 -6.53125 C 5.0625 -6.53125 5.65625 -5.96875 5.65625 -5.078125 L 5.65625 0 L 6.8125 0 L 6.8125 -5.546875 C 6.8125 -6.765625 5.90625 -7.546875 4.5 -7.546875 C 3.40625 -7.546875 2.703125 -7.125 2.0625 -6.109375 L 2.0625 -7.34375 Z M 0.984375 -7.34375 "/>
</g>
<g id="glyph-0-22">
<path d="M 0.96875 -7.34375 L 0.96875 0 L 2.140625 0 L 2.140625 -3.8125 C 2.15625 -5.578125 2.890625 -6.359375 4.5 -6.3125 L 4.5 -7.5 C 4.296875 -7.53125 4.1875 -7.546875 4.046875 -7.546875 C 3.296875 -7.546875 2.71875 -7.09375 2.046875 -6 L 2.046875 -7.34375 Z M 0.96875 -7.34375 "/>
</g>
<g id="glyph-0-23">
<path d="M 5.65625 -7.34375 L 5.65625 -6.265625 C 5.0625 -7.15625 4.421875 -7.546875 3.5 -7.546875 C 1.71875 -7.546875 0.484375 -5.890625 0.484375 -3.546875 C 0.484375 -2.3125 0.78125 -1.40625 1.40625 -0.671875 C 1.953125 -0.03125 2.65625 0.328125 3.421875 0.328125 C 4.296875 0.328125 4.921875 -0.0625 5.546875 -1 L 5.546875 -0.609375 C 5.546875 1.34375 5 2.078125 3.546875 2.078125 C 2.546875 2.078125 2.03125 1.6875 1.921875 0.84375 L 0.734375 0.84375 C 0.84375 2.203125 1.921875 3.046875 3.515625 3.046875 C 4.59375 3.046875 5.484375 2.703125 5.96875 2.109375 C 6.53125 1.421875 6.734375 0.515625 6.734375 -1.203125 L 6.734375 -7.34375 Z M 3.609375 -6.46875 C 4.84375 -6.46875 5.546875 -5.4375 5.546875 -3.5625 C 5.546875 -1.796875 4.828125 -0.75 3.609375 -0.75 C 2.40625 -0.75 1.703125 -1.8125 1.703125 -3.609375 C 1.703125 -5.40625 2.40625 -6.46875 3.609375 -6.46875 Z M 3.609375 -6.46875 "/>
</g>
<g id="glyph-0-24">
<path d="M 5.4375 -7.34375 L 3.40625 -1.625 L 1.53125 -7.34375 L 0.28125 -7.34375 L 2.765625 0.03125 L 2.3125 1.1875 C 2.109375 1.703125 1.859375 1.90625 1.375 1.90625 C 1.171875 1.90625 1.015625 1.875 0.75 1.8125 L 0.75 2.875 C 1 3 1.234375 3.046875 1.546875 3.046875 C 1.921875 3.046875 2.328125 2.921875 2.625 2.703125 C 3 2.4375 3.203125 2.125 3.4375 1.546875 L 6.6875 -7.34375 Z M 5.4375 -7.34375 "/>
</g>
<g id="glyph-0-25">
<path d="M 3.984375 0 L 6.796875 -7.34375 L 5.484375 -7.34375 L 3.421875 -1.390625 L 1.453125 -7.34375 L 0.140625 -7.34375 L 2.71875 0 Z M 3.984375 0 "/>
</g>
<g id="glyph-0-26">
<path d="M 6.75 0 L 6.75 -7.34375 L 5.59375 -7.34375 L 5.59375 -3.171875 C 5.59375 -1.6875 4.796875 -0.703125 3.578125 -0.703125 C 2.65625 -0.703125 2.078125 -1.265625 2.078125 -2.140625 L 2.078125 -7.34375 L 0.90625 -7.34375 L 0.90625 -1.6875 C 0.90625 -0.46875 1.8125 0.328125 3.25 0.328125 C 4.328125 0.328125 5.015625 -0.0625 5.703125 -1.015625 L 5.703125 0 Z M 6.75 0 "/>
</g>
<g id="glyph-1-0">
<path d="M 3.046875 -1.625 L 3.046875 0 L 3.875 0 L 3.875 -1.625 L 4.84375 -1.625 L 4.84375 -2.375 L 3.875 -2.375 L 3.875 -6.75 L 3.265625 -6.75 L 0.265625 -2.5 L 0.265625 -1.625 Z M 3.046875 -2.375 L 0.984375 -2.375 L 3.046875 -5.34375 Z M 3.046875 -2.375 "/>
</g>
<g id="glyph-1-1">
<path d="M 0.5 -1.546875 C 0.65625 -0.4375 1.359375 0.21875 2.375 0.21875 C 3.109375 0.21875 3.765625 -0.140625 4.15625 -0.75 C 4.5625 -1.40625 4.75 -2.234375 4.75 -3.453125 C 4.75 -4.59375 4.578125 -5.3125 4.1875 -5.90625 C 3.828125 -6.453125 3.25 -6.75 2.515625 -6.75 C 1.265625 -6.75 0.359375 -5.796875 0.359375 -4.5 C 0.359375 -3.25 1.1875 -2.375 2.390625 -2.375 C 3.015625 -2.375 3.484375 -2.609375 3.90625 -3.109375 C 3.890625 -1.4375 3.375 -0.515625 2.421875 -0.515625 C 1.84375 -0.515625 1.453125 -0.890625 1.3125 -1.546875 Z M 2.515625 -6.03125 C 3.28125 -6.03125 3.859375 -5.375 3.859375 -4.515625 C 3.859375 -3.6875 3.296875 -3.109375 2.484375 -3.109375 C 1.6875 -3.109375 1.1875 -3.671875 1.1875 -4.5625 C 1.1875 -5.40625 1.75 -6.03125 2.515625 -6.03125 Z M 2.515625 -6.03125 "/>
</g>
<g id="glyph-2-0">
<path d="M 5.125 -7.34375 L 3.875 -7.34375 L 4.3125 -9.359375 L 3.140625 -9.359375 L 2.703125 -7.34375 L 1.703125 -7.34375 L 1.515625 -6.390625 L 2.5 -6.390625 L 1.40625 -1.21875 C 1.375 -1.078125 1.359375 -0.921875 1.359375 -0.78125 C 1.359375 -0.21875 1.59375 0.09375 2.140625 0.25 C 2.296875 0.296875 2.453125 0.328125 2.609375 0.328125 C 2.890625 0.328125 3.296875 0.28125 3.515625 0.21875 L 3.734375 -0.796875 C 3.28125 -0.6875 3.25 -0.6875 3.0625 -0.6875 C 2.796875 -0.6875 2.625 -0.78125 2.578125 -0.96875 C 2.5625 -1.015625 2.5625 -1.015625 2.5625 -1.0625 C 2.5625 -1.109375 2.578125 -1.171875 2.59375 -1.265625 L 3.6875 -6.390625 L 4.921875 -6.390625 Z M 5.125 -7.34375 "/>
</g>
<g id="glyph-3-0">
<path d="M -4.640625 -2.5625 L -4.640625 -8.125 L -5.796875 -8.125 L -5.796875 -2.5625 L -9.0625 -2.5625 L -9.0625 -8.328125 L -10.203125 -8.328125 L -10.203125 -1.265625 L 0 -1.265625 L 0 -8.578125 L -1.140625 -8.578125 L -1.140625 -2.5625 Z M -4.640625 -2.5625 "/>
</g>
<g id="glyph-3-1">
<path d="M -7.34375 -0.984375 L 0 -0.984375 L 0 -2.15625 L -4.046875 -2.15625 C -5.546875 -2.15625 -6.53125 -2.9375 -6.53125 -4.140625 C -6.53125 -5.0625 -5.96875 -5.65625 -5.078125 -5.65625 L 0 -5.65625 L 0 -6.8125 L -5.546875 -6.8125 C -6.765625 -6.8125 -7.546875 -5.90625 -7.546875 -4.5 C -7.546875 -3.40625 -7.125 -2.703125 -6.109375 -2.0625 L -7.34375 -2.0625 Z M -7.34375 -0.984375 "/>
</g>
<g id="glyph-3-2">
<path d="M -3.28125 -7.1875 C -4.390625 -7.1875 -5.0625 -7.09375 -5.609375 -6.890625 C -6.8125 -6.40625 -7.546875 -5.296875 -7.546875 -3.921875 C -7.546875 -1.875 -5.984375 -0.5625 -3.5625 -0.5625 C -1.140625 -0.5625 0.328125 -1.8125 0.328125 -3.890625 C 0.328125 -5.578125 -0.625 -6.734375 -2.21875 -7.03125 L -2.21875 -5.859375 C -1.265625 -5.53125 -0.75 -4.875 -0.75 -3.9375 C -0.75 -3.1875 -1.09375 -2.5625 -1.703125 -2.171875 C -2.125 -1.890625 -2.546875 -1.796875 -3.28125 -1.78125 Z M -4.234375 -1.8125 C -5.59375 -1.90625 -6.46875 -2.734375 -6.46875 -3.90625 C -6.46875 -5.09375 -5.546875 -5.921875 -4.234375 -5.921875 Z M -4.234375 -1.8125 "/>
</g>
<g id="glyph-3-3">
<path d="M -7.34375 -0.96875 L 0 -0.96875 L 0 -2.140625 L -3.8125 -2.140625 C -5.578125 -2.15625 -6.359375 -2.890625 -6.3125 -4.5 L -7.5 -4.5 C -7.53125 -4.296875 -7.546875 -4.1875 -7.546875 -4.046875 C -7.546875 -3.296875 -7.09375 -2.71875 -6 -2.046875 L -7.34375 -2.046875 Z M -7.34375 -0.96875 "/>
</g>
<g id="glyph-3-4">
<path d="M -7.34375 -5.65625 L -6.265625 -5.65625 C -7.15625 -5.0625 -7.546875 -4.421875 -7.546875 -3.5 C -7.546875 -1.71875 -5.890625 -0.484375 -3.546875 -0.484375 C -2.3125 -0.484375 -1.40625 -0.78125 -0.671875 -1.40625 C -0.03125 -1.953125 0.328125 -2.65625 0.328125 -3.421875 C 0.328125 -4.296875 -0.0625 -4.921875 -1 -5.546875 L -0.609375 -5.546875 C 1.34375 -5.546875 2.078125 -5 2.078125 -3.546875 C 2.078125 -2.546875 1.6875 -2.03125 0.84375 -1.921875 L 0.84375 -0.734375 C 2.203125 -0.84375 3.046875 -1.921875 3.046875 -3.515625 C 3.046875 -4.59375 2.703125 -5.484375 2.109375 -5.96875 C 1.421875 -6.53125 0.515625 -6.734375 -1.203125 -6.734375 L -7.34375 -6.734375 Z M -6.46875 -3.609375 C -6.46875 -4.84375 -5.4375 -5.546875 -3.5625 -5.546875 C -1.796875 -5.546875 -0.75 -4.828125 -0.75 -3.609375 C -0.75 -2.40625 -1.8125 -1.703125 -3.609375 -1.703125 C -5.40625 -1.703125 -6.46875 -2.40625 -6.46875 -3.609375 Z M -6.46875 -3.609375 "/>
</g>
<g id="glyph-3-5">
<path d="M -7.34375 -5.4375 L -1.625 -3.40625 L -7.34375 -1.53125 L -7.34375 -0.28125 L 0.03125 -2.765625 L 1.1875 -2.3125 C 1.703125 -2.109375 1.90625 -1.859375 1.90625 -1.375 C 1.90625 -1.171875 1.875 -1.015625 1.8125 -0.75 L 2.875 -0.75 C 3 -1 3.046875 -1.234375 3.046875 -1.546875 C 3.046875 -1.921875 2.921875 -2.328125 2.703125 -2.625 C 2.4375 -3 2.125 -3.203125 1.546875 -3.4375 L -7.34375 -6.6875 Z M -7.34375 -5.4375 "/>
</g>
<g id="glyph-3-6">
<path d="M -1.453125 -1.21875 L 0 -1.21875 L 0 -2.0625 L 0.25 -2.0625 C 1.21875 -2.0625 1.5 -1.875 1.53125 -1.21875 L 2.0625 -1.21875 C 2.09375 -2.140625 1.40625 -2.6875 0.21875 -2.6875 L -1.453125 -2.6875 Z M -1.453125 -1.21875 "/>
</g>
<g id="glyph-3-7">
</g>
<g id="glyph-3-8">
<path d="M -10.203125 -3.296875 C -8.375 -1.90625 -5.828125 -1.015625 -3.625 -1.015625 C -1.40625 -1.015625 1.140625 -1.90625 2.96875 -3.296875 L 2.96875 -4.078125 C 0.96875 -2.84375 -1.390625 -2.15625 -3.625 -2.15625 C -5.859375 -2.15625 -8.21875 -2.84375 -10.203125 -4.078125 Z M -10.203125 -3.296875 "/>
</g>
<g id="glyph-3-9">
<path d="M -10.203125 -4.65625 L -3.03125 -4.65625 C -2.21875 -4.65625 -1.75 -4.578125 -1.40625 -4.34375 C -1.015625 -4.09375 -0.765625 -3.609375 -0.765625 -3.09375 C -0.765625 -2.109375 -1.421875 -1.5625 -2.625 -1.5625 L -3.28125 -1.5625 L -3.28125 -0.234375 L -2.375 -0.234375 C -0.734375 -0.234375 0.328125 -1.328125 0.328125 -3.078125 C 0.328125 -4.859375 -0.78125 -5.96875 -2.546875 -5.96875 L -10.203125 -5.96875 Z M -10.203125 -4.65625 "/>
</g>
<g id="glyph-3-10">
<path d="M 2.96875 -1.296875 C 1.140625 -2.703125 -1.40625 -3.578125 -3.609375 -3.578125 C -5.828125 -3.578125 -8.375 -2.703125 -10.203125 -1.296875 L -10.203125 -0.53125 C -8.203125 -1.765625 -5.859375 -2.453125 -3.609375 -2.453125 C -1.390625 -2.453125 0.984375 -1.765625 2.96875 -0.53125 Z M 2.96875 -1.296875 "/>
</g>
<g id="glyph-4-0">
<path d="M -9.0625 -6.90625 L -9.0625 -10.234375 L -10.203125 -10.46875 L -10.203125 -2.453125 L -9.0625 -2.21875 L -9.0625 -5.59375 L 0 -3.65625 L 0 -4.96875 Z M -9.0625 -6.90625 "/>
</g>
<g id="glyph-4-1">
<path d="M -4.640625 -3.5625 L -4.640625 -9.09375 L -5.796875 -9.359375 L -5.796875 -3.8125 L -9.0625 -4.515625 L -9.0625 -10.28125 L -10.203125 -10.515625 L -10.203125 -3.4375 L 0 -1.265625 L 0 -8.578125 L -1.140625 -8.8125 L -1.140625 -2.8125 Z M -4.640625 -3.5625 "/>
</g>
<g id="glyph-5-0">
</g>
<g id="glyph-6-0">
<path d="M -0.109375 -5.515625 L -0.109375 -5.859375 C 0.515625 -5.890625 0.921875 -5.96875 1.5 -6.15625 L 3.359375 -1.453125 L 4.1875 -3.0625 L 4.265625 -3.203125 C 4.46875 -3.578125 4.578125 -3.921875 4.578125 -4.21875 C 4.578125 -4.34375 4.546875 -4.53125 4.484375 -4.8125 L 4.453125 -5.03125 L 4.390625 -5.296875 C 4.375 -5.359375 4.375 -5.4375 4.375 -5.5 C 4.375 -5.859375 4.671875 -6.15625 5.015625 -6.15625 C 5.390625 -6.15625 5.703125 -5.828125 5.703125 -5.453125 C 5.703125 -5.1875 5.578125 -4.78125 5.375 -4.3125 C 5.25 -4.0625 4.9375 -3.421875 4.796875 -3.15625 L 4.6875 -2.953125 L 3.984375 -1.625 L 3.546875 -0.75 C 3.484375 -0.59375 3.375 -0.328125 3.234375 0 L 3.1875 0.15625 L 2.8125 0.15625 L 0.890625 -4.75 C 0.609375 -5.453125 0.546875 -5.5 -0.109375 -5.515625 Z M -0.109375 -5.515625 "/>
</g>
<g id="glyph-6-1">
<path d="M 2.828125 -3.203125 L 0.203125 -5.828125 L 0.671875 -6.296875 L 3.296875 -3.65625 L 5.921875 -6.296875 L 6.390625 -5.828125 L 3.765625 -3.203125 L 6.390625 -0.5625 L 5.921875 -0.109375 L 3.296875 -2.734375 L 0.671875 -0.109375 L 0.203125 -0.5625 Z M 2.828125 -3.203125 "/>
</g>
<g id="glyph-7-0">
</g>
<g id="glyph-7-1">
<path d="M 6.40625 -4.234375 L 0.59375 -4.234375 L 0.59375 -3.390625 L 6.40625 -3.390625 Z M 6.40625 -2.171875 L 0.59375 -2.171875 L 0.59375 -1.328125 L 6.40625 -1.328125 Z M 6.40625 -2.171875 "/>
</g>
<g id="glyph-7-2">
<path d="M 3.296875 -8.671875 C 2.515625 -8.671875 1.78125 -8.3125 1.34375 -7.734375 C 0.796875 -6.953125 0.515625 -5.8125 0.515625 -4.203125 C 0.515625 -1.265625 1.46875 0.28125 3.296875 0.28125 C 5.09375 0.28125 6.078125 -1.265625 6.078125 -4.125 C 6.078125 -5.8125 5.8125 -6.9375 5.25 -7.734375 C 4.8125 -8.328125 4.109375 -8.671875 3.296875 -8.671875 Z M 3.296875 -7.734375 C 4.4375 -7.734375 5 -6.578125 5 -4.21875 C 5 -1.75 4.453125 -0.59375 3.28125 -0.59375 C 2.15625 -0.59375 1.59375 -1.796875 1.59375 -4.1875 C 1.59375 -6.578125 2.15625 -7.734375 3.296875 -7.734375 Z M 3.296875 -7.734375 "/>
</g>
<g id="glyph-7-3">
<path d="M 0.84375 -6.28125 L 0.84375 0 L 1.84375 0 L 1.84375 -3.953125 C 1.84375 -4.859375 2.515625 -5.59375 3.328125 -5.59375 C 4.0625 -5.59375 4.484375 -5.140625 4.484375 -4.328125 L 4.484375 0 L 5.5 0 L 5.5 -3.953125 C 5.5 -4.859375 6.15625 -5.59375 6.96875 -5.59375 C 7.703125 -5.59375 8.140625 -5.125 8.140625 -4.328125 L 8.140625 0 L 9.140625 0 L 9.140625 -4.71875 C 9.140625 -5.84375 8.5 -6.46875 7.3125 -6.46875 C 6.484375 -6.46875 5.96875 -6.21875 5.390625 -5.515625 C 5.015625 -6.1875 4.515625 -6.46875 3.703125 -6.46875 C 2.859375 -6.46875 2.296875 -6.15625 1.765625 -5.40625 L 1.765625 -6.28125 Z M 0.84375 -6.28125 "/>
</g>
<g id="glyph-7-4">
<path d="M 5.25 -4.53125 C 5.25 -5.765625 4.421875 -6.46875 2.96875 -6.46875 C 1.515625 -6.46875 0.5625 -5.71875 0.5625 -4.546875 C 0.5625 -3.5625 1.0625 -3.09375 2.5625 -2.734375 L 3.484375 -2.515625 C 4.1875 -2.34375 4.46875 -2.09375 4.46875 -1.640625 C 4.46875 -1.046875 3.875 -0.640625 3 -0.640625 C 2.453125 -0.640625 2 -0.796875 1.75 -1.0625 C 1.59375 -1.25 1.53125 -1.421875 1.46875 -1.875 L 0.40625 -1.875 C 0.453125 -0.421875 1.265625 0.28125 2.921875 0.28125 C 4.5 0.28125 5.515625 -0.5 5.515625 -1.71875 C 5.515625 -2.65625 4.984375 -3.171875 3.734375 -3.46875 L 2.765625 -3.703125 C 1.953125 -3.890625 1.609375 -4.15625 1.609375 -4.59375 C 1.609375 -5.1875 2.125 -5.546875 2.9375 -5.546875 C 3.75 -5.546875 4.171875 -5.203125 4.203125 -4.53125 Z M 5.25 -4.53125 "/>
</g>
<g id="glyph-7-5">
<path d="M 3.109375 -6.1875 L 3.109375 0 L 4.15625 0 L 4.15625 -8.671875 L 3.46875 -8.671875 C 3.09375 -7.34375 2.859375 -7.15625 1.21875 -6.953125 L 1.21875 -6.1875 Z M 3.109375 -6.1875 "/>
</g>
<g id="glyph-7-6">
<path d="M 5.71875 -8.515625 L 1.3125 -8.515625 L 0.6875 -3.875 L 1.65625 -3.875 C 2.140625 -4.46875 2.5625 -4.671875 3.234375 -4.671875 C 4.375 -4.671875 5.078125 -3.890625 5.078125 -2.625 C 5.078125 -1.40625 4.375 -0.65625 3.21875 -0.65625 C 2.296875 -0.65625 1.734375 -1.125 1.46875 -2.09375 L 0.421875 -2.09375 C 0.5625 -1.390625 0.6875 -1.0625 0.9375 -0.75 C 1.421875 -0.09375 2.28125 0.28125 3.234375 0.28125 C 4.953125 0.28125 6.15625 -0.96875 6.15625 -2.765625 C 6.15625 -4.453125 5.046875 -5.609375 3.40625 -5.609375 C 2.8125 -5.609375 2.328125 -5.453125 1.84375 -5.09375 L 2.171875 -7.46875 L 5.71875 -7.46875 Z M 5.71875 -8.515625 "/>
</g>
<g id="glyph-8-0">
<path d="M 4.546875 -0.78125 L 1.203125 -0.78125 C 1.28125 -1.328125 1.5625 -1.671875 2.34375 -2.140625 L 3.25 -2.640625 C 4.140625 -3.140625 4.59375 -3.8125 4.59375 -4.609375 C 4.59375 -5.140625 4.390625 -5.65625 4 -6 C 3.625 -6.34375 3.15625 -6.5 2.5625 -6.5 C 1.75 -6.5 1.140625 -6.21875 0.796875 -5.65625 C 0.5625 -5.3125 0.46875 -4.90625 0.453125 -4.25 L 1.234375 -4.25 C 1.265625 -4.703125 1.328125 -4.953125 1.4375 -5.171875 C 1.640625 -5.578125 2.046875 -5.8125 2.53125 -5.8125 C 3.25 -5.8125 3.78125 -5.296875 3.78125 -4.59375 C 3.78125 -4.0625 3.484375 -3.625 2.921875 -3.296875 L 2.09375 -2.8125 C 0.765625 -2.046875 0.375 -1.4375 0.3125 -0.015625 L 4.546875 -0.015625 Z M 4.546875 -0.78125 "/>
</g>
<g id="glyph-8-1">
<path d="M 4.890625 -2.40625 L 0.359375 -2.40625 L 0.359375 -1.765625 L 4.890625 -1.765625 Z M 4.890625 -2.40625 "/>
</g>
<g id="glyph-8-2">
<path d="M 1.984375 -3 L 2.421875 -3 C 3.28125 -3 3.75 -2.59375 3.75 -1.8125 C 3.75 -0.984375 3.25 -0.5 2.4375 -0.5 C 1.5625 -0.5 1.140625 -0.9375 1.078125 -1.890625 L 0.28125 -1.890625 C 0.328125 -1.375 0.40625 -1.03125 0.5625 -0.734375 C 0.90625 -0.109375 1.515625 0.203125 2.390625 0.203125 C 3.703125 0.203125 4.546875 -0.578125 4.546875 -1.8125 C 4.546875 -2.640625 4.234375 -3.09375 3.46875 -3.359375 C 4.0625 -3.609375 4.359375 -4.0625 4.359375 -4.71875 C 4.359375 -5.828125 3.640625 -6.5 2.421875 -6.5 C 1.140625 -6.5 0.453125 -5.78125 0.421875 -4.40625 L 1.21875 -4.40625 C 1.21875 -4.8125 1.265625 -5.03125 1.359375 -5.234375 C 1.53125 -5.59375 1.9375 -5.8125 2.4375 -5.8125 C 3.125 -5.8125 3.5625 -5.390625 3.5625 -4.6875 C 3.5625 -4.234375 3.390625 -3.953125 3.046875 -3.796875 C 2.828125 -3.703125 2.53125 -3.671875 1.984375 -3.65625 Z M 1.984375 -3 "/>
</g>
<g id="glyph-8-3">
<path d="M 2.9375 -1.578125 L 2.9375 0 L 3.734375 0 L 3.734375 -1.578125 L 4.6875 -1.578125 L 4.6875 -2.28125 L 3.734375 -2.28125 L 3.734375 -6.5 L 3.15625 -6.5 L 0.25 -2.40625 L 0.25 -1.578125 Z M 2.9375 -2.28125 L 0.9375 -2.28125 L 2.9375 -5.15625 Z M 2.9375 -2.28125 "/>
</g>
</g>
<clipPath id="clip-0">
<path clip-rule="nonzero" d="M 0 0 L 420 0 L 420 315.199219 L 0 315.199219 Z M 0 0 "/>
</clipPath>
<clipPath id="clip-1">
<path clip-rule="nonzero" d="M 349 304 L 375 304 L 375 315.199219 L 349 315.199219 Z M 349 304 "/>
</clipPath>
<clipPath id="clip-2">
<path clip-rule="nonzero" d="M 109 88 L 380.582031 88 L 380.582031 145 L 109 145 Z M 109 88 "/>
</clipPath>
<clipPath id="clip-3">
<path clip-rule="nonzero" d="M 108 90 L 380.582031 90 L 380.582031 153 L 108 153 Z M 108 90 "/>
</clipPath>
<clipPath id="clip-4">
<path clip-rule="nonzero" d="M 54.667969 59 L 111 59 L 111 93 L 54.667969 93 Z M 54.667969 59 "/>
</clipPath>
<clipPath id="clip-5">
<path clip-rule="nonzero" d="M 108 101 L 380.582031 101 L 380.582031 177 L 108 177 Z M 108 101 "/>
</clipPath>
<clipPath id="clip-6">
<path clip-rule="nonzero" d="M 54.667969 59 L 111 59 L 111 104 L 54.667969 104 Z M 54.667969 59 "/>
</clipPath>
<clipPath id="clip-7">
<path clip-rule="nonzero" d="M 108 112 L 380.582031 112 L 380.582031 198 L 108 198 Z M 108 112 "/>
</clipPath>
<clipPath id="clip-8">
<path clip-rule="nonzero" d="M 54.667969 58 L 112 58 L 112 115 L 54.667969 115 Z M 54.667969 58 "/>
</clipPath>
<clipPath id="clip-9">
<path clip-rule="nonzero" d="M 108 168 L 380.582031 168 L 380.582031 248 L 108 248 Z M 108 168 "/>
</clipPath>
<clipPath id="clip-10">
<path clip-rule="nonzero" d="M 54.667969 58 L 112 58 L 112 172 L 54.667969 172 Z M 54.667969 58 "/>
</clipPath>
<clipPath id="clip-11">
<path clip-rule="nonzero" d="M 54.667969 173 L 380.582031 173 L 380.582031 175 L 54.667969 175 Z M 54.667969 173 "/>
</clipPath>
</defs>
<g clip-path="url(#clip-0)">
<path fill-rule="nonzero" fill="rgb(100%, 100%, 100%)" fill-opacity="1" d="M 0 315.199219 L 420 315.199219 L 420 0 L 0 0 Z M 0 315.199219 "/>
</g>
<path fill-rule="evenodd" fill="rgb(100%, 100%, 100%)" fill-opacity="1" d="M 54.667969 277.417969 L 380.5 277.417969 L 380.5 24 L 54.667969 24 Z M 54.667969 277.417969 "/>
<path fill="none" stroke-width="5" stroke-linecap="butt" stroke-linejoin="round" stroke="rgb(100%, 100%, 100%)" stroke-opacity="1" stroke-miterlimit="10" d="M 546.679688 385.820312 L 546.679688 2920 L 3805 2920 L 3805 385.820312 L 546.679688 385.820312 " transform="matrix(0.1, 0, 0, -0.1, 0, 316)"/>
<path fill="none" stroke-width="5" stroke-linecap="butt" stroke-linejoin="round" stroke="rgb(0%, 0%, 0%)" stroke-opacity="1" stroke-miterlimit="10" d="M 546.679688 2920 L 3805 2920 " transform="matrix(0.1, 0, 0, -0.1, 0, 316)"/>
<path fill="none" stroke-width="5" stroke-linecap="butt" stroke-linejoin="round" stroke="rgb(0%, 0%, 0%)" stroke-opacity="1" stroke-miterlimit="10" d="M 546.679688 385.820312 L 3805 385.820312 " transform="matrix(0.1, 0, 0, -0.1, 0, 316)"/>
<path fill="none" stroke-width="5" stroke-linecap="butt" stroke-linejoin="round" stroke="rgb(0%, 0%, 0%)" stroke-opacity="1" stroke-miterlimit="10" d="M 3805 385.820312 L 3805 2920 " transform="matrix(0.1, 0, 0, -0.1, 0, 316)"/>
<path fill="none" stroke-width="5" stroke-linecap="butt" stroke-linejoin="round" stroke="rgb(0%, 0%, 0%)" stroke-opacity="1" stroke-miterlimit="10" d="M 546.679688 385.820312 L 546.679688 2920 " transform="matrix(0.1, 0, 0, -0.1, 0, 316)"/>
<path fill="none" stroke-width="5" stroke-linecap="butt" stroke-linejoin="round" stroke="rgb(0%, 0%, 0%)" stroke-opacity="1" stroke-miterlimit="10" d="M 546.679688 385.820312 L 3805 385.820312 " transform="matrix(0.1, 0, 0, -0.1, 0, 316)"/>
<path fill="none" stroke-width="5" stroke-linecap="butt" stroke-linejoin="round" stroke="rgb(0%, 0%, 0%)" stroke-opacity="1" stroke-miterlimit="10" d="M 546.679688 385.820312 L 546.679688 2920 " transform="matrix(0.1, 0, 0, -0.1, 0, 316)"/>
<path fill="none" stroke-width="5" stroke-linecap="butt" stroke-linejoin="round" stroke="rgb(0%, 0%, 0%)" stroke-opacity="1" stroke-miterlimit="10" d="M 546.679688 385.820312 L 546.679688 419.179688 " transform="matrix(0.1, 0, 0, -0.1, 0, 316)"/>
<path fill="none" stroke-width="5" stroke-linecap="butt" stroke-linejoin="round" stroke="rgb(0%, 0%, 0%)" stroke-opacity="1" stroke-miterlimit="10" d="M 546.679688 2920 L 546.679688 2887.5 " transform="matrix(0.1, 0, 0, -0.1, 0, 316)"/>
<g fill="rgb(0%, 0%, 0%)" fill-opacity="1">
<use xlink:href="#glyph-0-0" x="50.8332" y="293.25"/>
</g>
<path fill="none" stroke-width="5" stroke-linecap="butt" stroke-linejoin="round" stroke="rgb(0%, 0%, 0%)" stroke-opacity="1" stroke-miterlimit="10" d="M 1451.679688 385.820312 L 1451.679688 419.179688 " transform="matrix(0.1, 0, 0, -0.1, 0, 316)"/>
<path fill="none" stroke-width="5" stroke-linecap="butt" stroke-linejoin="round" stroke="rgb(0%, 0%, 0%)" stroke-opacity="1" stroke-miterlimit="10" d="M 1451.679688 2920 L 1451.679688 2887.5 " transform="matrix(0.1, 0, 0, -0.1, 0, 316)"/>
<g fill="rgb(0%, 0%, 0%)" fill-opacity="1">
<use xlink:href="#glyph-0-1" x="141.333" y="293.25"/>
</g>
<path fill="none" stroke-width="5" stroke-linecap="butt" stroke-linejoin="round" stroke="rgb(0%, 0%, 0%)" stroke-opacity="1" stroke-miterlimit="10" d="M 2356.679688 385.820312 L 2356.679688 419.179688 " transform="matrix(0.1, 0, 0, -0.1, 0, 316)"/>
<path fill="none" stroke-width="5" stroke-linecap="butt" stroke-linejoin="round" stroke="rgb(0%, 0%, 0%)" stroke-opacity="1" stroke-miterlimit="10" d="M 2356.679688 2920 L 2356.679688 2887.5 " transform="matrix(0.1, 0, 0, -0.1, 0, 316)"/>
<g fill="rgb(0%, 0%, 0%)" fill-opacity="1">
<use xlink:href="#glyph-0-2" x="227.917" y="293.25"/>
<use xlink:href="#glyph-0-0" x="235.701" y="293.25"/>
</g>
<path fill="none" stroke-width="5" stroke-linecap="butt" stroke-linejoin="round" stroke="rgb(0%, 0%, 0%)" stroke-opacity="1" stroke-miterlimit="10" d="M 3261.679688 385.820312 L 3261.679688 419.179688 " transform="matrix(0.1, 0, 0, -0.1, 0, 316)"/>
<path fill="none" stroke-width="5" stroke-linecap="butt" stroke-linejoin="round" stroke="rgb(0%, 0%, 0%)" stroke-opacity="1" stroke-miterlimit="10" d="M 3261.679688 2920 L 3261.679688 2887.5 " transform="matrix(0.1, 0, 0, -0.1, 0, 316)"/>
<g fill="rgb(0%, 0%, 0%)" fill-opacity="1">
<use xlink:href="#glyph-0-2" x="318.417" y="293.25"/>
<use xlink:href="#glyph-0-1" x="326.201" y="293.25"/>
</g>
<g clip-path="url(#clip-1)">
<g fill="rgb(0%, 0%, 0%)" fill-opacity="1">
<use xlink:href="#glyph-0-3" x="348.917" y="315.0832"/>
<use xlink:href="#glyph-0-4" x="355.917" y="315.0832"/>
<use xlink:href="#glyph-0-2" x="359.809" y="315.0832"/>
<use xlink:href="#glyph-0-0" x="367.593" y="315.0832"/>
</g>
</g>
<g fill="rgb(0%, 0%, 0%)" fill-opacity="1">
<use xlink:href="#glyph-1-0" x="375.3334" y="306.41679"/>
</g>
<path fill="none" stroke-width="5" stroke-linecap="butt" stroke-linejoin="round" stroke="rgb(0%, 0%, 0%)" stroke-opacity="1" stroke-miterlimit="10" d="M 546.679688 385.820312 L 579.179688 385.820312 " transform="matrix(0.1, 0, 0, -0.1, 0, 316)"/>
<path fill="none" stroke-width="5" stroke-linecap="butt" stroke-linejoin="round" stroke="rgb(0%, 0%, 0%)" stroke-opacity="1" stroke-miterlimit="10" d="M 3805 385.820312 L 3771.679688 385.820312 " transform="matrix(0.1, 0, 0, -0.1, 0, 316)"/>
<g fill="rgb(0%, 0%, 0%)" fill-opacity="1">
<use xlink:href="#glyph-0-0" x="44" y="282.5832"/>
</g>
<path fill="none" stroke-width="5" stroke-linecap="butt" stroke-linejoin="round" stroke="rgb(0%, 0%, 0%)" stroke-opacity="1" stroke-miterlimit="10" d="M 546.679688 748.320312 L 579.179688 748.320312 " transform="matrix(0.1, 0, 0, -0.1, 0, 316)"/>
<path fill="none" stroke-width="5" stroke-linecap="butt" stroke-linejoin="round" stroke="rgb(0%, 0%, 0%)" stroke-opacity="1" stroke-miterlimit="10" d="M 3805 748.320312 L 3771.679688 748.320312 " transform="matrix(0.1, 0, 0, -0.1, 0, 316)"/>
<g fill="rgb(0%, 0%, 0%)" fill-opacity="1">
<use xlink:href="#glyph-0-0" x="32.3332" y="246.3332"/>
<use xlink:href="#glyph-0-5" x="40.1172" y="246.3332"/>
<use xlink:href="#glyph-0-1" x="44.0092" y="246.3332"/>
</g>
<path fill="none" stroke-width="5" stroke-linecap="butt" stroke-linejoin="round" stroke="rgb(0%, 0%, 0%)" stroke-opacity="1" stroke-miterlimit="10" d="M 546.679688 1110 L 579.179688 1110 " transform="matrix(0.1, 0, 0, -0.1, 0, 316)"/>
<path fill="none" stroke-width="5" stroke-linecap="butt" stroke-linejoin="round" stroke="rgb(0%, 0%, 0%)" stroke-opacity="1" stroke-miterlimit="10" d="M 3805 1110 L 3771.679688 1110 " transform="matrix(0.1, 0, 0, -0.1, 0, 316)"/>
<g fill="rgb(0%, 0%, 0%)" fill-opacity="1">
<use xlink:href="#glyph-0-2" x="44" y="210.167"/>
</g>
<path fill="none" stroke-width="5" stroke-linecap="butt" stroke-linejoin="round" stroke="rgb(0%, 0%, 0%)" stroke-opacity="1" stroke-miterlimit="10" d="M 546.679688 1472.5 L 579.179688 1472.5 " transform="matrix(0.1, 0, 0, -0.1, 0, 316)"/>
<path fill="none" stroke-width="5" stroke-linecap="butt" stroke-linejoin="round" stroke="rgb(0%, 0%, 0%)" stroke-opacity="1" stroke-miterlimit="10" d="M 3805 1472.5 L 3771.679688 1472.5 " transform="matrix(0.1, 0, 0, -0.1, 0, 316)"/>
<g fill="rgb(0%, 0%, 0%)" fill-opacity="1">
<use xlink:href="#glyph-0-2" x="32.3332" y="173.917"/>
<use xlink:href="#glyph-0-5" x="40.1172" y="173.917"/>
<use xlink:href="#glyph-0-1" x="44.0092" y="173.917"/>
</g>
<path fill="none" stroke-width="5" stroke-linecap="butt" stroke-linejoin="round" stroke="rgb(0%, 0%, 0%)" stroke-opacity="1" stroke-miterlimit="10" d="M 546.679688 1834.179688 L 579.179688 1834.179688 " transform="matrix(0.1, 0, 0, -0.1, 0, 316)"/>
<path fill="none" stroke-width="5" stroke-linecap="butt" stroke-linejoin="round" stroke="rgb(0%, 0%, 0%)" stroke-opacity="1" stroke-miterlimit="10" d="M 3805 1834.179688 L 3771.679688 1834.179688 " transform="matrix(0.1, 0, 0, -0.1, 0, 316)"/>
<g fill="rgb(0%, 0%, 0%)" fill-opacity="1">
<use xlink:href="#glyph-0-6" x="44" y="137.75"/>
</g>
<path fill="none" stroke-width="5" stroke-linecap="butt" stroke-linejoin="round" stroke="rgb(0%, 0%, 0%)" stroke-opacity="1" stroke-miterlimit="10" d="M 546.679688 2196.679688 L 579.179688 2196.679688 " transform="matrix(0.1, 0, 0, -0.1, 0, 316)"/>
<path fill="none" stroke-width="5" stroke-linecap="butt" stroke-linejoin="round" stroke="rgb(0%, 0%, 0%)" stroke-opacity="1" stroke-miterlimit="10" d="M 3805 2196.679688 L 3771.679688 2196.679688 " transform="matrix(0.1, 0, 0, -0.1, 0, 316)"/>
<g fill="rgb(0%, 0%, 0%)" fill-opacity="1">
<use xlink:href="#glyph-0-6" x="32.3332" y="101.5"/>
<use xlink:href="#glyph-0-5" x="40.1172" y="101.5"/>
<use xlink:href="#glyph-0-1" x="44.0092" y="101.5"/>
</g>
<path fill="none" stroke-width="5" stroke-linecap="butt" stroke-linejoin="round" stroke="rgb(0%, 0%, 0%)" stroke-opacity="1" stroke-miterlimit="10" d="M 546.679688 2558.320312 L 579.179688 2558.320312 " transform="matrix(0.1, 0, 0, -0.1, 0, 316)"/>
<path fill="none" stroke-width="5" stroke-linecap="butt" stroke-linejoin="round" stroke="rgb(0%, 0%, 0%)" stroke-opacity="1" stroke-miterlimit="10" d="M 3805 2558.320312 L 3771.679688 2558.320312 " transform="matrix(0.1, 0, 0, -0.1, 0, 316)"/>
<g fill="rgb(0%, 0%, 0%)" fill-opacity="1">
<use xlink:href="#glyph-0-7" x="44" y="65.333"/>
</g>
<path fill="none" stroke-width="5" stroke-linecap="butt" stroke-linejoin="round" stroke="rgb(0%, 0%, 0%)" stroke-opacity="1" stroke-miterlimit="10" d="M 546.679688 2920 L 579.179688 2920 " transform="matrix(0.1, 0, 0, -0.1, 0, 316)"/>
<path fill="none" stroke-width="5" stroke-linecap="butt" stroke-linejoin="round" stroke="rgb(0%, 0%, 0%)" stroke-opacity="1" stroke-miterlimit="10" d="M 3805 2920 L 3771.679688 2920 " transform="matrix(0.1, 0, 0, -0.1, 0, 316)"/>
<g fill="rgb(0%, 0%, 0%)" fill-opacity="1">
<use xlink:href="#glyph-0-7" x="32.3332" y="29.167"/>
<use xlink:href="#glyph-0-5" x="40.1172" y="29.167"/>
<use xlink:href="#glyph-0-1" x="44.0092" y="29.167"/>
</g>
<g fill="rgb(0%, 0%, 0%)" fill-opacity="1">
<use xlink:href="#glyph-0-3" x="54.6668" y="19.5002"/>
<use xlink:href="#glyph-0-4" x="61.6668" y="19.5002"/>
<use xlink:href="#glyph-0-2" x="65.5588" y="19.5002"/>
<use xlink:href="#glyph-0-0" x="73.3428" y="19.5002"/>
</g>
<g fill="rgb(0%, 0%, 0%)" fill-opacity="1">
<use xlink:href="#glyph-1-1" x="81.0832" y="10.8334"/>
</g>
<path fill="none" stroke-width="5" stroke-linecap="butt" stroke-linejoin="round" stroke="rgb(0%, 0%, 0%)" stroke-opacity="1" stroke-miterlimit="10" d="M 546.679688 2920 L 3805 2920 " transform="matrix(0.1, 0, 0, -0.1, 0, 316)"/>
<path fill="none" stroke-width="5" stroke-linecap="butt" stroke-linejoin="round" stroke="rgb(0%, 0%, 0%)" stroke-opacity="1" stroke-miterlimit="10" d="M 546.679688 385.820312 L 3805 385.820312 " transform="matrix(0.1, 0, 0, -0.1, 0, 316)"/>
<path fill="none" stroke-width="5" stroke-linecap="butt" stroke-linejoin="round" stroke="rgb(0%, 0%, 0%)" stroke-opacity="1" stroke-miterlimit="10" d="M 3805 385.820312 L 3805 2920 " transform="matrix(0.1, 0, 0, -0.1, 0, 316)"/>
<path fill="none" stroke-width="5" stroke-linecap="butt" stroke-linejoin="round" stroke="rgb(0%, 0%, 0%)" stroke-opacity="1" stroke-miterlimit="10" d="M 546.679688 385.820312 L 546.679688 2920 " transform="matrix(0.1, 0, 0, -0.1, 0, 316)"/>
<g clip-path="url(#clip-2)">
<path fill="none" stroke-width="10" stroke-linecap="butt" stroke-linejoin="round" stroke="rgb(0%, 0%, 0%)" stroke-opacity="1" stroke-miterlimit="10" d="M 1098.320312 2270 L 1125.820312 2270 L 1134.179688 2270.820312 L 1143.320312 2270.820312 L 1161.679688 2269.179688 L 1170.820312 2265.820312 L 1180 2261.679688 L 1189.179688 2256.679688 L 1198.320312 2250 L 1206.679688 2243.320312 L 1215.820312 2235.820312 L 1225 2228.320312 L 1234.179688 2221.679688 L 1243.320312 2215.820312 L 1252.5 2210.820312 L 1261.679688 2208.320312 L 1270 2205.820312 L 1279.179688 2205 L 1288.320312 2204.179688 L 1306.679688 2204.179688 L 1315.820312 2203.320312 L 1325 2202.5 L 1333.320312 2200.820312 L 1342.5 2199.179688 L 1351.679688 2196.679688 L 1360.820312 2194.179688 L 1370 2192.5 L 1379.179688 2190 L 1388.320312 2188.320312 L 1396.679688 2187.5 L 1405.820312 2186.679688 L 1415 2185.820312 L 1433.320312 2185.820312 L 1451.679688 2184.179688 L 1460 2182.5 L 1469.179688 2179.179688 L 1478.320312 2175.820312 L 1487.5 2171.679688 L 1496.679688 2167.5 L 1505.820312 2162.5 L 1524.179688 2152.5 L 1532.5 2148.320312 L 1541.679688 2145 L 1550.820312 2141.679688 L 1560 2140 L 1569.179688 2137.5 L 1578.320312 2136.679688 L 1587.5 2135 L 1595.820312 2134.179688 L 1614.179688 2130.820312 L 1623.320312 2130 L 1632.5 2128.320312 L 1641.679688 2125.820312 L 1650.820312 2124.179688 L 1659.179688 2121.679688 L 1668.320312 2119.179688 L 1686.679688 2114.179688 L 1695.820312 2112.5 L 1705 2110 L 1714.179688 2108.320312 L 1722.5 2106.679688 L 1731.679688 2105 L 1740.820312 2103.320312 L 1750 2102.5 L 1759.179688 2102.5 L 1768.320312 2101.679688 L 1777.5 2100.820312 L 1785.820312 2100.820312 L 1795 2100 L 1804.179688 2098.320312 L 1813.320312 2096.679688 L 1822.5 2094.179688 L 1831.679688 2090.820312 L 1840.820312 2086.679688 L 1850 2082.5 L 1858.320312 2077.5 L 1867.5 2071.679688 L 1876.679688 2066.679688 L 1885.820312 2061.679688 L 1895 2057.5 L 1904.179688 2054.179688 L 1913.320312 2051.679688 L 1921.679688 2050 L 1930.820312 2050 L 1940 2050.820312 L 1949.179688 2052.5 L 1958.320312 2055 L 1976.679688 2060 L 1985 2061.679688 L 1994.179688 2062.5 L 2003.320312 2062.5 L 2012.5 2061.679688 L 2021.679688 2059.179688 L 2030.820312 2055 L 2040 2050.820312 L 2048.320312 2045 L 2057.5 2039.179688 L 2066.679688 2033.320312 L 2075.820312 2027.5 L 2094.179688 2017.5 L 2103.320312 2014.179688 L 2111.679688 2011.679688 L 2120.820312 2010 L 2130 2008.320312 L 2139.179688 2008.320312 L 2148.320312 2007.5 L 2157.5 2007.5 L 2166.679688 2006.679688 L 2175.820312 2006.679688 L 2184.179688 2005.820312 L 2193.320312 2005 L 2202.5 2003.320312 L 2211.679688 2001.679688 L 2220.820312 2000.820312 L 2230 1999.179688 L 2239.179688 1996.679688 L 2247.5 1995 L 2256.679688 1993.320312 L 2265.820312 1990.820312 L 2275 1989.179688 L 2284.179688 1986.679688 L 2293.320312 1984.179688 L 2302.5 1982.5 L 2310.820312 1980 L 2320 1978.320312 L 2329.179688 1976.679688 L 2338.320312 1975 L 2347.5 1974.179688 L 2356.679688 1972.5 L 2365.820312 1972.5 L 2374.179688 1971.679688 L 2383.320312 1971.679688 L 2392.5 1970.820312 L 2401.679688 1970.820312 L 2410.820312 1970 L 2420 1968.320312 L 2429.179688 1966.679688 L 2437.5 1965 L 2446.679688 1962.5 L 2455.820312 1959.179688 L 2474.179688 1950.820312 L 2483.320312 1946.679688 L 2492.5 1941.679688 L 2501.679688 1937.5 L 2510 1933.320312 L 2519.179688 1929.179688 L 2528.320312 1926.679688 L 2546.679688 1923.320312 L 2555.820312 1923.320312 L 2565 1924.179688 L 2573.320312 1926.679688 L 2582.5 1928.320312 L 2591.679688 1930.820312 L 2600.820312 1933.320312 L 2610 1935 L 2628.320312 1935 L 2636.679688 1933.320312 L 2645.820312 1930 L 2655 1925.820312 L 2664.179688 1920.820312 L 2673.320312 1915 L 2682.5 1909.179688 L 2691.679688 1903.320312 L 2700 1898.320312 L 2709.179688 1894.179688 L 2718.320312 1890 L 2727.5 1887.5 L 2736.679688 1885.820312 L 2745.820312 1885 L 2755 1884.179688 L 2763.320312 1883.320312 L 2772.5 1883.320312 L 2781.679688 1882.5 L 2790.820312 1881.679688 L 2800 1880.820312 L 2809.179688 1879.179688 L 2818.320312 1878.320312 L 2827.5 1876.679688 L 2835.820312 1875.820312 L 2854.179688 1874.179688 L 2881.679688 1874.179688 L 2890.820312 1875 L 2917.5 1875 L 2926.679688 1874.179688 L 2935.820312 1873.320312 L 2945 1871.679688 L 2954.179688 1869.179688 L 2962.5 1865.820312 L 2971.679688 1862.5 L 2980.820312 1859.179688 L 2990 1855.820312 L 2999.179688 1852.5 L 3008.320312 1850 L 3017.5 1847.5 L 3025.820312 1845 L 3035 1843.320312 L 3044.179688 1841.679688 L 3053.320312 1840.820312 L 3071.679688 1839.179688 L 3080.820312 1837.5 L 3089.179688 1835.820312 L 3098.320312 1834.179688 L 3107.5 1832.5 L 3116.679688 1830 L 3125.820312 1827.5 L 3135 1825 L 3144.179688 1823.320312 L 3153.320312 1820.820312 L 3161.679688 1818.320312 L 3170.820312 1817.5 L 3180 1815.820312 L 3207.5 1815.820312 L 3216.679688 1816.679688 L 3225 1817.5 L 3234.179688 1818.320312 L 3243.320312 1819.179688 L 3261.679688 1819.179688 L 3270.820312 1818.320312 L 3280 1816.679688 L 3288.320312 1814.179688 L 3297.5 1811.679688 L 3306.679688 1808.320312 L 3315.820312 1805 L 3325 1800.820312 L 3334.179688 1797.5 L 3343.320312 1794.179688 L 3351.679688 1790.820312 L 3360.820312 1788.320312 L 3370 1785.820312 L 3379.179688 1784.179688 L 3388.320312 1782.5 L 3397.5 1780.820312 L 3406.679688 1779.179688 L 3415 1777.5 L 3424.179688 1776.679688 L 3433.320312 1775.820312 L 3442.5 1775 L 3515 1775 L 3524.179688 1773.320312 L 3533.320312 1772.5 L 3542.5 1770 L 3550.820312 1768.320312 L 3560 1765.820312 L 3569.179688 1762.5 L 3578.320312 1760 L 3596.679688 1755 L 3605.820312 1752.5 L 3614.179688 1750.820312 L 3623.320312 1749.179688 L 3632.5 1747.5 L 3641.679688 1746.679688 L 3650.820312 1745.820312 L 3669.179688 1744.179688 L 3677.5 1743.320312 L 3686.679688 1741.679688 L 3695.820312 1740.820312 L 3705 1739.179688 L 3714.179688 1738.320312 L 3723.320312 1736.679688 L 3732.5 1734.179688 L 3740.820312 1732.5 L 3750 1730.820312 L 3759.179688 1728.320312 L 3768.320312 1726.679688 L 3777.5 1725 L 3786.679688 1724.179688 L 3795.820312 1723.320312 L 3805 1722.5 " transform="matrix(0.1, 0, 0, -0.1, 0, 316)"/>
</g>
<path fill="none" stroke-width="10" stroke-linecap="butt" stroke-linejoin="round" stroke="rgb(0%, 0%, 0%)" stroke-opacity="1" stroke-miterlimit="10" d="M 555 2560 L 564.179688 2372.5 L 573.320312 2547.5 L 582.5 2358.320312 L 591.679688 2485.820312 L 600.820312 2368.320312 L 610 2430 L 618.320312 2380 L 627.5 2400 L 636.679688 2387.5 L 645.820312 2390.820312 L 655 2393.320312 L 664.179688 2392.5 L 673.320312 2395.820312 L 681.679688 2393.320312 L 690.820312 2395 L 700 2392.5 L 709.179688 2390.820312 L 718.320312 2388.320312 L 727.5 2385.820312 L 736.679688 2382.5 L 745 2379.179688 L 754.179688 2375.820312 L 763.320312 2373.320312 L 781.679688 2366.679688 L 790.820312 2364.179688 L 800 2360.820312 L 808.320312 2358.320312 L 817.5 2355 L 826.679688 2352.5 L 835.820312 2350 L 845 2346.679688 L 854.179688 2344.179688 L 863.320312 2341.679688 L 872.5 2338.320312 L 880.820312 2335.820312 L 890 2333.320312 L 899.179688 2330 L 908.320312 2327.5 L 926.679688 2322.5 L 935.820312 2319.179688 L 944.179688 2316.679688 L 953.320312 2314.179688 L 962.5 2310.820312 L 971.679688 2308.320312 L 980.820312 2305 L 990 2302.5 L 999.179688 2299.179688 L 1007.5 2295.820312 L 1016.679688 2293.320312 L 1025.820312 2290 L 1035 2286.679688 L 1044.179688 2283.320312 L 1053.320312 2280 L 1062.5 2277.5 L 1070.820312 2275 L 1080 2272.5 L 1089.179688 2270.820312 L 1098.320312 2270 " transform="matrix(0.1, 0, 0, -0.1, 0, 316)"/>
<g clip-path="url(#clip-3)">
<path fill="none" stroke-width="20" stroke-linecap="butt" stroke-linejoin="round" stroke="rgb(0%, 0%, 0%)" stroke-opacity="1" stroke-dasharray="60" stroke-miterlimit="10" d="M 1098.320312 2242.5 L 1107.5 2241.679688 L 1143.320312 2241.679688 L 1152.5 2240.820312 L 1161.679688 2239.179688 L 1170.820312 2235.820312 L 1180 2231.679688 L 1189.179688 2226.679688 L 1198.320312 2220 L 1206.679688 2212.5 L 1215.820312 2205 L 1225 2197.5 L 1234.179688 2190.820312 L 1243.320312 2185 L 1252.5 2180 L 1261.679688 2176.679688 L 1270 2174.179688 L 1279.179688 2172.5 L 1288.320312 2171.679688 L 1297.5 2171.679688 L 1306.679688 2170.820312 L 1315.820312 2170 L 1325 2169.179688 L 1333.320312 2167.5 L 1351.679688 2162.5 L 1360.820312 2160 L 1379.179688 2155 L 1388.320312 2153.320312 L 1396.679688 2151.679688 L 1405.820312 2150.820312 L 1424.179688 2149.179688 L 1433.320312 2148.320312 L 1451.679688 2146.679688 L 1460 2144.179688 L 1469.179688 2141.679688 L 1478.320312 2137.5 L 1487.5 2133.320312 L 1496.679688 2128.320312 L 1505.820312 2123.320312 L 1515 2118.320312 L 1524.179688 2114.179688 L 1532.5 2109.179688 L 1541.679688 2105 L 1550.820312 2101.679688 L 1569.179688 2096.679688 L 1578.320312 2095 L 1587.5 2093.320312 L 1595.820312 2091.679688 L 1614.179688 2088.320312 L 1623.320312 2085.820312 L 1632.5 2084.179688 L 1641.679688 2081.679688 L 1650.820312 2079.179688 L 1659.179688 2076.679688 L 1668.320312 2074.179688 L 1686.679688 2069.179688 L 1695.820312 2066.679688 L 1714.179688 2061.679688 L 1722.5 2060 L 1731.679688 2058.320312 L 1740.820312 2056.679688 L 1750 2055.820312 L 1759.179688 2054.179688 L 1768.320312 2054.179688 L 1777.5 2053.320312 L 1785.820312 2052.5 L 1795 2050.820312 L 1804.179688 2049.179688 L 1813.320312 2047.5 L 1822.5 2045 L 1831.679688 2040.820312 L 1840.820312 2037.5 L 1850 2032.5 L 1858.320312 2027.5 L 1867.5 2021.679688 L 1876.679688 2016.679688 L 1885.820312 2011.679688 L 1895 2006.679688 L 1904.179688 2003.320312 L 1913.320312 2000 L 1921.679688 1998.320312 L 1940 1998.320312 L 1949.179688 2000 L 1958.320312 2001.679688 L 1967.5 2003.320312 L 1976.679688 2005 L 1985 2006.679688 L 1994.179688 2007.5 L 2003.320312 2007.5 L 2012.5 2005.820312 L 2021.679688 2003.320312 L 2030.820312 2000 L 2040 1995 L 2048.320312 1990 L 2057.5 1984.179688 L 2066.679688 1978.320312 L 2075.820312 1972.5 L 2094.179688 1962.5 L 2103.320312 1959.179688 L 2111.679688 1955.820312 L 2120.820312 1954.179688 L 2139.179688 1950.820312 L 2148.320312 1950 L 2157.5 1949.179688 L 2166.679688 1948.320312 L 2175.820312 1947.5 L 2184.179688 1946.679688 L 2193.320312 1945 L 2202.5 1944.179688 L 2211.679688 1942.5 L 2220.820312 1940.820312 L 2230 1939.179688 L 2239.179688 1936.679688 L 2247.5 1935 L 2256.679688 1932.5 L 2265.820312 1930 L 2275 1928.320312 L 2284.179688 1925.820312 L 2293.320312 1923.320312 L 2302.5 1920.820312 L 2310.820312 1918.320312 L 2320 1916.679688 L 2329.179688 1915 L 2338.320312 1913.320312 L 2347.5 1911.679688 L 2356.679688 1910 L 2365.820312 1909.179688 L 2374.179688 1909.179688 L 2383.320312 1908.320312 L 2401.679688 1906.679688 L 2410.820312 1905.820312 L 2420 1905 L 2429.179688 1903.320312 L 2437.5 1900.820312 L 2446.679688 1898.320312 L 2455.820312 1895 L 2465 1890.820312 L 2474.179688 1886.679688 L 2483.320312 1882.5 L 2492.5 1877.5 L 2501.679688 1873.320312 L 2510 1869.179688 L 2519.179688 1865 L 2528.320312 1862.5 L 2537.5 1860 L 2546.679688 1859.179688 L 2565 1859.179688 L 2573.320312 1860.820312 L 2591.679688 1864.179688 L 2600.820312 1865.820312 L 2610 1867.5 L 2619.179688 1867.5 L 2628.320312 1866.679688 L 2636.679688 1865 L 2645.820312 1862.5 L 2655 1858.320312 L 2664.179688 1853.320312 L 2673.320312 1848.320312 L 2691.679688 1836.679688 L 2700 1832.5 L 2709.179688 1827.5 L 2718.320312 1824.179688 L 2736.679688 1819.179688 L 2745.820312 1817.5 L 2755 1816.679688 L 2763.320312 1815.820312 L 2781.679688 1814.179688 L 2790.820312 1812.5 L 2800 1811.679688 L 2809.179688 1810 L 2818.320312 1809.179688 L 2827.5 1807.5 L 2835.820312 1805.820312 L 2854.179688 1804.179688 L 2917.5 1804.179688 L 2926.679688 1803.320312 L 2935.820312 1801.679688 L 2945 1800 L 2954.179688 1797.5 L 2962.5 1795 L 2971.679688 1791.679688 L 2980.820312 1788.320312 L 2990 1785 L 2999.179688 1782.5 L 3008.320312 1779.179688 L 3017.5 1776.679688 L 3025.820312 1775 L 3035 1772.5 L 3044.179688 1770.820312 L 3053.320312 1770 L 3062.5 1768.320312 L 3071.679688 1767.5 L 3080.820312 1765.820312 L 3089.179688 1764.179688 L 3098.320312 1762.5 L 3116.679688 1757.5 L 3125.820312 1755 L 3135 1752.5 L 3144.179688 1750.820312 L 3153.320312 1748.320312 L 3161.679688 1745.820312 L 3170.820312 1745 L 3180 1743.320312 L 3189.179688 1742.5 L 3207.5 1742.5 L 3216.679688 1743.320312 L 3225 1743.320312 L 3234.179688 1744.179688 L 3261.679688 1744.179688 L 3270.820312 1743.320312 L 3280 1741.679688 L 3288.320312 1739.179688 L 3297.5 1736.679688 L 3306.679688 1733.320312 L 3315.820312 1730 L 3325 1726.679688 L 3334.179688 1723.320312 L 3343.320312 1720 L 3351.679688 1716.679688 L 3360.820312 1714.179688 L 3379.179688 1709.179688 L 3388.320312 1707.5 L 3397.5 1705.820312 L 3406.679688 1704.179688 L 3415 1702.5 L 3424.179688 1700.820312 L 3433.320312 1700 L 3442.5 1699.179688 L 3451.679688 1699.179688 L 3460.820312 1698.320312 L 3496.679688 1698.320312 L 3505.820312 1697.5 L 3515 1696.679688 L 3524.179688 1695.820312 L 3533.320312 1694.179688 L 3542.5 1692.5 L 3550.820312 1690.820312 L 3569.179688 1685.820312 L 3578.320312 1682.5 L 3596.679688 1677.5 L 3605.820312 1675.820312 L 3614.179688 1673.320312 L 3623.320312 1671.679688 L 3632.5 1670 L 3641.679688 1669.179688 L 3650.820312 1667.5 L 3660 1666.679688 L 3669.179688 1665.820312 L 3677.5 1664.179688 L 3686.679688 1663.320312 L 3695.820312 1662.5 L 3705 1660.820312 L 3714.179688 1659.179688 L 3723.320312 1657.5 L 3732.5 1655.820312 L 3740.820312 1653.320312 L 3750 1651.679688 L 3759.179688 1650 L 3768.320312 1647.5 L 3777.5 1645.820312 L 3786.679688 1645 L 3795.820312 1644.179688 L 3805 1643.320312 " transform="matrix(0.1, 0, 0, -0.1, 0, 316)"/>
</g>
<g clip-path="url(#clip-4)">
<path fill="none" stroke-width="20" stroke-linecap="butt" stroke-linejoin="round" stroke="rgb(0%, 0%, 0%)" stroke-opacity="1" stroke-dasharray="60" stroke-miterlimit="10" d="M 555 2560 L 564.179688 2372.5 L 573.320312 2547.5 L 582.5 2357.5 L 591.679688 2485 L 600.820312 2366.679688 L 610 2428.320312 L 618.320312 2376.679688 L 627.5 2395.820312 L 636.679688 2383.320312 L 645.820312 2385.820312 L 655 2386.679688 L 664.179688 2385 L 673.320312 2387.5 L 681.679688 2385 L 690.820312 2385.820312 L 700 2383.320312 L 709.179688 2381.679688 L 718.320312 2377.5 L 727.5 2375 L 736.679688 2371.679688 L 745 2367.5 L 754.179688 2364.179688 L 763.320312 2360.820312 L 772.5 2356.679688 L 781.679688 2353.320312 L 790.820312 2350 L 800 2346.679688 L 808.320312 2343.320312 L 826.679688 2336.679688 L 835.820312 2333.320312 L 854.179688 2326.679688 L 863.320312 2324.179688 L 872.5 2320.820312 L 880.820312 2317.5 L 890 2314.179688 L 899.179688 2310.820312 L 908.320312 2307.5 L 917.5 2305 L 926.679688 2301.679688 L 935.820312 2298.320312 L 944.179688 2295 L 953.320312 2292.5 L 962.5 2289.179688 L 971.679688 2285.820312 L 980.820312 2282.5 L 990 2279.179688 L 999.179688 2275.820312 L 1007.5 2271.679688 L 1016.679688 2268.320312 L 1025.820312 2265 L 1035 2260.820312 L 1044.179688 2257.5 L 1053.320312 2254.179688 L 1062.5 2250.820312 L 1070.820312 2248.320312 L 1080 2245.820312 L 1089.179688 2244.179688 L 1098.320312 2242.5 " transform="matrix(0.1, 0, 0, -0.1, 0, 316)"/>
</g>
<g clip-path="url(#clip-5)">
<path fill="none" stroke-width="20" stroke-linecap="butt" stroke-linejoin="round" stroke="rgb(0%, 0%, 0%)" stroke-opacity="1" stroke-miterlimit="10" d="M 1098.320312 2139.179688 L 1116.679688 2135.820312 L 1125.820312 2135 L 1134.179688 2134.179688 L 1143.320312 2133.320312 L 1161.679688 2128.320312 L 1170.820312 2125 L 1180 2120 L 1189.179688 2114.179688 L 1198.320312 2107.5 L 1206.679688 2100 L 1215.820312 2092.5 L 1234.179688 2077.5 L 1243.320312 2071.679688 L 1261.679688 2061.679688 L 1270 2058.320312 L 1279.179688 2055.820312 L 1288.320312 2054.179688 L 1297.5 2051.679688 L 1306.679688 2050 L 1315.820312 2048.320312 L 1325 2045.820312 L 1333.320312 2043.320312 L 1351.679688 2036.679688 L 1360.820312 2033.320312 L 1379.179688 2026.679688 L 1388.320312 2024.179688 L 1396.679688 2021.679688 L 1405.820312 2019.179688 L 1424.179688 2015.820312 L 1433.320312 2014.179688 L 1451.679688 2009.179688 L 1460 2006.679688 L 1469.179688 2003.320312 L 1478.320312 1999.179688 L 1487.5 1995 L 1496.679688 1990 L 1505.820312 1984.179688 L 1515 1979.179688 L 1524.179688 1973.320312 L 1532.5 1968.320312 L 1541.679688 1963.320312 L 1550.820312 1958.320312 L 1560 1954.179688 L 1569.179688 1950.820312 L 1578.320312 1946.679688 L 1587.5 1943.320312 L 1595.820312 1940.820312 L 1614.179688 1934.179688 L 1623.320312 1931.679688 L 1632.5 1928.320312 L 1641.679688 1925 L 1650.820312 1921.679688 L 1659.179688 1918.320312 L 1668.320312 1915 L 1677.5 1911.679688 L 1686.679688 1908.320312 L 1695.820312 1905 L 1705 1901.679688 L 1714.179688 1898.320312 L 1722.5 1895.820312 L 1731.679688 1893.320312 L 1740.820312 1890.820312 L 1750 1889.179688 L 1759.179688 1887.5 L 1768.320312 1885.820312 L 1777.5 1884.179688 L 1785.820312 1882.5 L 1804.179688 1877.5 L 1813.320312 1875 L 1822.5 1871.679688 L 1831.679688 1867.5 L 1840.820312 1863.320312 L 1850 1857.5 L 1858.320312 1852.5 L 1867.5 1846.679688 L 1876.679688 1840.820312 L 1885.820312 1835.820312 L 1904.179688 1825.820312 L 1913.320312 1822.5 L 1921.679688 1820 L 1930.820312 1817.5 L 1940 1816.679688 L 1967.5 1816.679688 L 1976.679688 1817.5 L 1994.179688 1817.5 L 2003.320312 1816.679688 L 2012.5 1815.820312 L 2021.679688 1813.320312 L 2030.820312 1810 L 2040 1805.820312 L 2048.320312 1800.820312 L 2066.679688 1790.820312 L 2075.820312 1785 L 2094.179688 1775 L 2103.320312 1770.820312 L 2111.679688 1766.679688 L 2120.820312 1763.320312 L 2130 1760 L 2139.179688 1757.5 L 2148.320312 1755 L 2157.5 1753.320312 L 2166.679688 1750.820312 L 2175.820312 1749.179688 L 2184.179688 1746.679688 L 2193.320312 1745 L 2202.5 1742.5 L 2211.679688 1740.820312 L 2220.820312 1738.320312 L 2239.179688 1733.320312 L 2247.5 1730.820312 L 2256.679688 1728.320312 L 2265.820312 1725.820312 L 2275 1722.5 L 2284.179688 1720 L 2293.320312 1717.5 L 2302.5 1714.179688 L 2310.820312 1711.679688 L 2329.179688 1706.679688 L 2338.320312 1705 L 2347.5 1703.320312 L 2356.679688 1701.679688 L 2365.820312 1700 L 2374.179688 1698.320312 L 2383.320312 1697.5 L 2392.5 1696.679688 L 2401.679688 1695 L 2410.820312 1694.179688 L 2420 1692.5 L 2429.179688 1690 L 2437.5 1687.5 L 2446.679688 1685 L 2455.820312 1681.679688 L 2474.179688 1673.320312 L 2483.320312 1669.179688 L 2501.679688 1660.820312 L 2510 1656.679688 L 2519.179688 1653.320312 L 2528.320312 1650 L 2537.5 1647.5 L 2546.679688 1645.820312 L 2555.820312 1645 L 2582.5 1645 L 2591.679688 1645.820312 L 2619.179688 1645.820312 L 2628.320312 1645 L 2636.679688 1642.5 L 2645.820312 1640 L 2655 1636.679688 L 2664.179688 1632.5 L 2673.320312 1628.320312 L 2682.5 1624.179688 L 2691.679688 1620 L 2700 1615 L 2709.179688 1610.820312 L 2718.320312 1607.5 L 2727.5 1604.179688 L 2736.679688 1600.820312 L 2745.820312 1598.320312 L 2755 1596.679688 L 2763.320312 1594.179688 L 2772.5 1592.5 L 2781.679688 1590 L 2790.820312 1588.320312 L 2800 1586.679688 L 2809.179688 1585 L 2818.320312 1583.320312 L 2827.5 1581.679688 L 2835.820312 1580 L 2845 1579.179688 L 2854.179688 1578.320312 L 2863.320312 1577.5 L 2872.5 1576.679688 L 2881.679688 1575.820312 L 2890.820312 1575.820312 L 2899.179688 1575 L 2908.320312 1574.179688 L 2917.5 1573.320312 L 2926.679688 1572.5 L 2935.820312 1571.679688 L 2945 1570 L 2954.179688 1567.5 L 2962.5 1565.820312 L 2971.679688 1563.320312 L 2980.820312 1560 L 2999.179688 1555 L 3008.320312 1552.5 L 3017.5 1550 L 3025.820312 1547.5 L 3035 1545.820312 L 3044.179688 1543.320312 L 3053.320312 1541.679688 L 3062.5 1539.179688 L 3071.679688 1537.5 L 3080.820312 1535 L 3089.179688 1533.320312 L 3098.320312 1530.820312 L 3116.679688 1525.820312 L 3125.820312 1524.179688 L 3144.179688 1519.179688 L 3153.320312 1516.679688 L 3161.679688 1515 L 3170.820312 1513.320312 L 3180 1511.679688 L 3189.179688 1510.820312 L 3198.320312 1510 L 3207.5 1509.179688 L 3216.679688 1509.179688 L 3225 1508.320312 L 3243.320312 1508.320312 L 3261.679688 1506.679688 L 3270.820312 1505 L 3280 1503.320312 L 3288.320312 1501.679688 L 3306.679688 1496.679688 L 3315.820312 1494.179688 L 3325 1490.820312 L 3334.179688 1488.320312 L 3343.320312 1485 L 3351.679688 1482.5 L 3360.820312 1479.179688 L 3379.179688 1474.179688 L 3388.320312 1471.679688 L 3397.5 1470 L 3406.679688 1467.5 L 3415 1465.820312 L 3424.179688 1464.179688 L 3433.320312 1462.5 L 3442.5 1461.679688 L 3451.679688 1460.820312 L 3460.820312 1460 L 3470 1459.179688 L 3479.179688 1458.320312 L 3487.5 1457.5 L 3496.679688 1456.679688 L 3505.820312 1455.820312 L 3524.179688 1454.179688 L 3533.320312 1452.5 L 3542.5 1450.820312 L 3550.820312 1449.179688 L 3560 1446.679688 L 3569.179688 1445 L 3578.320312 1442.5 L 3587.5 1440.820312 L 3596.679688 1438.320312 L 3605.820312 1435.820312 L 3614.179688 1434.179688 L 3623.320312 1432.5 L 3632.5 1430 L 3641.679688 1428.320312 L 3650.820312 1426.679688 L 3660 1425 L 3669.179688 1424.179688 L 3677.5 1422.5 L 3686.679688 1420.820312 L 3695.820312 1419.179688 L 3705 1417.5 L 3714.179688 1415 L 3723.320312 1413.320312 L 3732.5 1411.679688 L 3740.820312 1409.179688 L 3759.179688 1405.820312 L 3768.320312 1404.179688 L 3777.5 1402.5 L 3786.679688 1401.679688 L 3795.820312 1400.820312 L 3805 1400 " transform="matrix(0.1, 0, 0, -0.1, 0, 316)"/>
</g>
<g clip-path="url(#clip-6)">
<path fill="none" stroke-width="20" stroke-linecap="butt" stroke-linejoin="round" stroke="rgb(0%, 0%, 0%)" stroke-opacity="1" stroke-miterlimit="10" d="M 555 2560 L 564.179688 2372.5 L 573.320312 2545.820312 L 582.5 2355.820312 L 591.679688 2480.820312 L 600.820312 2360.820312 L 610 2419.179688 L 618.320312 2365 L 627.5 2381.679688 L 636.679688 2365 L 645.820312 2364.179688 L 655 2362.5 L 664.179688 2357.5 L 673.320312 2357.5 L 681.679688 2353.320312 L 690.820312 2351.679688 L 700 2346.679688 L 709.179688 2343.320312 L 718.320312 2337.5 L 727.5 2333.320312 L 736.679688 2327.5 L 745 2322.5 L 754.179688 2317.5 L 763.320312 2311.679688 L 781.679688 2301.679688 L 790.820312 2296.679688 L 800 2291.679688 L 808.320312 2286.679688 L 826.679688 2276.679688 L 835.820312 2271.679688 L 854.179688 2261.679688 L 863.320312 2256.679688 L 872.5 2251.679688 L 880.820312 2247.5 L 899.179688 2237.5 L 908.320312 2232.5 L 917.5 2228.320312 L 926.679688 2223.320312 L 935.820312 2219.179688 L 944.179688 2214.179688 L 953.320312 2209.179688 L 962.5 2205 L 971.679688 2200 L 980.820312 2195 L 990 2190 L 999.179688 2185.820312 L 1007.5 2180.820312 L 1016.679688 2175.820312 L 1025.820312 2170.820312 L 1044.179688 2160.820312 L 1053.320312 2155.820312 L 1062.5 2151.679688 L 1070.820312 2147.5 L 1080 2144.179688 L 1089.179688 2141.679688 L 1098.320312 2139.179688 " transform="matrix(0.1, 0, 0, -0.1, 0, 316)"/>
</g>
<g clip-path="url(#clip-7)">
<path fill="none" stroke-width="30" stroke-linecap="butt" stroke-linejoin="round" stroke="rgb(0%, 0%, 0%)" stroke-opacity="1" stroke-dasharray="60" stroke-miterlimit="10" d="M 1098.320312 2025 L 1116.679688 2020 L 1125.820312 2018.320312 L 1134.179688 2015.820312 L 1143.320312 2014.179688 L 1152.5 2010.820312 L 1161.679688 2007.5 L 1170.820312 2003.320312 L 1180 1998.320312 L 1189.179688 1991.679688 L 1198.320312 1985 L 1206.679688 1977.5 L 1215.820312 1970 L 1225 1962.5 L 1234.179688 1955.820312 L 1243.320312 1949.179688 L 1252.5 1943.320312 L 1261.679688 1938.320312 L 1270 1933.320312 L 1279.179688 1930 L 1288.320312 1926.679688 L 1297.5 1923.320312 L 1306.679688 1920 L 1315.820312 1916.679688 L 1325 1913.320312 L 1333.320312 1910 L 1342.5 1905.820312 L 1351.679688 1901.679688 L 1360.820312 1897.5 L 1370 1893.320312 L 1379.179688 1890 L 1388.320312 1885.820312 L 1396.679688 1882.5 L 1405.820312 1879.179688 L 1424.179688 1874.179688 L 1433.320312 1870.820312 L 1442.5 1868.320312 L 1451.679688 1865 L 1460 1861.679688 L 1469.179688 1858.320312 L 1478.320312 1853.320312 L 1487.5 1849.179688 L 1496.679688 1843.320312 L 1505.820312 1838.320312 L 1524.179688 1826.679688 L 1532.5 1820.820312 L 1541.679688 1815 L 1550.820312 1809.179688 L 1569.179688 1799.179688 L 1578.320312 1794.179688 L 1587.5 1790 L 1595.820312 1785 L 1605 1780.820312 L 1614.179688 1776.679688 L 1623.320312 1772.5 L 1632.5 1768.320312 L 1641.679688 1764.179688 L 1650.820312 1760 L 1659.179688 1756.679688 L 1668.320312 1752.5 L 1677.5 1748.320312 L 1686.679688 1744.179688 L 1695.820312 1740 L 1705 1736.679688 L 1714.179688 1733.320312 L 1722.5 1730 L 1731.679688 1726.679688 L 1740.820312 1724.179688 L 1759.179688 1719.179688 L 1768.320312 1716.679688 L 1777.5 1714.179688 L 1785.820312 1711.679688 L 1795 1709.179688 L 1804.179688 1705.820312 L 1813.320312 1702.5 L 1822.5 1699.179688 L 1831.679688 1694.179688 L 1840.820312 1690 L 1850 1684.179688 L 1858.320312 1679.179688 L 1867.5 1673.320312 L 1876.679688 1667.5 L 1885.820312 1661.679688 L 1895 1655.820312 L 1904.179688 1651.679688 L 1913.320312 1647.5 L 1921.679688 1643.320312 L 1930.820312 1640.820312 L 1940 1638.320312 L 1949.179688 1636.679688 L 1958.320312 1635.820312 L 1967.5 1635 L 1976.679688 1635 L 1985 1634.179688 L 1994.179688 1633.320312 L 2003.320312 1632.5 L 2012.5 1630.820312 L 2021.679688 1628.320312 L 2030.820312 1625.820312 L 2040 1622.5 L 2048.320312 1618.320312 L 2057.5 1614.179688 L 2066.679688 1609.179688 L 2075.820312 1604.179688 L 2094.179688 1594.179688 L 2103.320312 1589.179688 L 2111.679688 1585 L 2120.820312 1580.820312 L 2130 1576.679688 L 2139.179688 1573.320312 L 2148.320312 1570 L 2157.5 1566.679688 L 2166.679688 1563.320312 L 2175.820312 1560.820312 L 2184.179688 1557.5 L 2193.320312 1555 L 2211.679688 1550 L 2220.820312 1546.679688 L 2239.179688 1541.679688 L 2247.5 1538.320312 L 2256.679688 1535.820312 L 2265.820312 1532.5 L 2275 1530 L 2284.179688 1526.679688 L 2293.320312 1524.179688 L 2302.5 1520.820312 L 2310.820312 1518.320312 L 2329.179688 1513.320312 L 2338.320312 1510.820312 L 2347.5 1508.320312 L 2356.679688 1506.679688 L 2365.820312 1505 L 2374.179688 1503.320312 L 2383.320312 1502.5 L 2392.5 1500.820312 L 2401.679688 1499.179688 L 2410.820312 1497.5 L 2420 1495.820312 L 2429.179688 1493.320312 L 2437.5 1490.820312 L 2446.679688 1488.320312 L 2455.820312 1485 L 2465 1481.679688 L 2474.179688 1477.5 L 2483.320312 1474.179688 L 2501.679688 1465.820312 L 2510 1462.5 L 2519.179688 1459.179688 L 2528.320312 1455.820312 L 2537.5 1453.320312 L 2546.679688 1451.679688 L 2555.820312 1450 L 2565 1449.179688 L 2573.320312 1448.320312 L 2582.5 1447.5 L 2591.679688 1447.5 L 2600.820312 1446.679688 L 2610 1445.820312 L 2619.179688 1445 L 2628.320312 1443.320312 L 2636.679688 1441.679688 L 2645.820312 1440 L 2655 1436.679688 L 2664.179688 1434.179688 L 2673.320312 1430 L 2682.5 1426.679688 L 2691.679688 1423.320312 L 2700 1419.179688 L 2709.179688 1415.820312 L 2718.320312 1411.679688 L 2727.5 1408.320312 L 2736.679688 1405 L 2745.820312 1401.679688 L 2755 1399.179688 L 2763.320312 1395.820312 L 2781.679688 1390.820312 L 2790.820312 1388.320312 L 2800 1386.679688 L 2809.179688 1384.179688 L 2818.320312 1382.5 L 2827.5 1380.820312 L 2835.820312 1379.179688 L 2845 1377.5 L 2854.179688 1376.679688 L 2863.320312 1375 L 2872.5 1374.179688 L 2881.679688 1373.320312 L 2890.820312 1372.5 L 2899.179688 1371.679688 L 2908.320312 1370.820312 L 2926.679688 1369.179688 L 2935.820312 1367.5 L 2945 1366.679688 L 2954.179688 1365 L 2962.5 1363.320312 L 2971.679688 1360.820312 L 2980.820312 1359.179688 L 2990 1356.679688 L 2999.179688 1355 L 3008.320312 1352.5 L 3017.5 1350 L 3025.820312 1348.320312 L 3044.179688 1343.320312 L 3053.320312 1340.820312 L 3062.5 1339.179688 L 3071.679688 1336.679688 L 3080.820312 1334.179688 L 3089.179688 1331.679688 L 3098.320312 1329.179688 L 3107.5 1327.5 L 3116.679688 1325 L 3125.820312 1322.5 L 3144.179688 1317.5 L 3153.320312 1315.820312 L 3161.679688 1314.179688 L 3170.820312 1312.5 L 3180 1310.820312 L 3189.179688 1309.179688 L 3198.320312 1308.320312 L 3216.679688 1306.679688 L 3225 1305.820312 L 3234.179688 1305 L 3243.320312 1304.179688 L 3252.5 1303.320312 L 3261.679688 1302.5 L 3270.820312 1300.820312 L 3280 1299.179688 L 3288.320312 1297.5 L 3297.5 1295.820312 L 3306.679688 1294.179688 L 3315.820312 1291.679688 L 3334.179688 1286.679688 L 3343.320312 1284.179688 L 3351.679688 1281.679688 L 3360.820312 1279.179688 L 3379.179688 1274.179688 L 3388.320312 1271.679688 L 3397.5 1269.179688 L 3406.679688 1267.5 L 3415 1265 L 3424.179688 1263.320312 L 3433.320312 1261.679688 L 3442.5 1260.820312 L 3451.679688 1259.179688 L 3460.820312 1258.320312 L 3470 1256.679688 L 3479.179688 1255.820312 L 3487.5 1255 L 3496.679688 1254.179688 L 3505.820312 1253.320312 L 3515 1251.679688 L 3524.179688 1250.820312 L 3533.320312 1249.179688 L 3542.5 1248.320312 L 3550.820312 1246.679688 L 3569.179688 1243.320312 L 3578.320312 1241.679688 L 3587.5 1239.179688 L 3596.679688 1237.5 L 3605.820312 1235.820312 L 3614.179688 1234.179688 L 3623.320312 1231.679688 L 3641.679688 1228.320312 L 3650.820312 1226.679688 L 3660 1224.179688 L 3669.179688 1222.5 L 3677.5 1220.820312 L 3686.679688 1219.179688 L 3695.820312 1217.5 L 3705 1215 L 3714.179688 1213.320312 L 3723.320312 1211.679688 L 3732.5 1209.179688 L 3740.820312 1207.5 L 3750 1205.820312 L 3759.179688 1204.179688 L 3768.320312 1203.320312 L 3777.5 1201.679688 L 3786.679688 1200.820312 L 3795.820312 1200 L 3805 1199.179688 " transform="matrix(0.1, 0, 0, -0.1, 0, 316)"/>
</g>
<g clip-path="url(#clip-8)">
<path fill="none" stroke-width="30" stroke-linecap="butt" stroke-linejoin="round" stroke="rgb(0%, 0%, 0%)" stroke-opacity="1" stroke-dasharray="60" stroke-miterlimit="10" d="M 555 2560 L 564.179688 2372.5 L 573.320312 2544.179688 L 582.5 2354.179688 L 591.679688 2475.820312 L 600.820312 2354.179688 L 610 2408.320312 L 618.320312 2350.820312 L 627.5 2363.320312 L 636.679688 2342.5 L 645.820312 2339.179688 L 655 2332.5 L 664.179688 2325 L 673.320312 2321.679688 L 681.679688 2314.179688 L 690.820312 2310 L 700 2302.5 L 709.179688 2296.679688 L 718.320312 2290 L 727.5 2283.320312 L 736.679688 2275.820312 L 745 2269.179688 L 754.179688 2261.679688 L 763.320312 2254.179688 L 772.5 2247.5 L 781.679688 2240 L 790.820312 2233.320312 L 800 2225.820312 L 808.320312 2219.179688 L 826.679688 2205.820312 L 835.820312 2199.179688 L 854.179688 2185.820312 L 863.320312 2179.179688 L 872.5 2172.5 L 880.820312 2165.820312 L 890 2159.179688 L 899.179688 2153.320312 L 908.320312 2146.679688 L 917.5 2140 L 926.679688 2134.179688 L 935.820312 2127.5 L 944.179688 2121.679688 L 953.320312 2115 L 962.5 2109.179688 L 971.679688 2102.5 L 980.820312 2096.679688 L 990 2090 L 999.179688 2084.179688 L 1007.5 2077.5 L 1016.679688 2070.820312 L 1025.820312 2065 L 1035 2058.320312 L 1044.179688 2052.5 L 1053.320312 2046.679688 L 1062.5 2041.679688 L 1070.820312 2036.679688 L 1080 2031.679688 L 1089.179688 2028.320312 L 1098.320312 2025 " transform="matrix(0.1, 0, 0, -0.1, 0, 316)"/>
</g>
<g clip-path="url(#clip-9)">
<path fill="none" stroke-width="30" stroke-linecap="butt" stroke-linejoin="round" stroke="rgb(0%, 0%, 0%)" stroke-opacity="1" stroke-miterlimit="10" d="M 1098.320312 1464.179688 L 1116.679688 1454.179688 L 1125.820312 1450 L 1134.179688 1445.820312 L 1143.320312 1441.679688 L 1152.5 1437.5 L 1161.679688 1432.5 L 1170.820312 1428.320312 L 1180 1422.5 L 1189.179688 1417.5 L 1198.320312 1411.679688 L 1206.679688 1405 L 1215.820312 1399.179688 L 1225 1392.5 L 1234.179688 1385 L 1243.320312 1378.320312 L 1252.5 1370.820312 L 1261.679688 1364.179688 L 1270 1356.679688 L 1279.179688 1349.179688 L 1288.320312 1342.5 L 1297.5 1335 L 1306.679688 1328.320312 L 1315.820312 1320.820312 L 1325 1314.179688 L 1333.320312 1307.5 L 1342.5 1301.679688 L 1351.679688 1295 L 1360.820312 1289.179688 L 1379.179688 1279.179688 L 1388.320312 1274.179688 L 1396.679688 1269.179688 L 1405.820312 1265 L 1415 1260.820312 L 1424.179688 1257.5 L 1433.320312 1254.179688 L 1442.5 1250 L 1451.679688 1246.679688 L 1460 1243.320312 L 1469.179688 1239.179688 L 1478.320312 1235.820312 L 1487.5 1231.679688 L 1496.679688 1226.679688 L 1505.820312 1222.5 L 1524.179688 1212.5 L 1532.5 1206.679688 L 1541.679688 1200.820312 L 1550.820312 1195 L 1560 1188.320312 L 1569.179688 1182.5 L 1578.320312 1175.820312 L 1587.5 1170 L 1595.820312 1163.320312 L 1605 1156.679688 L 1614.179688 1150.820312 L 1623.320312 1145 L 1632.5 1139.179688 L 1641.679688 1133.320312 L 1650.820312 1127.5 L 1659.179688 1122.5 L 1668.320312 1117.5 L 1686.679688 1107.5 L 1695.820312 1103.320312 L 1705 1099.179688 L 1714.179688 1095.820312 L 1722.5 1092.5 L 1731.679688 1089.179688 L 1740.820312 1085.820312 L 1750 1082.5 L 1759.179688 1080 L 1768.320312 1076.679688 L 1777.5 1074.179688 L 1785.820312 1070.820312 L 1795 1068.320312 L 1804.179688 1065 L 1813.320312 1061.679688 L 1822.5 1057.5 L 1831.679688 1054.179688 L 1840.820312 1050 L 1850 1045.820312 L 1858.320312 1041.679688 L 1876.679688 1033.320312 L 1885.820312 1029.179688 L 1895 1025.820312 L 1904.179688 1021.679688 L 1913.320312 1018.320312 L 1921.679688 1015 L 1930.820312 1011.679688 L 1949.179688 1006.679688 L 1958.320312 1005 L 1967.5 1003.320312 L 1976.679688 1001.679688 L 1985 1000 L 1994.179688 998.320312 L 2003.320312 997.5 L 2012.5 995.820312 L 2021.679688 995 L 2030.820312 993.320312 L 2040 991.679688 L 2048.320312 990 L 2066.679688 985 L 2075.820312 982.5 L 2085 980 L 2094.179688 976.679688 L 2103.320312 973.320312 L 2111.679688 970 L 2120.820312 966.679688 L 2130 962.5 L 2139.179688 959.179688 L 2148.320312 955 L 2157.5 950.820312 L 2166.679688 946.679688 L 2175.820312 943.320312 L 2184.179688 939.179688 L 2193.320312 935 L 2202.5 931.679688 L 2211.679688 928.320312 L 2220.820312 924.179688 L 2230 920.820312 L 2239.179688 917.5 L 2247.5 915 L 2256.679688 911.679688 L 2265.820312 909.179688 L 2284.179688 904.179688 L 2293.320312 901.679688 L 2302.5 899.179688 L 2310.820312 897.5 L 2320 895 L 2329.179688 893.320312 L 2338.320312 891.679688 L 2347.5 890.820312 L 2356.679688 889.179688 L 2365.820312 887.5 L 2374.179688 886.679688 L 2383.320312 885 L 2392.5 884.179688 L 2401.679688 882.5 L 2410.820312 881.679688 L 2420 880.820312 L 2429.179688 879.179688 L 2437.5 877.5 L 2446.679688 876.679688 L 2455.820312 875 L 2465 873.320312 L 2474.179688 871.679688 L 2483.320312 870 L 2492.5 869.179688 L 2501.679688 867.5 L 2510 865.820312 L 2519.179688 864.179688 L 2528.320312 862.5 L 2537.5 860.820312 L 2546.679688 860 L 2555.820312 858.320312 L 2565 856.679688 L 2573.320312 855.820312 L 2582.5 854.179688 L 2591.679688 853.320312 L 2600.820312 851.679688 L 2610 850 L 2619.179688 849.179688 L 2628.320312 847.5 L 2636.679688 846.679688 L 2645.820312 845 L 2655 843.320312 L 2664.179688 841.679688 L 2673.320312 840 L 2682.5 837.5 L 2691.679688 835.820312 L 2700 833.320312 L 2709.179688 831.679688 L 2718.320312 829.179688 L 2736.679688 824.179688 L 2745.820312 821.679688 L 2755 819.179688 L 2763.320312 816.679688 L 2781.679688 811.679688 L 2790.820312 810 L 2809.179688 805 L 2818.320312 803.320312 L 2827.5 801.679688 L 2835.820312 800 L 2845 798.320312 L 2854.179688 796.679688 L 2863.320312 795 L 2872.5 794.179688 L 2881.679688 793.320312 L 2890.820312 791.679688 L 2899.179688 790.820312 L 2908.320312 790 L 2917.5 789.179688 L 2926.679688 789.179688 L 2935.820312 788.320312 L 2954.179688 786.679688 L 2962.5 785.820312 L 2971.679688 785.820312 L 2980.820312 785 L 2990 784.179688 L 2999.179688 783.320312 L 3008.320312 782.5 L 3017.5 781.679688 L 3025.820312 780 L 3035 779.179688 L 3044.179688 778.320312 L 3053.320312 776.679688 L 3062.5 775.820312 L 3071.679688 774.179688 L 3080.820312 772.5 L 3089.179688 771.679688 L 3098.320312 770 L 3107.5 768.320312 L 3116.679688 767.5 L 3125.820312 765.820312 L 3135 764.179688 L 3144.179688 763.320312 L 3153.320312 761.679688 L 3161.679688 760.820312 L 3170.820312 760 L 3180 758.320312 L 3189.179688 757.5 L 3198.320312 756.679688 L 3207.5 755.820312 L 3216.679688 755 L 3225 754.179688 L 3234.179688 753.320312 L 3243.320312 752.5 L 3252.5 751.679688 L 3261.679688 750.820312 L 3270.820312 750 L 3280 749.179688 L 3288.320312 748.320312 L 3306.679688 746.679688 L 3315.820312 745.820312 L 3334.179688 744.179688 L 3343.320312 743.320312 L 3351.679688 742.5 L 3360.820312 741.679688 L 3370 740.820312 L 3379.179688 739.179688 L 3388.320312 738.320312 L 3406.679688 736.679688 L 3415 735.820312 L 3424.179688 735 L 3433.320312 734.179688 L 3442.5 732.5 L 3451.679688 731.679688 L 3460.820312 730.820312 L 3479.179688 729.179688 L 3487.5 728.320312 L 3496.679688 727.5 L 3505.820312 726.679688 L 3515 725.820312 L 3524.179688 725 L 3533.320312 724.179688 L 3542.5 723.320312 L 3550.820312 722.5 L 3560 721.679688 L 3569.179688 720.820312 L 3578.320312 720 L 3587.5 718.320312 L 3596.679688 717.5 L 3605.820312 716.679688 L 3614.179688 715.820312 L 3623.320312 714.179688 L 3632.5 713.320312 L 3641.679688 711.679688 L 3650.820312 710.820312 L 3660 709.179688 L 3669.179688 709.179688 L 3677.5 706.679688 L 3686.679688 706.679688 L 3695.820312 705 L 3705 705 L 3714.179688 702.5 L 3723.320312 703.320312 L 3732.5 700.820312 L 3740.820312 702.5 L 3750 699.179688 L 3759.179688 701.679688 L 3768.320312 698.320312 L 3777.5 701.679688 L 3786.679688 697.5 L 3795.820312 701.679688 L 3805 696.679688 " transform="matrix(0.1, 0, 0, -0.1, 0, 316)"/>
</g>
<g clip-path="url(#clip-10)">
<path fill="none" stroke-width="30" stroke-linecap="butt" stroke-linejoin="round" stroke="rgb(0%, 0%, 0%)" stroke-opacity="1" stroke-miterlimit="10" d="M 555 2560 L 564.179688 2371.679688 L 573.320312 2531.679688 L 582.5 2339.179688 L 591.679688 2438.320312 L 600.820312 2304.179688 L 610 2332.5 L 618.320312 2251.679688 L 627.5 2239.179688 L 636.679688 2190.820312 L 645.820312 2163.320312 L 655 2130.820312 L 664.179688 2102.5 L 673.320312 2078.320312 L 681.679688 2053.320312 L 690.820312 2032.5 L 700 2010.820312 L 709.179688 1992.5 L 718.320312 1973.320312 L 736.679688 1938.320312 L 745 1920.820312 L 754.179688 1904.179688 L 763.320312 1888.320312 L 772.5 1871.679688 L 781.679688 1856.679688 L 790.820312 1840.820312 L 800 1825.820312 L 808.320312 1810.820312 L 817.5 1795.820312 L 826.679688 1781.679688 L 835.820312 1767.5 L 845 1753.320312 L 854.179688 1740 L 863.320312 1726.679688 L 872.5 1713.320312 L 880.820312 1700 L 899.179688 1675 L 908.320312 1663.320312 L 917.5 1650.820312 L 926.679688 1639.179688 L 935.820312 1627.5 L 944.179688 1616.679688 L 953.320312 1605 L 962.5 1594.179688 L 971.679688 1583.320312 L 980.820312 1572.5 L 990 1561.679688 L 999.179688 1551.679688 L 1007.5 1541.679688 L 1016.679688 1531.679688 L 1025.820312 1521.679688 L 1035 1512.5 L 1044.179688 1504.179688 L 1053.320312 1495.820312 L 1062.5 1488.320312 L 1070.820312 1481.679688 L 1080 1475 L 1089.179688 1469.179688 L 1098.320312 1464.179688 " transform="matrix(0.1, 0, 0, -0.1, 0, 316)"/>
</g>
<g clip-path="url(#clip-11)">
<path fill="none" stroke-width="5" stroke-linecap="butt" stroke-linejoin="round" stroke="rgb(0%, 0%, 0%)" stroke-opacity="1" stroke-miterlimit="10" d="M 548.320312 1421.679688 L 3805 1421.679688 " transform="matrix(0.1, 0, 0, -0.1, 0, 316)"/>
</g>
<g fill="rgb(0%, 0%, 0%)" fill-opacity="1">
<use xlink:href="#glyph-0-8" x="184.333" y="308.0832"/>
<use xlink:href="#glyph-0-9" x="192.887" y="308.0832"/>
<use xlink:href="#glyph-0-10" x="195.995" y="308.0832"/>
<use xlink:href="#glyph-0-11" x="207.657" y="308.0832"/>
<use xlink:href="#glyph-0-12" x="215.441" y="308.0832"/>
<use xlink:href="#glyph-0-4" x="219.333" y="308.0832"/>
<use xlink:href="#glyph-0-4" x="223.225" y="308.0832"/>
</g>
<g fill="rgb(0%, 0%, 0%)" fill-opacity="1">
<use xlink:href="#glyph-2-0" x="226.833" y="308.0832"/>
</g>
<g fill="rgb(0%, 0%, 0%)" fill-opacity="1">
<use xlink:href="#glyph-0-4" x="230.66659" y="308.0832"/>
<use xlink:href="#glyph-0-13" x="234.55859" y="308.0832"/>
<use xlink:href="#glyph-0-14" x="239.22059" y="308.0832"/>
<use xlink:href="#glyph-0-15" x="246.22059" y="308.0832"/>
</g>
<g fill="rgb(0%, 0%, 0%)" fill-opacity="1">
<use xlink:href="#glyph-3-0" x="24.6668" y="197.5"/>
<use xlink:href="#glyph-3-1" x="24.6668" y="188.162"/>
<use xlink:href="#glyph-3-2" x="24.6668" y="180.378"/>
<use xlink:href="#glyph-3-3" x="24.6668" y="172.594"/>
<use xlink:href="#glyph-3-4" x="24.6668" y="167.932"/>
<use xlink:href="#glyph-3-5" x="24.6668" y="160.148"/>
<use xlink:href="#glyph-3-6" x="24.6668" y="153.148"/>
<use xlink:href="#glyph-3-7" x="24.6668" y="149.256"/>
<use xlink:href="#glyph-3-7" x="24.6668" y="145.364"/>
</g>
<g fill="rgb(0%, 0%, 0%)" fill-opacity="1">
<use xlink:href="#glyph-4-0" x="24.6668" y="142.9168"/>
<use xlink:href="#glyph-4-1" x="24.6668" y="134.3628"/>
</g>
<g fill="rgb(0%, 0%, 0%)" fill-opacity="1">
<use xlink:href="#glyph-3-7" x="24.6668" y="125.0832"/>
<use xlink:href="#glyph-3-8" x="24.6668" y="121.1912"/>
<use xlink:href="#glyph-3-9" x="24.6668" y="116.5292"/>
<use xlink:href="#glyph-3-10" x="24.6668" y="109.5292"/>
</g>
<g fill="rgb(0%, 0%, 0%)" fill-opacity="1">
<use xlink:href="#glyph-0-8" x="148.083" y="13"/>
<use xlink:href="#glyph-0-16" x="156.637" y="13"/>
<use xlink:href="#glyph-0-17" x="164.421" y="13"/>
<use xlink:href="#glyph-0-18" x="168.313" y="13"/>
<use xlink:href="#glyph-0-19" x="176.097" y="13"/>
<use xlink:href="#glyph-0-4" x="179.205" y="13"/>
<use xlink:href="#glyph-0-20" x="183.097" y="13"/>
<use xlink:href="#glyph-0-21" x="192.435" y="13"/>
<use xlink:href="#glyph-0-11" x="200.219" y="13"/>
<use xlink:href="#glyph-0-22" x="208.003" y="13"/>
<use xlink:href="#glyph-0-23" x="212.665" y="13"/>
<use xlink:href="#glyph-0-24" x="220.449" y="13"/>
<use xlink:href="#glyph-0-4" x="227.449" y="13"/>
<use xlink:href="#glyph-0-20" x="231.341" y="13"/>
<use xlink:href="#glyph-0-25" x="240.679" y="13"/>
<use xlink:href="#glyph-0-16" x="247.679" y="13"/>
<use xlink:href="#glyph-0-19" x="255.463" y="13"/>
<use xlink:href="#glyph-0-26" x="258.571" y="13"/>
<use xlink:href="#glyph-0-17" x="266.355" y="13"/>
<use xlink:href="#glyph-0-9" x="270.247" y="13"/>
<use xlink:href="#glyph-0-16" x="273.355" y="13"/>
<use xlink:href="#glyph-0-21" x="281.139" y="13"/>
</g>
<g fill="rgb(0%, 0%, 0%)" fill-opacity="1">
<use xlink:href="#glyph-5-0" x="379.1668" y="27.5"/>
</g>
<path fill-rule="evenodd" fill="rgb(100%, 100%, 100%)" fill-opacity="1" d="M 240.75 125 L 375.582031 125 L 375.582031 29 L 240.75 29 Z M 240.75 125 "/>
<path fill="none" stroke-width="5" stroke-linecap="butt" stroke-linejoin="round" stroke="rgb(100%, 100%, 100%)" stroke-opacity="1" stroke-miterlimit="10" d="M 2407.5 1910 L 2407.5 2870 L 3755.820312 2870 L 3755.820312 1910 L 2407.5 1910 " transform="matrix(0.1, 0, 0, -0.1, 0, 316)"/>
<path fill="none" stroke-width="5" stroke-linecap="butt" stroke-linejoin="round" stroke="rgb(0%, 0%, 0%)" stroke-opacity="1" stroke-miterlimit="10" d="M 2407.5 2870 L 3755.820312 2870 " transform="matrix(0.1, 0, 0, -0.1, 0, 316)"/>
<path fill="none" stroke-width="5" stroke-linecap="butt" stroke-linejoin="round" stroke="rgb(0%, 0%, 0%)" stroke-opacity="1" stroke-miterlimit="10" d="M 2407.5 1910 L 3755.820312 1910 " transform="matrix(0.1, 0, 0, -0.1, 0, 316)"/>
<path fill="none" stroke-width="5" stroke-linecap="butt" stroke-linejoin="round" stroke="rgb(0%, 0%, 0%)" stroke-opacity="1" stroke-miterlimit="10" d="M 3755.820312 1910 L 3755.820312 2870 " transform="matrix(0.1, 0, 0, -0.1, 0, 316)"/>
<path fill="none" stroke-width="5" stroke-linecap="butt" stroke-linejoin="round" stroke="rgb(0%, 0%, 0%)" stroke-opacity="1" stroke-miterlimit="10" d="M 2407.5 1910 L 2407.5 2870 " transform="matrix(0.1, 0, 0, -0.1, 0, 316)"/>
<path fill="none" stroke-width="5" stroke-linecap="butt" stroke-linejoin="round" stroke="rgb(0%, 0%, 0%)" stroke-opacity="1" stroke-miterlimit="10" d="M 2407.5 1910 L 3755.820312 1910 " transform="matrix(0.1, 0, 0, -0.1, 0, 316)"/>
<path fill="none" stroke-width="5" stroke-linecap="butt" stroke-linejoin="round" stroke="rgb(0%, 0%, 0%)" stroke-opacity="1" stroke-miterlimit="10" d="M 2407.5 1910 L 2407.5 2870 " transform="matrix(0.1, 0, 0, -0.1, 0, 316)"/>
<path fill="none" stroke-width="5" stroke-linecap="butt" stroke-linejoin="round" stroke="rgb(0%, 0%, 0%)" stroke-opacity="1" stroke-miterlimit="10" d="M 2407.5 2870 L 3755.820312 2870 " transform="matrix(0.1, 0, 0, -0.1, 0, 316)"/>
<path fill="none" stroke-width="5" stroke-linecap="butt" stroke-linejoin="round" stroke="rgb(0%, 0%, 0%)" stroke-opacity="1" stroke-miterlimit="10" d="M 2407.5 1910 L 3755.820312 1910 " transform="matrix(0.1, 0, 0, -0.1, 0, 316)"/>
<path fill="none" stroke-width="5" stroke-linecap="butt" stroke-linejoin="round" stroke="rgb(0%, 0%, 0%)" stroke-opacity="1" stroke-miterlimit="10" d="M 3755.820312 1910 L 3755.820312 2870 " transform="matrix(0.1, 0, 0, -0.1, 0, 316)"/>
<path fill="none" stroke-width="5" stroke-linecap="butt" stroke-linejoin="round" stroke="rgb(0%, 0%, 0%)" stroke-opacity="1" stroke-miterlimit="10" d="M 2407.5 1910 L 2407.5 2870 " transform="matrix(0.1, 0, 0, -0.1, 0, 316)"/>
<g fill="rgb(0%, 0%, 0%)" fill-opacity="1">
<use xlink:href="#glyph-6-0" x="280.167" y="45.333"/>
</g>
<g fill="rgb(0%, 0%, 0%)" fill-opacity="1">
<use xlink:href="#glyph-7-0" x="286.417" y="45.333"/>
<use xlink:href="#glyph-7-1" x="289.753" y="45.333"/>
<use xlink:href="#glyph-7-0" x="296.761" y="45.333"/>
<use xlink:href="#glyph-7-2" x="300.097" y="45.333"/>
<use xlink:href="#glyph-7-0" x="306.769" y="45.333"/>
<use xlink:href="#glyph-7-3" x="310.105" y="45.333"/>
</g>
<g fill="rgb(0%, 0%, 0%)" fill-opacity="1">
<use xlink:href="#glyph-8-0" x="320.0834" y="39.333"/>
</g>
<g fill="rgb(0%, 0%, 0%)" fill-opacity="1">
<use xlink:href="#glyph-7-0" x="325.0834" y="45.333"/>
<use xlink:href="#glyph-7-4" x="328.4194" y="45.333"/>
</g>
<g fill="rgb(0%, 0%, 0%)" fill-opacity="1">
<use xlink:href="#glyph-8-1" x="334.41699" y="39.333"/>
<use xlink:href="#glyph-8-0" x="339.67299" y="39.333"/>
</g>
<path fill="none" stroke-width="10" stroke-linecap="butt" stroke-linejoin="round" stroke="rgb(0%, 0%, 0%)" stroke-opacity="1" stroke-miterlimit="10" d="M 2467.5 2761.679688 L 2770.820312 2761.679688 " transform="matrix(0.1, 0, 0, -0.1, 0, 316)"/>
<g fill="rgb(0%, 0%, 0%)" fill-opacity="1">
<use xlink:href="#glyph-6-0" x="280.167" y="63.917"/>
</g>
<g fill="rgb(0%, 0%, 0%)" fill-opacity="1">
<use xlink:href="#glyph-7-0" x="286.417" y="63.917"/>
<use xlink:href="#glyph-7-1" x="289.753" y="63.917"/>
<use xlink:href="#glyph-7-0" x="296.761" y="63.917"/>
<use xlink:href="#glyph-7-5" x="300.097" y="63.917"/>
<use xlink:href="#glyph-7-2" x="306.769" y="63.917"/>
</g>
<g fill="rgb(0%, 0%, 0%)" fill-opacity="1">
<use xlink:href="#glyph-8-2" x="313.417" y="57.917"/>
</g>
<g fill="rgb(0%, 0%, 0%)" fill-opacity="1">
<use xlink:href="#glyph-7-0" x="318.417" y="63.917"/>
<use xlink:href="#glyph-7-3" x="321.753" y="63.917"/>
</g>
<g fill="rgb(0%, 0%, 0%)" fill-opacity="1">
<use xlink:href="#glyph-8-0" x="331.667" y="57.917"/>
</g>
<g fill="rgb(0%, 0%, 0%)" fill-opacity="1">
<use xlink:href="#glyph-7-0" x="336.667" y="63.917"/>
<use xlink:href="#glyph-7-4" x="340.003" y="63.917"/>
</g>
<g fill="rgb(0%, 0%, 0%)" fill-opacity="1">
<use xlink:href="#glyph-8-1" x="346.0002" y="57.917"/>
<use xlink:href="#glyph-8-0" x="351.2562" y="57.917"/>
</g>
<path fill="none" stroke-width="20" stroke-linecap="butt" stroke-linejoin="round" stroke="rgb(0%, 0%, 0%)" stroke-opacity="1" stroke-dasharray="60" stroke-miterlimit="10" d="M 2467.5 2575.820312 L 2770.820312 2575.820312 " transform="matrix(0.1, 0, 0, -0.1, 0, 316)"/>
<g fill="rgb(0%, 0%, 0%)" fill-opacity="1">
<use xlink:href="#glyph-6-0" x="280.167" y="82.5"/>
</g>
<g fill="rgb(0%, 0%, 0%)" fill-opacity="1">
<use xlink:href="#glyph-7-0" x="286.417" y="82.5"/>
<use xlink:href="#glyph-7-1" x="289.753" y="82.5"/>
<use xlink:href="#glyph-7-0" x="296.761" y="82.5"/>
<use xlink:href="#glyph-7-6" x="300.097" y="82.5"/>
</g>
<g fill="rgb(0%, 0%, 0%)" fill-opacity="1">
<use xlink:href="#glyph-6-1" x="306.7502" y="82.5"/>
</g>
<g fill="rgb(0%, 0%, 0%)" fill-opacity="1">
<use xlink:href="#glyph-7-0" x="313.3334" y="82.5"/>
<use xlink:href="#glyph-7-5" x="316.6694" y="82.5"/>
<use xlink:href="#glyph-7-2" x="323.3414" y="82.5"/>
</g>
<g fill="rgb(0%, 0%, 0%)" fill-opacity="1">
<use xlink:href="#glyph-8-2" x="330.0002" y="76.5"/>
</g>
<g fill="rgb(0%, 0%, 0%)" fill-opacity="1">
<use xlink:href="#glyph-7-0" x="335.0002" y="82.5"/>
<use xlink:href="#glyph-7-3" x="338.3362" y="82.5"/>
</g>
<g fill="rgb(0%, 0%, 0%)" fill-opacity="1">
<use xlink:href="#glyph-8-0" x="348.2502" y="76.5"/>
</g>
<g fill="rgb(0%, 0%, 0%)" fill-opacity="1">
<use xlink:href="#glyph-7-0" x="353.2502" y="82.5"/>
<use xlink:href="#glyph-7-4" x="356.5862" y="82.5"/>
</g>
<g fill="rgb(0%, 0%, 0%)" fill-opacity="1">
<use xlink:href="#glyph-8-1" x="362.5834" y="76.5"/>
<use xlink:href="#glyph-8-0" x="367.8394" y="76.5"/>
</g>
<path fill="none" stroke-width="20" stroke-linecap="butt" stroke-linejoin="round" stroke="rgb(0%, 0%, 0%)" stroke-opacity="1" stroke-miterlimit="10" d="M 2467.5 2390 L 2770.820312 2390 " transform="matrix(0.1, 0, 0, -0.1, 0, 316)"/>
<g fill="rgb(0%, 0%, 0%)" fill-opacity="1">
<use xlink:href="#glyph-6-0" x="280.167" y="101"/>
</g>
<g fill="rgb(0%, 0%, 0%)" fill-opacity="1">
<use xlink:href="#glyph-7-0" x="286.417" y="101"/>
<use xlink:href="#glyph-7-1" x="289.753" y="101"/>
<use xlink:href="#glyph-7-0" x="296.761" y="101"/>
<use xlink:href="#glyph-7-5" x="300.097" y="101"/>
<use xlink:href="#glyph-7-2" x="306.769" y="101"/>
</g>
<g fill="rgb(0%, 0%, 0%)" fill-opacity="1">
<use xlink:href="#glyph-8-3" x="313.417" y="95"/>
</g>
<g fill="rgb(0%, 0%, 0%)" fill-opacity="1">
<use xlink:href="#glyph-7-0" x="318.417" y="101"/>
<use xlink:href="#glyph-7-3" x="321.753" y="101"/>
</g>
<g fill="rgb(0%, 0%, 0%)" fill-opacity="1">
<use xlink:href="#glyph-8-0" x="331.667" y="95"/>
</g>
<g fill="rgb(0%, 0%, 0%)" fill-opacity="1">
<use xlink:href="#glyph-7-0" x="336.667" y="101"/>
<use xlink:href="#glyph-7-4" x="340.003" y="101"/>
</g>
<g fill="rgb(0%, 0%, 0%)" fill-opacity="1">
<use xlink:href="#glyph-8-1" x="346.0002" y="95"/>
<use xlink:href="#glyph-8-0" x="351.2562" y="95"/>
</g>
<path fill="none" stroke-width="30" stroke-linecap="butt" stroke-linejoin="round" stroke="rgb(0%, 0%, 0%)" stroke-opacity="1" stroke-dasharray="60" stroke-miterlimit="10" d="M 2467.5 2205 L 2770.820312 2205 " transform="matrix(0.1, 0, 0, -0.1, 0, 316)"/>
<g fill="rgb(0%, 0%, 0%)" fill-opacity="1">
<use xlink:href="#glyph-6-0" x="280.167" y="119.583"/>
</g>
<g fill="rgb(0%, 0%, 0%)" fill-opacity="1">
<use xlink:href="#glyph-7-0" x="286.417" y="119.583"/>
<use xlink:href="#glyph-7-1" x="289.753" y="119.583"/>
<use xlink:href="#glyph-7-0" x="296.761" y="119.583"/>
<use xlink:href="#glyph-7-6" x="300.097" y="119.583"/>
</g>
<g fill="rgb(0%, 0%, 0%)" fill-opacity="1">
<use xlink:href="#glyph-6-1" x="306.7502" y="119.583"/>
</g>
<g fill="rgb(0%, 0%, 0%)" fill-opacity="1">
<use xlink:href="#glyph-7-0" x="313.3334" y="119.583"/>
<use xlink:href="#glyph-7-5" x="316.6694" y="119.583"/>
<use xlink:href="#glyph-7-2" x="323.3414" y="119.583"/>
</g>
<g fill="rgb(0%, 0%, 0%)" fill-opacity="1">
<use xlink:href="#glyph-8-3" x="330.0002" y="113.583"/>
</g>
<g fill="rgb(0%, 0%, 0%)" fill-opacity="1">
<use xlink:href="#glyph-7-0" x="335.0002" y="119.583"/>
<use xlink:href="#glyph-7-3" x="338.3362" y="119.583"/>
</g>
<g fill="rgb(0%, 0%, 0%)" fill-opacity="1">
<use xlink:href="#glyph-8-0" x="348.2502" y="113.583"/>
</g>
<g fill="rgb(0%, 0%, 0%)" fill-opacity="1">
<use xlink:href="#glyph-7-0" x="353.2502" y="119.583"/>
<use xlink:href="#glyph-7-4" x="356.5862" y="119.583"/>
</g>
<g fill="rgb(0%, 0%, 0%)" fill-opacity="1">
<use xlink:href="#glyph-8-1" x="362.5834" y="113.583"/>
<use xlink:href="#glyph-8-0" x="367.8394" y="113.583"/>
</g>
<path fill="none" stroke-width="30" stroke-linecap="butt" stroke-linejoin="round" stroke="rgb(0%, 0%, 0%)" stroke-opacity="1" stroke-miterlimit="10" d="M 2467.5 2019.179688 L 2770.820312 2019.179688 " transform="matrix(0.1, 0, 0, -0.1, 0, 316)"/>
</svg>
