<?xml version="1.0" encoding="UTF-8"?>
<svg xmlns="http://www.w3.org/2000/svg" xmlns:xlink="http://www.w3.org/1999/xlink" width="492" height="410" viewBox="0 0 492 410">
<defs>
<g>
<g id="glyph-0-0">
<path d="M 3.625 -7.203125 L 3.625 0 L 4.859375 0 L 4.859375 -10.125 L 4.046875 -10.125 C 3.609375 -8.5625 3.328125 -8.359375 1.421875 -8.109375 L 1.421875 -7.203125 Z M 3.625 -7.203125 "/>
</g>
<g id="glyph-0-1">
<path d="M 3.84375 -10.125 C 2.921875 -10.125 2.09375 -9.703125 1.5625 -9.015625 C 0.921875 -8.125 0.609375 -6.78125 0.609375 -4.90625 C 0.609375 -1.484375 1.71875 0.328125 3.84375 0.328125 C 5.953125 0.328125 7.09375 -1.484375 7.09375 -4.8125 C 7.09375 -6.78125 6.796875 -8.09375 6.125 -9.015625 C 5.609375 -9.71875 4.78125 -10.125 3.84375 -10.125 Z M 3.84375 -9.03125 C 5.1875 -9.03125 5.84375 -7.671875 5.84375 -4.921875 C 5.84375 -2.046875 5.1875 -0.703125 3.828125 -0.703125 C 2.515625 -0.703125 1.859375 -2.09375 1.859375 -4.890625 C 1.859375 -7.671875 2.515625 -9.03125 3.84375 -9.03125 Z M 3.84375 -9.03125 "/>
</g>
<g id="glyph-0-2">
<path d="M 2.671875 -1.453125 L 1.21875 -1.453125 L 1.21875 0 L 2.671875 0 Z M 2.671875 -1.453125 "/>
</g>
<g id="glyph-0-3">
<path d="M 6.65625 -9.921875 L 1.546875 -9.921875 L 0.796875 -4.515625 L 1.9375 -4.515625 C 2.5 -5.203125 2.984375 -5.453125 3.765625 -5.453125 C 5.09375 -5.453125 5.921875 -4.53125 5.921875 -3.0625 C 5.921875 -1.640625 5.09375 -0.765625 3.75 -0.765625 C 2.671875 -0.765625 2.015625 -1.3125 1.71875 -2.4375 L 0.484375 -2.4375 C 0.65625 -1.625 0.796875 -1.234375 1.09375 -0.875 C 1.65625 -0.109375 2.65625 0.328125 3.78125 0.328125 C 5.78125 0.328125 7.1875 -1.140625 7.1875 -3.234375 C 7.1875 -5.1875 5.875 -6.53125 3.96875 -6.53125 C 3.28125 -6.53125 2.71875 -6.359375 2.140625 -5.9375 L 2.53125 -8.703125 L 6.65625 -8.703125 Z M 6.65625 -9.921875 "/>
</g>
<g id="glyph-0-4">
<path d="M 7.078125 -1.21875 L 1.859375 -1.21875 C 1.984375 -2.0625 2.4375 -2.59375 3.65625 -3.328125 L 5.046875 -4.109375 C 6.4375 -4.890625 7.15625 -5.921875 7.15625 -7.171875 C 7.15625 -8.015625 6.8125 -8.796875 6.234375 -9.34375 C 5.640625 -9.875 4.90625 -10.125 3.96875 -10.125 C 2.71875 -10.125 1.78125 -9.671875 1.234375 -8.8125 C 0.875 -8.28125 0.734375 -7.640625 0.703125 -6.625 L 1.9375 -6.625 C 1.96875 -7.3125 2.0625 -7.71875 2.21875 -8.046875 C 2.546875 -8.671875 3.1875 -9.046875 3.9375 -9.046875 C 5.046875 -9.046875 5.890625 -8.234375 5.890625 -7.140625 C 5.890625 -6.328125 5.4375 -5.625 4.546875 -5.125 L 3.265625 -4.375 C 1.1875 -3.171875 0.59375 -2.21875 0.46875 -0.015625 L 7.078125 -0.015625 Z M 7.078125 -1.21875 "/>
</g>
<g id="glyph-0-5">
<path d="M 3.09375 -4.65625 L 3.765625 -4.65625 C 5.109375 -4.65625 5.828125 -4.03125 5.828125 -2.8125 C 5.828125 -1.546875 5.046875 -0.765625 3.78125 -0.765625 C 2.421875 -0.765625 1.765625 -1.453125 1.6875 -2.9375 L 0.453125 -2.9375 C 0.5 -2.125 0.640625 -1.59375 0.875 -1.140625 C 1.40625 -0.171875 2.359375 0.328125 3.71875 0.328125 C 5.765625 0.328125 7.078125 -0.90625 7.078125 -2.828125 C 7.078125 -4.109375 6.59375 -4.8125 5.40625 -5.234375 C 6.328125 -5.609375 6.796875 -6.3125 6.796875 -7.34375 C 6.796875 -9.078125 5.65625 -10.125 3.765625 -10.125 C 1.765625 -10.125 0.703125 -9 0.65625 -6.859375 L 1.890625 -6.859375 C 1.90625 -7.46875 1.953125 -7.828125 2.109375 -8.140625 C 2.390625 -8.703125 3.015625 -9.046875 3.78125 -9.046875 C 4.875 -9.046875 5.53125 -8.390625 5.53125 -7.296875 C 5.53125 -6.578125 5.28125 -6.140625 4.734375 -5.90625 C 4.390625 -5.765625 3.953125 -5.71875 3.09375 -5.703125 Z M 3.09375 -4.65625 "/>
</g>
<g id="glyph-0-6">
<path d="M 4.09375 -3.796875 L 6.546875 -7.34375 L 5.234375 -7.34375 L 3.46875 -4.671875 L 1.703125 -7.34375 L 0.375 -7.34375 L 2.828125 -3.734375 L 0.234375 0 L 1.5625 0 L 3.4375 -2.8125 L 5.265625 0 L 6.625 0 Z M 4.09375 -3.796875 "/>
</g>
<g id="glyph-0-7">
</g>
<g id="glyph-0-8">
<path d="M 2.40625 -3.5625 L 4.078125 -5.234375 L 7.671875 0 L 9.21875 0 L 5.015625 -6.046875 L 9.171875 -10.203125 L 7.484375 -10.203125 L 2.40625 -5.046875 L 2.40625 -10.203125 L 1.109375 -10.203125 L 1.109375 0 L 2.40625 0 Z M 2.40625 -3.5625 "/>
</g>
<g id="glyph-0-9">
<path d="M 2.09375 -7.34375 L 0.9375 -7.34375 L 0.9375 0 L 2.09375 0 Z M 2.09375 -10.203125 L 0.921875 -10.203125 L 0.921875 -8.734375 L 2.09375 -8.734375 Z M 2.09375 -10.203125 "/>
</g>
<g id="glyph-0-10">
<path d="M 0.984375 -7.34375 L 0.984375 0 L 2.15625 0 L 2.15625 -4.046875 C 2.15625 -5.546875 2.9375 -6.53125 4.140625 -6.53125 C 5.0625 -6.53125 5.65625 -5.96875 5.65625 -5.078125 L 5.65625 0 L 6.8125 0 L 6.8125 -5.546875 C 6.8125 -6.765625 5.90625 -7.546875 4.5 -7.546875 C 3.40625 -7.546875 2.703125 -7.125 2.0625 -6.109375 L 2.0625 -7.34375 Z M 0.984375 -7.34375 "/>
</g>
<g id="glyph-0-11">
<path d="M 7.1875 -3.28125 C 7.1875 -4.390625 7.09375 -5.0625 6.890625 -5.609375 C 6.40625 -6.8125 5.296875 -7.546875 3.921875 -7.546875 C 1.875 -7.546875 0.5625 -5.984375 0.5625 -3.5625 C 0.5625 -1.140625 1.8125 0.328125 3.890625 0.328125 C 5.578125 0.328125 6.734375 -0.625 7.03125 -2.21875 L 5.859375 -2.21875 C 5.53125 -1.265625 4.875 -0.75 3.9375 -0.75 C 3.1875 -0.75 2.5625 -1.09375 2.171875 -1.703125 C 1.890625 -2.125 1.796875 -2.546875 1.78125 -3.28125 Z M 1.8125 -4.234375 C 1.90625 -5.59375 2.734375 -6.46875 3.90625 -6.46875 C 5.09375 -6.46875 5.921875 -5.546875 5.921875 -4.234375 Z M 1.8125 -4.234375 "/>
</g>
<g id="glyph-0-12">
<path d="M 0.984375 -7.34375 L 0.984375 0 L 2.15625 0 L 2.15625 -4.609375 C 2.15625 -5.671875 2.921875 -6.53125 3.875 -6.53125 C 4.75 -6.53125 5.234375 -5.984375 5.234375 -5.046875 L 5.234375 0 L 6.40625 0 L 6.40625 -4.609375 C 6.40625 -5.671875 7.1875 -6.53125 8.140625 -6.53125 C 8.984375 -6.53125 9.484375 -5.984375 9.484375 -5.046875 L 9.484375 0 L 10.671875 0 L 10.671875 -5.5 C 10.671875 -6.8125 9.90625 -7.546875 8.546875 -7.546875 C 7.5625 -7.546875 6.96875 -7.25 6.28125 -6.421875 C 5.859375 -7.203125 5.265625 -7.546875 4.3125 -7.546875 C 3.328125 -7.546875 2.671875 -7.1875 2.0625 -6.296875 L 2.0625 -7.34375 Z M 0.984375 -7.34375 "/>
</g>
<g id="glyph-0-13">
<path d="M 7.484375 -0.6875 C 7.359375 -0.65625 7.3125 -0.65625 7.234375 -0.65625 C 6.828125 -0.65625 6.609375 -0.875 6.609375 -1.234375 L 6.609375 -5.546875 C 6.609375 -6.84375 5.65625 -7.546875 3.84375 -7.546875 C 2.765625 -7.546875 1.921875 -7.234375 1.40625 -6.6875 C 1.078125 -6.3125 0.9375 -5.890625 0.90625 -5.171875 L 2.09375 -5.171875 C 2.1875 -6.0625 2.71875 -6.46875 3.8125 -6.46875 C 4.875 -6.46875 5.453125 -6.078125 5.453125 -5.375 L 5.453125 -5.0625 C 5.4375 -4.5625 5.1875 -4.375 4.234375 -4.25 C 2.578125 -4.046875 2.328125 -3.984375 1.875 -3.8125 C 1.015625 -3.4375 0.59375 -2.796875 0.59375 -1.84375 C 0.59375 -0.515625 1.515625 0.328125 3 0.328125 C 3.921875 0.328125 4.65625 0 5.484375 -0.75 C 5.578125 0 5.9375 0.328125 6.6875 0.328125 C 6.9375 0.328125 7.09375 0.296875 7.484375 0.203125 Z M 5.453125 -2.3125 C 5.453125 -1.921875 5.328125 -1.6875 4.984375 -1.359375 C 4.515625 -0.921875 3.9375 -0.703125 3.25 -0.703125 C 2.34375 -0.703125 1.8125 -1.140625 1.8125 -1.875 C 1.8125 -2.640625 2.3125 -3.03125 3.5625 -3.21875 C 4.8125 -3.390625 5.046875 -3.4375 5.453125 -3.625 Z M 5.453125 -2.3125 "/>
</g>
<g id="glyph-0-14">
<path d="M 3.5625 -7.34375 L 2.359375 -7.34375 L 2.359375 -9.359375 L 1.1875 -9.359375 L 1.1875 -7.34375 L 0.203125 -7.34375 L 0.203125 -6.390625 L 1.1875 -6.390625 L 1.1875 -0.84375 C 1.1875 -0.078125 1.6875 0.328125 2.609375 0.328125 C 2.90625 0.328125 3.15625 0.296875 3.5625 0.21875 L 3.5625 -0.75 C 3.390625 -0.71875 3.234375 -0.703125 3 -0.703125 C 2.484375 -0.703125 2.359375 -0.84375 2.359375 -1.359375 L 2.359375 -6.390625 L 3.5625 -6.390625 Z M 3.5625 -7.34375 "/>
</g>
<g id="glyph-0-15">
<path d="M 6.59375 -4.875 C 6.53125 -5.59375 6.390625 -6.046875 6.109375 -6.453125 C 5.59375 -7.140625 4.71875 -7.546875 3.703125 -7.546875 C 1.703125 -7.546875 0.4375 -5.984375 0.4375 -3.546875 C 0.4375 -1.171875 1.6875 0.328125 3.6875 0.328125 C 5.4375 0.328125 6.53125 -0.734375 6.671875 -2.515625 L 5.5 -2.515625 C 5.3125 -1.34375 4.703125 -0.75 3.703125 -0.75 C 2.421875 -0.75 1.65625 -1.8125 1.65625 -3.546875 C 1.65625 -5.375 2.40625 -6.46875 3.6875 -6.46875 C 4.65625 -6.46875 5.28125 -5.890625 5.421875 -4.875 Z M 6.59375 -4.875 "/>
</g>
<g id="glyph-0-16">
<path d="M 5.484375 0 L 9.03125 -10.203125 L 7.640625 -10.203125 L 4.8125 -1.5625 L 1.8125 -10.203125 L 0.421875 -10.203125 L 4.09375 0 Z M 5.484375 0 "/>
</g>
<g id="glyph-0-17">
<path d="M 6.125 -5.296875 C 6.125 -6.734375 5.171875 -7.546875 3.46875 -7.546875 C 1.765625 -7.546875 0.65625 -6.65625 0.65625 -5.3125 C 0.65625 -4.15625 1.25 -3.609375 2.984375 -3.1875 L 4.078125 -2.921875 C 4.890625 -2.734375 5.203125 -2.4375 5.203125 -1.921875 C 5.203125 -1.21875 4.515625 -0.75 3.5 -0.75 C 2.875 -0.75 2.34375 -0.9375 2.046875 -1.25 C 1.859375 -1.453125 1.78125 -1.671875 1.703125 -2.1875 L 0.46875 -2.1875 C 0.53125 -0.484375 1.484375 0.328125 3.40625 0.328125 C 5.25 0.328125 6.421875 -0.59375 6.421875 -2 C 6.421875 -3.09375 5.8125 -3.703125 4.359375 -4.046875 L 3.234375 -4.3125 C 2.28125 -4.53125 1.875 -4.84375 1.875 -5.359375 C 1.875 -6.046875 2.484375 -6.46875 3.4375 -6.46875 C 4.375 -6.46875 4.875 -6.0625 4.90625 -5.296875 Z M 6.125 -5.296875 "/>
</g>
<g id="glyph-0-18">
<path d="M 3.8125 -7.546875 C 1.734375 -7.546875 0.5 -6.078125 0.5 -3.609375 C 0.5 -1.140625 1.734375 0.328125 3.828125 0.328125 C 5.890625 0.328125 7.140625 -1.140625 7.140625 -3.5625 C 7.140625 -6.109375 5.9375 -7.546875 3.8125 -7.546875 Z M 3.828125 -6.46875 C 5.140625 -6.46875 5.921875 -5.390625 5.921875 -3.5625 C 5.921875 -1.828125 5.109375 -0.75 3.828125 -0.75 C 2.515625 -0.75 1.71875 -1.828125 1.71875 -3.609375 C 1.71875 -5.390625 2.515625 -6.46875 3.828125 -6.46875 Z M 3.828125 -6.46875 "/>
</g>
<g id="glyph-0-19">
<path d="M 5.4375 -7.34375 L 3.40625 -1.625 L 1.53125 -7.34375 L 0.28125 -7.34375 L 2.765625 0.03125 L 2.3125 1.1875 C 2.109375 1.703125 1.859375 1.90625 1.375 1.90625 C 1.171875 1.90625 1.015625 1.875 0.75 1.8125 L 0.75 2.875 C 1 3 1.234375 3.046875 1.546875 3.046875 C 1.921875 3.046875 2.328125 2.921875 2.625 2.703125 C 3 2.4375 3.203125 2.125 3.4375 1.546875 L 6.6875 -7.34375 Z M 5.4375 -7.34375 "/>
</g>
<g id="glyph-0-20">
<path d="M 1.21875 -1.453125 L 1.21875 0 L 2.0625 0 L 2.0625 0.25 C 2.0625 1.21875 1.875 1.5 1.21875 1.53125 L 1.21875 2.0625 C 2.140625 2.09375 2.6875 1.40625 2.6875 0.21875 L 2.6875 -1.453125 Z M 1.21875 -1.453125 "/>
</g>
<g id="glyph-0-21">
<path d="M 3.296875 -10.203125 C 1.90625 -8.375 1.015625 -5.828125 1.015625 -3.625 C 1.015625 -1.40625 1.90625 1.140625 3.296875 2.96875 L 4.078125 2.96875 C 2.84375 0.96875 2.15625 -1.390625 2.15625 -3.625 C 2.15625 -5.859375 2.84375 -8.21875 4.078125 -10.203125 Z M 3.296875 -10.203125 "/>
</g>
<g id="glyph-0-22">
<path d="M 1.296875 2.96875 C 2.703125 1.140625 3.578125 -1.40625 3.578125 -3.609375 C 3.578125 -5.828125 2.703125 -8.375 1.296875 -10.203125 L 0.53125 -10.203125 C 1.765625 -8.203125 2.453125 -5.859375 2.453125 -3.609375 C 2.453125 -1.390625 1.765625 0.984375 0.53125 2.96875 Z M 1.296875 2.96875 "/>
</g>
<g id="glyph-0-23">
<path d="M 2.5625 -4.640625 L 8.125 -4.640625 L 8.125 -5.796875 L 2.5625 -5.796875 L 2.5625 -9.0625 L 8.328125 -9.0625 L 8.328125 -10.203125 L 1.265625 -10.203125 L 1.265625 0 L 8.578125 0 L 8.578125 -1.140625 L 2.5625 -1.140625 Z M 2.5625 -4.640625 "/>
</g>
<g id="glyph-0-24">
<path d="M 0.96875 -7.34375 L 0.96875 0 L 2.140625 0 L 2.140625 -3.8125 C 2.15625 -5.578125 2.890625 -6.359375 4.5 -6.3125 L 4.5 -7.5 C 4.296875 -7.53125 4.1875 -7.546875 4.046875 -7.546875 C 3.296875 -7.546875 2.71875 -7.09375 2.046875 -6 L 2.046875 -7.34375 Z M 0.96875 -7.34375 "/>
</g>
<g id="glyph-0-25">
<path d="M 5.65625 -7.34375 L 5.65625 -6.265625 C 5.0625 -7.15625 4.421875 -7.546875 3.5 -7.546875 C 1.71875 -7.546875 0.484375 -5.890625 0.484375 -3.546875 C 0.484375 -2.3125 0.78125 -1.40625 1.40625 -0.671875 C 1.953125 -0.03125 2.65625 0.328125 3.421875 0.328125 C 4.296875 0.328125 4.921875 -0.0625 5.546875 -1 L 5.546875 -0.609375 C 5.546875 1.34375 5 2.078125 3.546875 2.078125 C 2.546875 2.078125 2.03125 1.6875 1.921875 0.84375 L 0.734375 0.84375 C 0.84375 2.203125 1.921875 3.046875 3.515625 3.046875 C 4.59375 3.046875 5.484375 2.703125 5.96875 2.109375 C 6.53125 1.421875 6.734375 0.515625 6.734375 -1.203125 L 6.734375 -7.34375 Z M 3.609375 -6.46875 C 4.84375 -6.46875 5.546875 -5.4375 5.546875 -3.5625 C 5.546875 -1.796875 4.828125 -0.75 3.609375 -0.75 C 2.40625 -0.75 1.703125 -1.8125 1.703125 -3.609375 C 1.703125 -5.40625 2.40625 -6.46875 3.609375 -6.46875 Z M 3.609375 -6.46875 "/>
</g>
<g id="glyph-0-26">
<path d="M 7.71875 -4.640625 L 7.71875 0 L 9.015625 0 L 9.015625 -10.203125 L 7.71875 -10.203125 L 7.71875 -5.796875 L 2.46875 -5.796875 L 2.46875 -10.203125 L 1.15625 -10.203125 L 1.15625 0 L 2.46875 0 L 2.46875 -4.640625 Z M 7.71875 -4.640625 "/>
</g>
<g id="glyph-0-27">
<path d="M 2.125 -10.203125 L 0.953125 -10.203125 L 0.953125 0 L 2.125 0 Z M 2.125 -10.203125 "/>
</g>
<g id="glyph-0-28">
<path d="M 3.609375 -7.34375 L 2.390625 -7.34375 L 2.390625 -8.484375 C 2.390625 -8.96875 2.65625 -9.21875 3.203125 -9.21875 C 3.296875 -9.21875 3.34375 -9.21875 3.609375 -9.21875 L 3.609375 -10.171875 C 3.34375 -10.234375 3.1875 -10.25 2.953125 -10.25 C 1.875 -10.25 1.234375 -9.625 1.234375 -8.578125 L 1.234375 -7.34375 L 0.25 -7.34375 L 0.25 -6.390625 L 1.234375 -6.390625 L 1.234375 0 L 2.390625 0 L 2.390625 -6.390625 L 3.609375 -6.390625 Z M 3.609375 -7.34375 "/>
</g>
<g id="glyph-0-29">
<path d="M 7.609375 -3.734375 L 0.5625 -3.734375 L 0.5625 -2.765625 L 7.609375 -2.765625 Z M 7.609375 -3.734375 "/>
</g>
<g id="glyph-0-30">
<path d="M 2.421875 -10.203125 L 1.125 -10.203125 L 1.125 0 L 7.46875 0 L 7.46875 -1.140625 L 2.421875 -1.140625 Z M 2.421875 -10.203125 "/>
</g>
<g id="glyph-0-31">
<path d="M 1.25 0 L 5.1875 0 C 7.75 0 9.34375 -1.9375 9.34375 -5.109375 C 9.34375 -8.28125 7.765625 -10.203125 5.1875 -10.203125 L 1.25 -10.203125 Z M 2.546875 -1.140625 L 2.546875 -9.0625 L 4.953125 -9.0625 C 6.96875 -9.0625 8.03125 -7.703125 8.03125 -5.09375 C 8.03125 -2.5 6.96875 -1.140625 4.953125 -1.140625 Z M 2.546875 -1.140625 "/>
</g>
<g id="glyph-0-32">
<path d="M 0.75 3.046875 L 1.9375 3.046875 L 1.9375 -0.765625 C 2.546875 -0.015625 3.234375 0.328125 4.1875 0.328125 C 6.09375 0.328125 7.328125 -1.203125 7.328125 -3.546875 C 7.328125 -6 6.125 -7.546875 4.171875 -7.546875 C 3.171875 -7.546875 2.375 -7.09375 1.828125 -6.234375 L 1.828125 -7.34375 L 0.75 -7.34375 Z M 3.96875 -6.453125 C 5.265625 -6.453125 6.109375 -5.3125 6.109375 -3.5625 C 6.109375 -1.90625 5.25 -0.765625 3.96875 -0.765625 C 2.734375 -0.765625 1.9375 -1.890625 1.9375 -3.609375 C 1.9375 -5.328125 2.734375 -6.453125 3.96875 -6.453125 Z M 3.96875 -6.453125 "/>
</g>
<g id="glyph-0-33">
<path d="M 6.9375 -10.203125 L 5.765625 -10.203125 L 5.765625 -6.40625 C 5.28125 -7.15625 4.5 -7.546875 3.515625 -7.546875 C 1.609375 -7.546875 0.359375 -6.015625 0.359375 -3.6875 C 0.359375 -1.203125 1.5625 0.328125 3.5625 0.328125 C 4.5625 0.328125 5.265625 -0.0625 5.890625 -0.96875 L 5.890625 0 L 6.9375 0 Z M 3.703125 -6.453125 C 4.96875 -6.453125 5.765625 -5.34375 5.765625 -3.578125 C 5.765625 -1.890625 4.953125 -0.765625 3.71875 -0.765625 C 2.4375 -0.765625 1.578125 -1.90625 1.578125 -3.609375 C 1.578125 -5.3125 2.4375 -6.453125 3.703125 -6.453125 Z M 3.703125 -6.453125 "/>
</g>
<g id="glyph-0-34">
<path d="M 10.421875 0 L 13 -10.203125 L 11.546875 -10.203125 L 9.671875 -1.921875 L 7.34375 -10.203125 L 5.953125 -10.203125 L 3.6875 -1.921875 L 1.765625 -10.203125 L 0.3125 -10.203125 L 2.921875 0 L 4.359375 0 L 6.640625 -8.390625 L 8.984375 0 Z M 10.421875 0 "/>
</g>
<g id="glyph-0-35">
<path d="M 0.984375 -10.203125 L 0.984375 0 L 2.140625 0 L 2.140625 -4.046875 C 2.140625 -5.546875 2.921875 -6.53125 4.125 -6.53125 C 4.515625 -6.53125 4.890625 -6.40625 5.171875 -6.203125 C 5.5 -5.953125 5.640625 -5.59375 5.640625 -5.078125 L 5.640625 0 L 6.796875 0 L 6.796875 -5.546875 C 6.796875 -6.78125 5.921875 -7.546875 4.5 -7.546875 C 3.453125 -7.546875 2.828125 -7.21875 2.140625 -6.328125 L 2.140625 -10.203125 Z M 0.984375 -10.203125 "/>
</g>
<g id="glyph-1-0">
<path d="M 2.5625 -6.75 C 1.953125 -6.75 1.390625 -6.46875 1.046875 -6 C 0.609375 -5.40625 0.40625 -4.515625 0.40625 -3.265625 C 0.40625 -0.984375 1.140625 0.21875 2.5625 0.21875 C 3.96875 0.21875 4.734375 -0.984375 4.734375 -3.203125 C 4.734375 -4.515625 4.53125 -5.390625 4.078125 -6 C 3.734375 -6.46875 3.1875 -6.75 2.5625 -6.75 Z M 2.5625 -6.015625 C 3.453125 -6.015625 3.890625 -5.109375 3.890625 -3.28125 C 3.890625 -1.359375 3.453125 -0.46875 2.546875 -0.46875 C 1.671875 -0.46875 1.234375 -1.40625 1.234375 -3.25 C 1.234375 -5.109375 1.671875 -6.015625 2.5625 -6.015625 Z M 2.5625 -6.015625 "/>
</g>
<g id="glyph-1-1">
<path d="M 2.421875 -4.796875 L 2.421875 0 L 3.234375 0 L 3.234375 -6.75 L 2.703125 -6.75 C 2.40625 -5.703125 2.21875 -5.5625 0.953125 -5.40625 L 0.953125 -4.796875 Z M 2.421875 -4.796875 "/>
</g>
<g id="glyph-1-2">
<path d="M 4.71875 -0.8125 L 1.234375 -0.8125 C 1.328125 -1.375 1.625 -1.71875 2.4375 -2.21875 L 3.375 -2.75 C 4.296875 -3.25 4.765625 -3.953125 4.765625 -4.78125 C 4.765625 -5.328125 4.546875 -5.859375 4.15625 -6.21875 C 3.765625 -6.578125 3.28125 -6.75 2.65625 -6.75 C 1.8125 -6.75 1.1875 -6.453125 0.828125 -5.875 C 0.59375 -5.515625 0.484375 -5.09375 0.46875 -4.40625 L 1.28125 -4.40625 C 1.3125 -4.875 1.375 -5.140625 1.484375 -5.359375 C 1.703125 -5.78125 2.125 -6.03125 2.625 -6.03125 C 3.375 -6.03125 3.921875 -5.484375 3.921875 -4.75 C 3.921875 -4.21875 3.625 -3.75 3.03125 -3.421875 L 2.171875 -2.90625 C 0.796875 -2.125 0.390625 -1.484375 0.3125 -0.015625 L 4.71875 -0.015625 Z M 4.71875 -0.8125 "/>
</g>
<g id="glyph-1-3">
<path d="M 2.0625 -3.109375 L 2.515625 -3.109375 C 3.40625 -3.109375 3.875 -2.6875 3.875 -1.875 C 3.875 -1.03125 3.375 -0.515625 2.515625 -0.515625 C 1.609375 -0.515625 1.171875 -0.96875 1.125 -1.953125 L 0.296875 -1.953125 C 0.328125 -1.421875 0.421875 -1.0625 0.59375 -0.765625 C 0.9375 -0.109375 1.578125 0.21875 2.484375 0.21875 C 3.84375 0.21875 4.71875 -0.609375 4.71875 -1.890625 C 4.71875 -2.75 4.390625 -3.203125 3.59375 -3.484375 C 4.21875 -3.734375 4.53125 -4.203125 4.53125 -4.890625 C 4.53125 -6.046875 3.765625 -6.75 2.515625 -6.75 C 1.171875 -6.75 0.46875 -6 0.4375 -4.578125 L 1.265625 -4.578125 C 1.265625 -4.984375 1.3125 -5.21875 1.40625 -5.421875 C 1.59375 -5.796875 2 -6.03125 2.515625 -6.03125 C 3.25 -6.03125 3.6875 -5.59375 3.6875 -4.859375 C 3.6875 -4.390625 3.515625 -4.09375 3.15625 -3.9375 C 2.921875 -3.84375 2.625 -3.8125 2.0625 -3.796875 Z M 2.0625 -3.109375 "/>
</g>
<g id="glyph-1-4">
<path d="M 3.046875 -1.625 L 3.046875 0 L 3.875 0 L 3.875 -1.625 L 4.84375 -1.625 L 4.84375 -2.375 L 3.875 -2.375 L 3.875 -6.75 L 3.265625 -6.75 L 0.265625 -2.5 L 0.265625 -1.625 Z M 3.046875 -2.375 L 0.984375 -2.375 L 3.046875 -5.34375 Z M 3.046875 -2.375 "/>
</g>
<g id="glyph-1-5">
<path d="M 4.4375 -6.609375 L 1.03125 -6.609375 L 0.53125 -3.015625 L 1.28125 -3.015625 C 1.671875 -3.46875 1.984375 -3.625 2.515625 -3.625 C 3.390625 -3.625 3.953125 -3.015625 3.953125 -2.046875 C 3.953125 -1.09375 3.390625 -0.515625 2.5 -0.515625 C 1.78125 -0.515625 1.34375 -0.875 1.140625 -1.625 L 0.328125 -1.625 C 0.4375 -1.078125 0.53125 -0.828125 0.734375 -0.578125 C 1.09375 -0.078125 1.765625 0.21875 2.515625 0.21875 C 3.859375 0.21875 4.78125 -0.75 4.78125 -2.15625 C 4.78125 -3.453125 3.921875 -4.359375 2.65625 -4.359375 C 2.1875 -4.359375 1.8125 -4.234375 1.421875 -3.953125 L 1.6875 -5.796875 L 4.4375 -5.796875 Z M 4.4375 -6.609375 "/>
</g>
<g id="glyph-2-0">
<path d="M -0.125 -6.421875 L -0.125 -6.828125 C 0.609375 -6.875 1.078125 -6.953125 1.75 -7.1875 L 3.921875 -1.6875 L 4.890625 -3.5625 L 4.984375 -3.734375 C 5.203125 -4.171875 5.328125 -4.578125 5.328125 -4.90625 C 5.328125 -5.0625 5.3125 -5.28125 5.234375 -5.609375 L 5.21875 -5.734375 L 5.1875 -5.859375 L 5.125 -6.171875 C 5.109375 -6.265625 5.09375 -6.34375 5.09375 -6.40625 C 5.09375 -6.828125 5.453125 -7.1875 5.859375 -7.1875 C 6.28125 -7.1875 6.65625 -6.796875 6.65625 -6.359375 C 6.65625 -6.046875 6.515625 -5.59375 6.265625 -5.046875 C 6.125 -4.734375 5.765625 -3.984375 5.59375 -3.6875 L 5.46875 -3.4375 L 4.640625 -1.90625 L 4.515625 -1.640625 L 4.140625 -0.875 C 4.0625 -0.6875 3.9375 -0.375 3.78125 0 L 3.703125 0.1875 L 3.296875 0.1875 L 1.03125 -5.546875 C 0.71875 -6.375 0.640625 -6.40625 -0.125 -6.421875 Z M -0.125 -6.421875 "/>
</g>
<g id="glyph-3-0">
<path d="M 5.5625 -0.953125 L 1.46875 -0.953125 C 1.5625 -1.609375 1.90625 -2.03125 2.875 -2.625 L 3.96875 -3.234375 C 5.0625 -3.84375 5.625 -4.65625 5.625 -5.625 C 5.625 -6.296875 5.359375 -6.90625 4.890625 -7.34375 C 4.4375 -7.75 3.859375 -7.953125 3.125 -7.953125 C 2.140625 -7.953125 1.390625 -7.59375 0.96875 -6.921875 C 0.6875 -6.5 0.578125 -6 0.546875 -5.203125 L 1.515625 -5.203125 C 1.546875 -5.734375 1.609375 -6.0625 1.75 -6.328125 C 2 -6.8125 2.515625 -7.109375 3.09375 -7.109375 C 3.96875 -7.109375 4.625 -6.46875 4.625 -5.609375 C 4.625 -4.96875 4.265625 -4.421875 3.578125 -4.03125 L 2.5625 -3.4375 C 0.9375 -2.5 0.46875 -1.75 0.375 -0.015625 L 5.5625 -0.015625 Z M 5.5625 -0.953125 "/>
</g>
<g id="glyph-3-1">
<path d="M 5.984375 -2.9375 L 0.4375 -2.9375 L 0.4375 -2.171875 L 5.984375 -2.171875 Z M 5.984375 -2.9375 "/>
</g>
<g id="glyph-3-2">
<path d="M 2.84375 -5.671875 L 2.84375 0 L 3.8125 0 L 3.8125 -7.953125 L 3.171875 -7.953125 C 2.84375 -6.734375 2.625 -6.5625 1.125 -6.375 L 1.125 -5.671875 Z M 2.84375 -5.671875 "/>
</g>
<g id="glyph-4-0">
<path d="M -9.0625 -4.953125 L -9.0625 -8.296875 L -10.203125 -8.296875 L -10.203125 -0.296875 L -9.0625 -0.296875 L -9.0625 -3.65625 L 0 -3.65625 L 0 -4.953125 Z M -9.0625 -4.953125 "/>
</g>
<g id="glyph-4-1">
<path d="M -7.546875 -3.8125 C -7.546875 -1.734375 -6.078125 -0.5 -3.609375 -0.5 C -1.140625 -0.5 0.328125 -1.734375 0.328125 -3.828125 C 0.328125 -5.890625 -1.140625 -7.140625 -3.5625 -7.140625 C -6.109375 -7.140625 -7.546875 -5.9375 -7.546875 -3.8125 Z M -6.46875 -3.828125 C -6.46875 -5.140625 -5.390625 -5.921875 -3.5625 -5.921875 C -1.828125 -5.921875 -0.75 -5.109375 -0.75 -3.828125 C -0.75 -2.515625 -1.828125 -1.71875 -3.609375 -1.71875 C -5.390625 -1.71875 -6.46875 -2.515625 -6.46875 -3.828125 Z M -6.46875 -3.828125 "/>
</g>
<g id="glyph-4-2">
<path d="M -7.34375 -3.5625 L -7.34375 -2.359375 L -9.359375 -2.359375 L -9.359375 -1.1875 L -7.34375 -1.1875 L -7.34375 -0.203125 L -6.390625 -0.203125 L -6.390625 -1.1875 L -0.84375 -1.1875 C -0.078125 -1.1875 0.328125 -1.6875 0.328125 -2.609375 C 0.328125 -2.90625 0.296875 -3.15625 0.21875 -3.5625 L -0.75 -3.5625 C -0.71875 -3.390625 -0.703125 -3.234375 -0.703125 -3 C -0.703125 -2.484375 -0.84375 -2.359375 -1.359375 -2.359375 L -6.390625 -2.359375 L -6.390625 -3.5625 Z M -7.34375 -3.5625 "/>
</g>
<g id="glyph-4-3">
<path d="M -0.6875 -7.484375 C -0.65625 -7.359375 -0.65625 -7.3125 -0.65625 -7.234375 C -0.65625 -6.828125 -0.875 -6.609375 -1.234375 -6.609375 L -5.546875 -6.609375 C -6.84375 -6.609375 -7.546875 -5.65625 -7.546875 -3.84375 C -7.546875 -2.765625 -7.234375 -1.921875 -6.6875 -1.40625 C -6.3125 -1.078125 -5.890625 -0.9375 -5.171875 -0.90625 L -5.171875 -2.09375 C -6.0625 -2.1875 -6.46875 -2.71875 -6.46875 -3.8125 C -6.46875 -4.875 -6.078125 -5.453125 -5.375 -5.453125 L -5.0625 -5.453125 C -4.5625 -5.4375 -4.375 -5.1875 -4.25 -4.234375 C -4.046875 -2.578125 -3.984375 -2.328125 -3.8125 -1.875 C -3.4375 -1.015625 -2.796875 -0.59375 -1.84375 -0.59375 C -0.515625 -0.59375 0.328125 -1.515625 0.328125 -3 C 0.328125 -3.921875 0 -4.65625 -0.75 -5.484375 C 0 -5.578125 0.328125 -5.9375 0.328125 -6.6875 C 0.328125 -6.9375 0.296875 -7.09375 0.203125 -7.484375 Z M -2.3125 -5.453125 C -1.921875 -5.453125 -1.6875 -5.328125 -1.359375 -4.984375 C -0.921875 -4.515625 -0.703125 -3.9375 -0.703125 -3.25 C -0.703125 -2.34375 -1.140625 -1.8125 -1.875 -1.8125 C -2.640625 -1.8125 -3.03125 -2.3125 -3.21875 -3.5625 C -3.390625 -4.8125 -3.4375 -5.046875 -3.625 -5.453125 Z M -2.3125 -5.453125 "/>
</g>
<g id="glyph-4-4">
<path d="M -10.203125 -2.125 L -10.203125 -0.953125 L 0 -0.953125 L 0 -2.125 Z M -10.203125 -2.125 "/>
</g>
<g id="glyph-4-5">
</g>
<g id="glyph-4-6">
<path d="M -4.640625 -2.5625 L -4.640625 -8.125 L -5.796875 -8.125 L -5.796875 -2.5625 L -9.0625 -2.5625 L -9.0625 -8.328125 L -10.203125 -8.328125 L -10.203125 -1.265625 L 0 -1.265625 L 0 -8.578125 L -1.140625 -8.578125 L -1.140625 -2.5625 Z M -4.640625 -2.5625 "/>
</g>
<g id="glyph-4-7">
<path d="M -7.34375 -0.984375 L 0 -0.984375 L 0 -2.15625 L -4.046875 -2.15625 C -5.546875 -2.15625 -6.53125 -2.9375 -6.53125 -4.140625 C -6.53125 -5.0625 -5.96875 -5.65625 -5.078125 -5.65625 L 0 -5.65625 L 0 -6.8125 L -5.546875 -6.8125 C -6.765625 -6.8125 -7.546875 -5.90625 -7.546875 -4.5 C -7.546875 -3.40625 -7.125 -2.703125 -6.109375 -2.0625 L -7.34375 -2.0625 Z M -7.34375 -0.984375 "/>
</g>
<g id="glyph-4-8">
<path d="M -3.28125 -7.1875 C -4.390625 -7.1875 -5.0625 -7.09375 -5.609375 -6.890625 C -6.8125 -6.40625 -7.546875 -5.296875 -7.546875 -3.921875 C -7.546875 -1.875 -5.984375 -0.5625 -3.5625 -0.5625 C -1.140625 -0.5625 0.328125 -1.8125 0.328125 -3.890625 C 0.328125 -5.578125 -0.625 -6.734375 -2.21875 -7.03125 L -2.21875 -5.859375 C -1.265625 -5.53125 -0.75 -4.875 -0.75 -3.9375 C -0.75 -3.1875 -1.09375 -2.5625 -1.703125 -2.171875 C -2.125 -1.890625 -2.546875 -1.796875 -3.28125 -1.78125 Z M -4.234375 -1.8125 C -5.59375 -1.90625 -6.46875 -2.734375 -6.46875 -3.90625 C -6.46875 -5.09375 -5.546875 -5.921875 -4.234375 -5.921875 Z M -4.234375 -1.8125 "/>
</g>
<g id="glyph-4-9">
<path d="M -7.34375 -0.96875 L 0 -0.96875 L 0 -2.140625 L -3.8125 -2.140625 C -5.578125 -2.15625 -6.359375 -2.890625 -6.3125 -4.5 L -7.5 -4.5 C -7.53125 -4.296875 -7.546875 -4.1875 -7.546875 -4.046875 C -7.546875 -3.296875 -7.09375 -2.71875 -6 -2.046875 L -7.34375 -2.046875 Z M -7.34375 -0.96875 "/>
</g>
<g id="glyph-4-10">
<path d="M -7.34375 -5.65625 L -6.265625 -5.65625 C -7.15625 -5.0625 -7.546875 -4.421875 -7.546875 -3.5 C -7.546875 -1.71875 -5.890625 -0.484375 -3.546875 -0.484375 C -2.3125 -0.484375 -1.40625 -0.78125 -0.671875 -1.40625 C -0.03125 -1.953125 0.328125 -2.65625 0.328125 -3.421875 C 0.328125 -4.296875 -0.0625 -4.921875 -1 -5.546875 L -0.609375 -5.546875 C 1.34375 -5.546875 2.078125 -5 2.078125 -3.546875 C 2.078125 -2.546875 1.6875 -2.03125 0.84375 -1.921875 L 0.84375 -0.734375 C 2.203125 -0.84375 3.046875 -1.921875 3.046875 -3.515625 C 3.046875 -4.59375 2.703125 -5.484375 2.109375 -5.96875 C 1.421875 -6.53125 0.515625 -6.734375 -1.203125 -6.734375 L -7.34375 -6.734375 Z M -6.46875 -3.609375 C -6.46875 -4.84375 -5.4375 -5.546875 -3.5625 -5.546875 C -1.796875 -5.546875 -0.75 -4.828125 -0.75 -3.609375 C -0.75 -2.40625 -1.8125 -1.703125 -3.609375 -1.703125 C -5.40625 -1.703125 -6.46875 -2.40625 -6.46875 -3.609375 Z M -6.46875 -3.609375 "/>
</g>
<g id="glyph-4-11">
<path d="M -7.34375 -5.4375 L -1.625 -3.40625 L -7.34375 -1.53125 L -7.34375 -0.28125 L 0.03125 -2.765625 L 1.1875 -2.3125 C 1.703125 -2.109375 1.90625 -1.859375 1.90625 -1.375 C 1.90625 -1.171875 1.875 -1.015625 1.8125 -0.75 L 2.875 -0.75 C 3 -1 3.046875 -1.234375 3.046875 -1.546875 C 3.046875 -1.921875 2.921875 -2.328125 2.703125 -2.625 C 2.4375 -3 2.125 -3.203125 1.546875 -3.4375 L -7.34375 -6.6875 Z M -7.34375 -5.4375 "/>
</g>
<g id="glyph-4-12">
<path d="M -4.640625 -7.71875 L 0 -7.71875 L 0 -9.015625 L -10.203125 -9.015625 L -10.203125 -7.71875 L -5.796875 -7.71875 L -5.796875 -2.46875 L -10.203125 -2.46875 L -10.203125 -1.15625 L 0 -1.15625 L 0 -2.46875 L -4.640625 -2.46875 Z M -4.640625 -7.71875 "/>
</g>
<g id="glyph-4-13">
<path d="M -7.34375 -3.609375 L -7.34375 -2.390625 L -8.484375 -2.390625 C -8.96875 -2.390625 -9.21875 -2.65625 -9.21875 -3.203125 C -9.21875 -3.296875 -9.21875 -3.34375 -9.21875 -3.609375 L -10.171875 -3.609375 C -10.234375 -3.34375 -10.25 -3.1875 -10.25 -2.953125 C -10.25 -1.875 -9.625 -1.234375 -8.578125 -1.234375 L -7.34375 -1.234375 L -7.34375 -0.25 L -6.390625 -0.25 L -6.390625 -1.234375 L 0 -1.234375 L 0 -2.390625 L -6.390625 -2.390625 L -6.390625 -3.609375 Z M -7.34375 -3.609375 "/>
</g>
<g id="glyph-4-14">
<path d="M -3.734375 -7.609375 L -3.734375 -0.5625 L -2.765625 -0.5625 L -2.765625 -7.609375 Z M -3.734375 -7.609375 "/>
</g>
<g id="glyph-4-15">
<path d="M -10.203125 -2.421875 L -10.203125 -1.125 L 0 -1.125 L 0 -7.46875 L -1.140625 -7.46875 L -1.140625 -2.421875 Z M -10.203125 -2.421875 "/>
</g>
<g id="glyph-4-16">
<path d="M -7.34375 -2.09375 L -7.34375 -0.9375 L 0 -0.9375 L 0 -2.09375 Z M -10.203125 -2.09375 L -10.203125 -0.921875 L -8.734375 -0.921875 L -8.734375 -2.09375 Z M -10.203125 -2.09375 "/>
</g>
<g id="glyph-4-17">
<path d="M -1.453125 -1.21875 L 0 -1.21875 L 0 -2.0625 L 0.25 -2.0625 C 1.21875 -2.0625 1.5 -1.875 1.53125 -1.21875 L 2.0625 -1.21875 C 2.09375 -2.140625 1.40625 -2.6875 0.21875 -2.6875 L -1.453125 -2.6875 Z M -1.453125 -1.21875 "/>
</g>
<g id="glyph-4-18">
<path d="M -10.203125 -3.296875 C -8.375 -1.90625 -5.828125 -1.015625 -3.625 -1.015625 C -1.40625 -1.015625 1.140625 -1.90625 2.96875 -3.296875 L 2.96875 -4.078125 C 0.96875 -2.84375 -1.390625 -2.15625 -3.625 -2.15625 C -5.859375 -2.15625 -8.21875 -2.84375 -10.203125 -4.078125 Z M -10.203125 -3.296875 "/>
</g>
<g id="glyph-4-19">
<path d="M -5.296875 -6.125 C -6.734375 -6.125 -7.546875 -5.171875 -7.546875 -3.46875 C -7.546875 -1.765625 -6.65625 -0.65625 -5.3125 -0.65625 C -4.15625 -0.65625 -3.609375 -1.25 -3.1875 -2.984375 L -2.921875 -4.078125 C -2.734375 -4.890625 -2.4375 -5.203125 -1.921875 -5.203125 C -1.21875 -5.203125 -0.75 -4.515625 -0.75 -3.5 C -0.75 -2.875 -0.9375 -2.34375 -1.25 -2.046875 C -1.453125 -1.859375 -1.671875 -1.78125 -2.1875 -1.703125 L -2.1875 -0.46875 C -0.484375 -0.53125 0.328125 -1.484375 0.328125 -3.40625 C 0.328125 -5.25 -0.59375 -6.421875 -2 -6.421875 C -3.09375 -6.421875 -3.703125 -5.8125 -4.046875 -4.359375 L -4.3125 -3.234375 C -4.53125 -2.28125 -4.84375 -1.875 -5.359375 -1.875 C -6.046875 -1.875 -6.46875 -2.484375 -6.46875 -3.4375 C -6.46875 -4.375 -6.0625 -4.875 -5.296875 -4.90625 Z M -5.296875 -6.125 "/>
</g>
<g id="glyph-4-20">
<path d="M 2.96875 -1.296875 C 1.140625 -2.703125 -1.40625 -3.578125 -3.609375 -3.578125 C -5.828125 -3.578125 -8.375 -2.703125 -10.203125 -1.296875 L -10.203125 -0.53125 C -8.203125 -1.765625 -5.859375 -2.453125 -3.609375 -2.453125 C -1.390625 -2.453125 0.984375 -1.765625 2.96875 -0.53125 Z M 2.96875 -1.296875 "/>
</g>
<g id="glyph-5-0">
<path d="M -4.328125 -0.5 L -4.328125 -0.140625 C -5.3125 -0.375 -5.828125 -0.609375 -6.328125 -1.0625 C -6.8125 -1.515625 -7 -1.953125 -7 -2.671875 L -7 -5.859375 L -5.65625 -5.859375 L -5.65625 -3.5625 C -5.328125 -3.515625 -5.1875 -3.5 -4.671875 -3.46875 C -4.234375 -3.4375 -3.90625 -3.421875 -3.671875 -3.40625 C -3.171875 -3.34375 -2.75 -3.3125 -2.484375 -3.3125 C -1.765625 -3.3125 -1.171875 -3.8125 -1.171875 -4.421875 C -1.171875 -4.84375 -1.453125 -5.046875 -2.25 -5.171875 L -2.25 -5.515625 C -1.59375 -5.484375 -1.203125 -5.4375 -0.796875 -5.265625 C -0.21875 -5.046875 0.1875 -4.484375 0.1875 -3.921875 C 0.1875 -3.0625 -0.71875 -2.53125 -2.15625 -2.53125 C -2.53125 -2.53125 -3.046875 -2.5625 -3.84375 -2.625 C -4.234375 -2.640625 -4.5625 -2.6875 -5.34375 -2.78125 L -5.65625 -2.828125 L -5.65625 -1.8125 C -5.65625 -1.421875 -5.59375 -1.25 -5.34375 -1.046875 C -5.078125 -0.84375 -4.75 -0.65625 -4.328125 -0.5 Z M -4.328125 -0.5 "/>
</g>
<g id="glyph-6-0">
<path d="M 4.625 -7.25 L 7.171875 -7.25 L 7.171875 -8.75 L 0.171875 -8.75 L 0.171875 -7.25 L 2.8125 -7.25 L 2.8125 0 L 4.625 0 Z M 4.625 -7.25 "/>
</g>
<g id="glyph-6-1">
<path d="M 0.75 -6.484375 L 0.75 0 L 2.4375 0 L 2.4375 -3.4375 C 2.4375 -4.421875 2.921875 -4.921875 3.90625 -4.921875 C 4.09375 -4.921875 4.21875 -4.90625 4.4375 -4.875 L 4.4375 -6.578125 C 4.34375 -6.59375 4.3125 -6.59375 4.234375 -6.59375 C 3.46875 -6.59375 2.8125 -6.078125 2.4375 -5.203125 L 2.4375 -6.484375 Z M 0.75 -6.484375 "/>
</g>
<g id="glyph-6-2">
<path d="M 6.28125 -0.203125 C 6 -0.484375 5.90625 -0.671875 5.90625 -1 L 5.90625 -4.59375 C 5.90625 -5.921875 5 -6.59375 3.25 -6.59375 C 1.5 -6.59375 0.59375 -5.84375 0.484375 -4.34375 L 2.09375 -4.34375 C 2.1875 -5.015625 2.453125 -5.234375 3.28125 -5.234375 C 3.9375 -5.234375 4.265625 -5.015625 4.265625 -4.578125 C 4.265625 -4.375 4.15625 -4.1875 3.96875 -4.078125 C 3.75 -3.953125 3.75 -3.953125 2.921875 -3.828125 L 2.25 -3.703125 C 0.953125 -3.484375 0.34375 -2.828125 0.34375 -1.671875 C 0.34375 -0.5 1.109375 0.28125 2.296875 0.28125 C 3.03125 0.28125 3.671875 -0.03125 4.265625 -0.640625 C 4.265625 -0.3125 4.3125 -0.1875 4.46875 0 L 6.28125 0 Z M 4.265625 -2.609375 C 4.265625 -1.625 3.78125 -1.078125 2.921875 -1.078125 C 2.359375 -1.078125 2.015625 -1.375 2.015625 -1.859375 C 2.015625 -2.359375 2.28125 -2.609375 2.96875 -2.75 L 3.546875 -2.859375 C 4 -2.9375 4.0625 -2.96875 4.265625 -3.0625 Z M 4.265625 -2.609375 "/>
</g>
<g id="glyph-6-3">
<path d="M 0.75 -6.484375 L 0.75 0 L 2.4375 0 L 2.4375 -3.890625 C 2.4375 -4.65625 2.96875 -5.15625 3.796875 -5.15625 C 4.515625 -5.15625 4.875 -4.765625 4.875 -4 L 4.875 0 L 6.546875 0 L 6.546875 -4.34375 C 6.546875 -5.78125 5.765625 -6.59375 4.375 -6.59375 C 3.5 -6.59375 2.921875 -6.28125 2.4375 -5.546875 L 2.4375 -6.484375 Z M 0.75 -6.484375 "/>
</g>
<g id="glyph-6-4">
<path d="M 6.0625 -4.390625 C 6.03125 -5.765625 4.984375 -6.59375 3.234375 -6.59375 C 1.59375 -6.59375 0.578125 -5.765625 0.578125 -4.421875 C 0.578125 -4 0.703125 -3.625 0.9375 -3.375 C 1.15625 -3.140625 1.375 -3.03125 1.984375 -2.828125 L 4 -2.203125 C 4.421875 -2.078125 4.5625 -1.9375 4.5625 -1.6875 C 4.5625 -1.28125 4.09375 -1.046875 3.3125 -1.046875 C 2.875 -1.046875 2.53125 -1.109375 2.3125 -1.265625 C 2.140625 -1.40625 2.0625 -1.53125 1.984375 -1.890625 L 0.34375 -1.890625 C 0.390625 -0.453125 1.4375 0.28125 3.40625 0.28125 C 4.3125 0.28125 4.984375 0.078125 5.46875 -0.296875 C 5.953125 -0.6875 6.234375 -1.28125 6.234375 -1.921875 C 6.234375 -2.765625 5.8125 -3.296875 4.96875 -3.546875 L 2.84375 -4.15625 C 2.375 -4.3125 2.25 -4.40625 2.25 -4.671875 C 2.25 -5.03125 2.640625 -5.265625 3.234375 -5.265625 C 4.03125 -5.265625 4.421875 -4.984375 4.4375 -4.390625 Z M 6.0625 -4.390625 "/>
</g>
<g id="glyph-6-5">
<path d="M 2.484375 -6.484375 L 0.796875 -6.484375 L 0.796875 0 L 2.484375 0 Z M 2.484375 -8.75 L 0.796875 -8.75 L 0.796875 -7.25 L 2.484375 -7.25 Z M 2.484375 -8.75 "/>
</g>
<g id="glyph-6-6">
<path d="M 3.609375 -6.34375 L 2.671875 -6.34375 L 2.671875 -8.09375 L 1 -8.09375 L 1 -6.34375 L 0.171875 -6.34375 L 0.171875 -5.234375 L 1 -5.234375 L 1 -1.25 C 1 -0.234375 1.53125 0.28125 2.640625 0.28125 C 3.03125 0.28125 3.296875 0.234375 3.609375 0.140625 L 3.609375 -1.03125 C 3.4375 -1.015625 3.359375 -1 3.234375 -1 C 2.78125 -1 2.671875 -1.125 2.671875 -1.703125 L 2.671875 -5.234375 L 3.609375 -5.234375 Z M 3.609375 -6.34375 "/>
</g>
<g id="glyph-6-7">
<path d="M 3.609375 -6.59375 C 1.625 -6.59375 0.421875 -5.28125 0.421875 -3.15625 C 0.421875 -1.015625 1.625 0.28125 3.625 0.28125 C 5.609375 0.28125 6.828125 -1.015625 6.828125 -3.109375 C 6.828125 -5.296875 5.640625 -6.59375 3.609375 -6.59375 Z M 3.625 -5.234375 C 4.546875 -5.234375 5.140625 -4.40625 5.140625 -3.125 C 5.140625 -1.921875 4.53125 -1.078125 3.625 -1.078125 C 2.71875 -1.078125 2.09375 -1.90625 2.09375 -3.15625 C 2.09375 -4.40625 2.71875 -5.234375 3.625 -5.234375 Z M 3.625 -5.234375 "/>
</g>
<g id="glyph-6-8">
<path d="M 6.28125 -2.71875 C 6.296875 -2.859375 6.296875 -2.921875 6.296875 -3 C 6.296875 -3.640625 6.203125 -4.25 6.046875 -4.703125 C 5.609375 -5.875 4.578125 -6.59375 3.265625 -6.59375 C 1.40625 -6.59375 0.265625 -5.25 0.265625 -3.078125 C 0.265625 -1 1.390625 0.28125 3.234375 0.28125 C 4.6875 0.28125 5.859375 -0.546875 6.234375 -1.828125 L 4.578125 -1.828125 C 4.375 -1.3125 3.90625 -1.015625 3.28125 -1.015625 C 2.8125 -1.015625 2.421875 -1.21875 2.1875 -1.578125 C 2.03125 -1.8125 1.96875 -2.09375 1.9375 -2.71875 Z M 1.96875 -3.828125 C 2.078125 -4.828125 2.5 -5.296875 3.234375 -5.296875 C 4.015625 -5.296875 4.46875 -4.78125 4.546875 -3.828125 Z M 1.96875 -3.828125 "/>
</g>
<g id="glyph-6-9">
<path d="M 4.796875 -6.484375 L 4.796875 -5.484375 C 4.328125 -6.234375 3.8125 -6.59375 3.125 -6.59375 C 2.5625 -6.59375 1.921875 -6.296875 1.46875 -5.828125 C 0.828125 -5.15625 0.484375 -4.21875 0.484375 -3.078125 C 0.484375 -1.09375 1.546875 0.28125 3.09375 0.28125 C 3.796875 0.28125 4.21875 0.046875 4.796875 -0.65625 L 4.796875 0.21875 C 4.796875 1 4.25 1.53125 3.453125 1.53125 C 2.859375 1.53125 2.484375 1.265625 2.359375 0.78125 L 0.625 0.78125 C 0.640625 1.28125 0.8125 1.625 1.265625 1.984375 C 1.78125 2.40625 2.484375 2.609375 3.390625 2.609375 C 5.265625 2.609375 6.390625 1.71875 6.390625 0.21875 L 6.390625 -6.484375 Z M 3.4375 -5.1875 C 4.234375 -5.1875 4.828125 -4.3125 4.828125 -3.109375 C 4.828125 -1.9375 4.265625 -1.125 3.421875 -1.125 C 2.6875 -1.125 2.171875 -1.9375 2.171875 -3.109375 C 2.171875 -4.328125 2.6875 -5.1875 3.4375 -5.1875 Z M 3.4375 -5.1875 "/>
</g>
<g id="glyph-6-10">
<path d="M 6.078125 -3.96875 L 6.078125 0 L 7.890625 0 L 7.890625 -8.75 L 6.078125 -8.75 L 6.078125 -5.46875 L 2.609375 -5.46875 L 2.609375 -8.75 L 0.8125 -8.75 L 0.8125 0 L 2.609375 0 L 2.609375 -3.96875 Z M 6.078125 -3.96875 "/>
</g>
<g id="glyph-6-11">
<path d="M 0.796875 -8.75 L 0.796875 0 L 2.484375 0 L 2.484375 -3.890625 C 2.484375 -4.625 3.03125 -5.15625 3.78125 -5.15625 C 4.15625 -5.15625 4.421875 -5.03125 4.625 -4.765625 C 4.78125 -4.546875 4.8125 -4.375 4.8125 -3.953125 L 4.8125 0 L 6.484375 0 L 6.484375 -4.34375 C 6.484375 -5.140625 6.28125 -5.71875 5.828125 -6.09375 C 5.453125 -6.40625 4.921875 -6.59375 4.375 -6.59375 C 3.546875 -6.59375 2.953125 -6.265625 2.484375 -5.546875 L 2.484375 -8.75 Z M 0.796875 -8.75 "/>
</g>
<g id="glyph-6-12">
</g>
<g id="glyph-6-13">
<path d="M 4.203125 0 L 6.4375 -6.484375 L 4.65625 -6.484375 L 3.34375 -1.734375 L 1.9375 -6.484375 L 0.171875 -6.484375 L 2.4375 0 Z M 4.203125 0 "/>
</g>
<g id="glyph-6-14">
<path d="M 6.265625 -4.0625 C 6.140625 -5.640625 5.09375 -6.59375 3.46875 -6.59375 C 1.53125 -6.59375 0.40625 -5.3125 0.40625 -3.109375 C 0.40625 -0.96875 1.53125 0.28125 3.4375 0.28125 C 5.015625 0.28125 6.109375 -0.703125 6.265625 -2.25 L 4.65625 -2.25 C 4.453125 -1.40625 4.109375 -1.078125 3.4375 -1.078125 C 2.59375 -1.078125 2.09375 -1.84375 2.09375 -3.109375 C 2.09375 -3.734375 2.203125 -4.296875 2.40625 -4.6875 C 2.609375 -5.046875 2.96875 -5.234375 3.453125 -5.234375 C 4.140625 -5.234375 4.46875 -4.90625 4.65625 -4.0625 Z M 6.265625 -4.0625 "/>
</g>
<g id="glyph-6-15">
<path d="M 4.734375 -6.484375 L 3.390625 -1.765625 L 1.953125 -6.484375 L 0.109375 -6.484375 L 2.515625 0.265625 C 2.515625 0.9375 2.09375 1.390625 1.46875 1.390625 C 1.34375 1.390625 1.234375 1.375 1.03125 1.3125 L 1.03125 2.578125 C 1.28125 2.609375 1.421875 2.625 1.625 2.625 C 2.0625 2.625 2.546875 2.546875 2.84375 2.421875 C 3.3125 2.234375 3.515625 1.96875 3.796875 1.1875 L 6.453125 -6.484375 Z M 4.734375 -6.484375 "/>
</g>
<g id="glyph-6-16">
<path d="M 2.765625 -8.75 L 0.953125 -8.75 L 0.953125 0 L 6.953125 0 L 6.953125 -1.5 L 2.765625 -1.5 Z M 2.765625 -8.75 "/>
</g>
<g id="glyph-6-17">
<path d="M 7.359375 0 L 9.1875 -6.484375 L 7.453125 -6.484375 L 6.46875 -1.9375 L 5.5 -6.484375 L 3.8125 -6.484375 L 2.828125 -1.9375 L 1.796875 -6.484375 L 0.0625 -6.484375 L 1.890625 0 L 3.609375 0 L 4.640625 -4.578125 L 5.609375 0 Z M 7.359375 0 "/>
</g>
</g>
<clipPath id="clip-0">
<path clip-rule="nonzero" d="M 0 0 L 492 0 L 492 409.699219 L 0 409.699219 Z M 0 0 "/>
</clipPath>
<clipPath id="clip-1">
<path clip-rule="nonzero" d="M 57.917969 70.667969 L 75 70.667969 L 75 88 L 57.917969 88 Z M 57.917969 70.667969 "/>
</clipPath>
<clipPath id="clip-2">
<path clip-rule="nonzero" d="M 129 70.667969 L 151 70.667969 L 151 88 L 129 88 Z M 129 70.667969 "/>
</clipPath>
<clipPath id="clip-3">
<path clip-rule="nonzero" d="M 412 327 L 428.832031 327 L 428.832031 342.332031 L 412 342.332031 Z M 412 327 "/>
</clipPath>
<clipPath id="clip-4">
<path clip-rule="nonzero" d="M 239 30.75 L 240 30.75 L 240 364.667969 L 239 364.667969 Z M 239 30.75 "/>
</clipPath>
<clipPath id="clip-5">
<path clip-rule="nonzero" d="M 315 30.75 L 317 30.75 L 317 364.667969 L 315 364.667969 Z M 315 30.75 "/>
</clipPath>
</defs>
<g clip-path="url(#clip-0)">
<path fill-rule="nonzero" fill="rgb(100%, 100%, 100%)" fill-opacity="1" d="M 0 409.699219 L 492 409.699219 L 492 0 L 0 0 Z M 0 409.699219 "/>
</g>
<path fill-rule="evenodd" fill="rgb(100%, 100%, 100%)" fill-opacity="1" d="M 64 364.582031 L 445.667969 364.582031 L 445.667969 30.667969 L 64 30.667969 Z M 64 364.582031 "/>
<path fill="none" stroke-width="5" stroke-linecap="butt" stroke-linejoin="round" stroke="rgb(100%, 100%, 100%)" stroke-opacity="1" stroke-miterlimit="10" d="M 640 454.179688 L 640 3793.320312 L 4456.679688 3793.320312 L 4456.679688 454.179688 L 640 454.179688 " transform="matrix(0.1, 0, 0, -0.1, 0, 410)"/>
<path fill="none" stroke-width="5" stroke-linecap="butt" stroke-linejoin="round" stroke="rgb(0%, 0%, 0%)" stroke-opacity="1" stroke-miterlimit="10" d="M 640 3793.320312 L 4456.679688 3793.320312 " transform="matrix(0.1, 0, 0, -0.1, 0, 410)"/>
<path fill="none" stroke-width="5" stroke-linecap="butt" stroke-linejoin="round" stroke="rgb(0%, 0%, 0%)" stroke-opacity="1" stroke-miterlimit="10" d="M 640 454.179688 L 4456.679688 454.179688 " transform="matrix(0.1, 0, 0, -0.1, 0, 410)"/>
<path fill="none" stroke-width="5" stroke-linecap="butt" stroke-linejoin="round" stroke="rgb(0%, 0%, 0%)" stroke-opacity="1" stroke-miterlimit="10" d="M 4456.679688 454.179688 L 4456.679688 3793.320312 " transform="matrix(0.1, 0, 0, -0.1, 0, 410)"/>
<path fill="none" stroke-width="5" stroke-linecap="butt" stroke-linejoin="round" stroke="rgb(0%, 0%, 0%)" stroke-opacity="1" stroke-miterlimit="10" d="M 640 454.179688 L 640 3793.320312 " transform="matrix(0.1, 0, 0, -0.1, 0, 410)"/>
<path fill="none" stroke-width="5" stroke-linecap="butt" stroke-linejoin="round" stroke="rgb(0%, 0%, 0%)" stroke-opacity="1" stroke-miterlimit="10" d="M 640 454.179688 L 4456.679688 454.179688 " transform="matrix(0.1, 0, 0, -0.1, 0, 410)"/>
<path fill="none" stroke-width="5" stroke-linecap="butt" stroke-linejoin="round" stroke="rgb(0%, 0%, 0%)" stroke-opacity="1" stroke-miterlimit="10" d="M 640 454.179688 L 640 3793.320312 " transform="matrix(0.1, 0, 0, -0.1, 0, 410)"/>
<path fill="none" stroke-width="5" stroke-linecap="butt" stroke-linejoin="round" stroke="rgb(0%, 0%, 0%)" stroke-opacity="1" stroke-miterlimit="10" d="M 640 454.179688 L 640 473.320312 " transform="matrix(0.1, 0, 0, -0.1, 0, 410)"/>
<path fill="none" stroke-width="5" stroke-linecap="butt" stroke-linejoin="round" stroke="rgb(0%, 0%, 0%)" stroke-opacity="1" stroke-miterlimit="10" d="M 640 3792.5 L 640 3774.179688 " transform="matrix(0.1, 0, 0, -0.1, 0, 410)"/>
<path fill="none" stroke-width="5" stroke-linecap="butt" stroke-linejoin="round" stroke="rgb(0%, 0%, 0%)" stroke-opacity="1" stroke-miterlimit="10" d="M 640 454.179688 L 640 492.5 " transform="matrix(0.1, 0, 0, -0.1, 0, 410)"/>
<path fill="none" stroke-width="5" stroke-linecap="butt" stroke-linejoin="round" stroke="rgb(0%, 0%, 0%)" stroke-opacity="1" stroke-miterlimit="10" d="M 640 3792.5 L 640 3755 " transform="matrix(0.1, 0, 0, -0.1, 0, 410)"/>
<g fill="rgb(0%, 0%, 0%)" fill-opacity="1">
<use xlink:href="#glyph-0-0" x="53.6668" y="384.75"/>
<use xlink:href="#glyph-0-1" x="61.4508" y="384.75"/>
</g>
<g fill="rgb(0%, 0%, 0%)" fill-opacity="1">
<use xlink:href="#glyph-1-0" x="69.1668" y="376.0832"/>
</g>
<path fill="none" stroke-width="5" stroke-linecap="butt" stroke-linejoin="round" stroke="rgb(0%, 0%, 0%)" stroke-opacity="1" stroke-miterlimit="10" d="M 869.179688 454.179688 L 869.179688 473.320312 " transform="matrix(0.1, 0, 0, -0.1, 0, 410)"/>
<path fill="none" stroke-width="5" stroke-linecap="butt" stroke-linejoin="round" stroke="rgb(0%, 0%, 0%)" stroke-opacity="1" stroke-miterlimit="10" d="M 869.179688 3792.5 L 869.179688 3774.179688 " transform="matrix(0.1, 0, 0, -0.1, 0, 410)"/>
<path fill="none" stroke-width="5" stroke-linecap="butt" stroke-linejoin="round" stroke="rgb(0%, 0%, 0%)" stroke-opacity="1" stroke-miterlimit="10" d="M 1004.179688 454.179688 L 1004.179688 473.320312 " transform="matrix(0.1, 0, 0, -0.1, 0, 410)"/>
<path fill="none" stroke-width="5" stroke-linecap="butt" stroke-linejoin="round" stroke="rgb(0%, 0%, 0%)" stroke-opacity="1" stroke-miterlimit="10" d="M 1004.179688 3792.5 L 1004.179688 3774.179688 " transform="matrix(0.1, 0, 0, -0.1, 0, 410)"/>
<path fill="none" stroke-width="5" stroke-linecap="butt" stroke-linejoin="round" stroke="rgb(0%, 0%, 0%)" stroke-opacity="1" stroke-miterlimit="10" d="M 1099.179688 454.179688 L 1099.179688 473.320312 " transform="matrix(0.1, 0, 0, -0.1, 0, 410)"/>
<path fill="none" stroke-width="5" stroke-linecap="butt" stroke-linejoin="round" stroke="rgb(0%, 0%, 0%)" stroke-opacity="1" stroke-miterlimit="10" d="M 1099.179688 3792.5 L 1099.179688 3774.179688 " transform="matrix(0.1, 0, 0, -0.1, 0, 410)"/>
<path fill="none" stroke-width="5" stroke-linecap="butt" stroke-linejoin="round" stroke="rgb(0%, 0%, 0%)" stroke-opacity="1" stroke-miterlimit="10" d="M 1173.320312 454.179688 L 1173.320312 473.320312 " transform="matrix(0.1, 0, 0, -0.1, 0, 410)"/>
<path fill="none" stroke-width="5" stroke-linecap="butt" stroke-linejoin="round" stroke="rgb(0%, 0%, 0%)" stroke-opacity="1" stroke-miterlimit="10" d="M 1173.320312 3792.5 L 1173.320312 3774.179688 " transform="matrix(0.1, 0, 0, -0.1, 0, 410)"/>
<path fill="none" stroke-width="5" stroke-linecap="butt" stroke-linejoin="round" stroke="rgb(0%, 0%, 0%)" stroke-opacity="1" stroke-miterlimit="10" d="M 1233.320312 454.179688 L 1233.320312 473.320312 " transform="matrix(0.1, 0, 0, -0.1, 0, 410)"/>
<path fill="none" stroke-width="5" stroke-linecap="butt" stroke-linejoin="round" stroke="rgb(0%, 0%, 0%)" stroke-opacity="1" stroke-miterlimit="10" d="M 1233.320312 3792.5 L 1233.320312 3774.179688 " transform="matrix(0.1, 0, 0, -0.1, 0, 410)"/>
<path fill="none" stroke-width="5" stroke-linecap="butt" stroke-linejoin="round" stroke="rgb(0%, 0%, 0%)" stroke-opacity="1" stroke-miterlimit="10" d="M 1285 454.179688 L 1285 473.320312 " transform="matrix(0.1, 0, 0, -0.1, 0, 410)"/>
<path fill="none" stroke-width="5" stroke-linecap="butt" stroke-linejoin="round" stroke="rgb(0%, 0%, 0%)" stroke-opacity="1" stroke-miterlimit="10" d="M 1285 3792.5 L 1285 3774.179688 " transform="matrix(0.1, 0, 0, -0.1, 0, 410)"/>
<path fill="none" stroke-width="5" stroke-linecap="butt" stroke-linejoin="round" stroke="rgb(0%, 0%, 0%)" stroke-opacity="1" stroke-miterlimit="10" d="M 1329.179688 454.179688 L 1329.179688 473.320312 " transform="matrix(0.1, 0, 0, -0.1, 0, 410)"/>
<path fill="none" stroke-width="5" stroke-linecap="butt" stroke-linejoin="round" stroke="rgb(0%, 0%, 0%)" stroke-opacity="1" stroke-miterlimit="10" d="M 1329.179688 3792.5 L 1329.179688 3774.179688 " transform="matrix(0.1, 0, 0, -0.1, 0, 410)"/>
<path fill="none" stroke-width="5" stroke-linecap="butt" stroke-linejoin="round" stroke="rgb(0%, 0%, 0%)" stroke-opacity="1" stroke-miterlimit="10" d="M 1368.320312 454.179688 L 1368.320312 473.320312 " transform="matrix(0.1, 0, 0, -0.1, 0, 410)"/>
<path fill="none" stroke-width="5" stroke-linecap="butt" stroke-linejoin="round" stroke="rgb(0%, 0%, 0%)" stroke-opacity="1" stroke-miterlimit="10" d="M 1368.320312 3792.5 L 1368.320312 3774.179688 " transform="matrix(0.1, 0, 0, -0.1, 0, 410)"/>
<path fill="none" stroke-width="5" stroke-linecap="butt" stroke-linejoin="round" stroke="rgb(0%, 0%, 0%)" stroke-opacity="1" stroke-miterlimit="10" d="M 1403.320312 454.179688 L 1403.320312 473.320312 " transform="matrix(0.1, 0, 0, -0.1, 0, 410)"/>
<path fill="none" stroke-width="5" stroke-linecap="butt" stroke-linejoin="round" stroke="rgb(0%, 0%, 0%)" stroke-opacity="1" stroke-miterlimit="10" d="M 1403.320312 3792.5 L 1403.320312 3774.179688 " transform="matrix(0.1, 0, 0, -0.1, 0, 410)"/>
<path fill="none" stroke-width="5" stroke-linecap="butt" stroke-linejoin="round" stroke="rgb(0%, 0%, 0%)" stroke-opacity="1" stroke-miterlimit="10" d="M 1403.320312 454.179688 L 1403.320312 492.5 " transform="matrix(0.1, 0, 0, -0.1, 0, 410)"/>
<path fill="none" stroke-width="5" stroke-linecap="butt" stroke-linejoin="round" stroke="rgb(0%, 0%, 0%)" stroke-opacity="1" stroke-miterlimit="10" d="M 1403.320312 3792.5 L 1403.320312 3755 " transform="matrix(0.1, 0, 0, -0.1, 0, 410)"/>
<g fill="rgb(0%, 0%, 0%)" fill-opacity="1">
<use xlink:href="#glyph-0-0" x="130" y="384.75"/>
<use xlink:href="#glyph-0-1" x="137.784" y="384.75"/>
</g>
<g fill="rgb(0%, 0%, 0%)" fill-opacity="1">
<use xlink:href="#glyph-1-1" x="145.5" y="376.0832"/>
</g>
<path fill="none" stroke-width="5" stroke-linecap="butt" stroke-linejoin="round" stroke="rgb(0%, 0%, 0%)" stroke-opacity="1" stroke-miterlimit="10" d="M 1632.5 454.179688 L 1632.5 473.320312 " transform="matrix(0.1, 0, 0, -0.1, 0, 410)"/>
<path fill="none" stroke-width="5" stroke-linecap="butt" stroke-linejoin="round" stroke="rgb(0%, 0%, 0%)" stroke-opacity="1" stroke-miterlimit="10" d="M 1632.5 3792.5 L 1632.5 3774.179688 " transform="matrix(0.1, 0, 0, -0.1, 0, 410)"/>
<path fill="none" stroke-width="5" stroke-linecap="butt" stroke-linejoin="round" stroke="rgb(0%, 0%, 0%)" stroke-opacity="1" stroke-miterlimit="10" d="M 1767.5 454.179688 L 1767.5 473.320312 " transform="matrix(0.1, 0, 0, -0.1, 0, 410)"/>
<path fill="none" stroke-width="5" stroke-linecap="butt" stroke-linejoin="round" stroke="rgb(0%, 0%, 0%)" stroke-opacity="1" stroke-miterlimit="10" d="M 1767.5 3792.5 L 1767.5 3774.179688 " transform="matrix(0.1, 0, 0, -0.1, 0, 410)"/>
<path fill="none" stroke-width="5" stroke-linecap="butt" stroke-linejoin="round" stroke="rgb(0%, 0%, 0%)" stroke-opacity="1" stroke-miterlimit="10" d="M 1862.5 454.179688 L 1862.5 473.320312 " transform="matrix(0.1, 0, 0, -0.1, 0, 410)"/>
<path fill="none" stroke-width="5" stroke-linecap="butt" stroke-linejoin="round" stroke="rgb(0%, 0%, 0%)" stroke-opacity="1" stroke-miterlimit="10" d="M 1862.5 3792.5 L 1862.5 3774.179688 " transform="matrix(0.1, 0, 0, -0.1, 0, 410)"/>
<path fill="none" stroke-width="5" stroke-linecap="butt" stroke-linejoin="round" stroke="rgb(0%, 0%, 0%)" stroke-opacity="1" stroke-miterlimit="10" d="M 1936.679688 454.179688 L 1936.679688 473.320312 " transform="matrix(0.1, 0, 0, -0.1, 0, 410)"/>
<path fill="none" stroke-width="5" stroke-linecap="butt" stroke-linejoin="round" stroke="rgb(0%, 0%, 0%)" stroke-opacity="1" stroke-miterlimit="10" d="M 1936.679688 3792.5 L 1936.679688 3774.179688 " transform="matrix(0.1, 0, 0, -0.1, 0, 410)"/>
<path fill="none" stroke-width="5" stroke-linecap="butt" stroke-linejoin="round" stroke="rgb(0%, 0%, 0%)" stroke-opacity="1" stroke-miterlimit="10" d="M 1996.679688 454.179688 L 1996.679688 473.320312 " transform="matrix(0.1, 0, 0, -0.1, 0, 410)"/>
<path fill="none" stroke-width="5" stroke-linecap="butt" stroke-linejoin="round" stroke="rgb(0%, 0%, 0%)" stroke-opacity="1" stroke-miterlimit="10" d="M 1996.679688 3792.5 L 1996.679688 3774.179688 " transform="matrix(0.1, 0, 0, -0.1, 0, 410)"/>
<path fill="none" stroke-width="5" stroke-linecap="butt" stroke-linejoin="round" stroke="rgb(0%, 0%, 0%)" stroke-opacity="1" stroke-miterlimit="10" d="M 2048.320312 454.179688 L 2048.320312 473.320312 " transform="matrix(0.1, 0, 0, -0.1, 0, 410)"/>
<path fill="none" stroke-width="5" stroke-linecap="butt" stroke-linejoin="round" stroke="rgb(0%, 0%, 0%)" stroke-opacity="1" stroke-miterlimit="10" d="M 2048.320312 3792.5 L 2048.320312 3774.179688 " transform="matrix(0.1, 0, 0, -0.1, 0, 410)"/>
<path fill="none" stroke-width="5" stroke-linecap="butt" stroke-linejoin="round" stroke="rgb(0%, 0%, 0%)" stroke-opacity="1" stroke-miterlimit="10" d="M 2092.5 454.179688 L 2092.5 473.320312 " transform="matrix(0.1, 0, 0, -0.1, 0, 410)"/>
<path fill="none" stroke-width="5" stroke-linecap="butt" stroke-linejoin="round" stroke="rgb(0%, 0%, 0%)" stroke-opacity="1" stroke-miterlimit="10" d="M 2092.5 3792.5 L 2092.5 3774.179688 " transform="matrix(0.1, 0, 0, -0.1, 0, 410)"/>
<path fill="none" stroke-width="5" stroke-linecap="butt" stroke-linejoin="round" stroke="rgb(0%, 0%, 0%)" stroke-opacity="1" stroke-miterlimit="10" d="M 2131.679688 454.179688 L 2131.679688 473.320312 " transform="matrix(0.1, 0, 0, -0.1, 0, 410)"/>
<path fill="none" stroke-width="5" stroke-linecap="butt" stroke-linejoin="round" stroke="rgb(0%, 0%, 0%)" stroke-opacity="1" stroke-miterlimit="10" d="M 2131.679688 3792.5 L 2131.679688 3774.179688 " transform="matrix(0.1, 0, 0, -0.1, 0, 410)"/>
<path fill="none" stroke-width="5" stroke-linecap="butt" stroke-linejoin="round" stroke="rgb(0%, 0%, 0%)" stroke-opacity="1" stroke-miterlimit="10" d="M 2166.679688 454.179688 L 2166.679688 473.320312 " transform="matrix(0.1, 0, 0, -0.1, 0, 410)"/>
<path fill="none" stroke-width="5" stroke-linecap="butt" stroke-linejoin="round" stroke="rgb(0%, 0%, 0%)" stroke-opacity="1" stroke-miterlimit="10" d="M 2166.679688 3792.5 L 2166.679688 3774.179688 " transform="matrix(0.1, 0, 0, -0.1, 0, 410)"/>
<path fill="none" stroke-width="5" stroke-linecap="butt" stroke-linejoin="round" stroke="rgb(0%, 0%, 0%)" stroke-opacity="1" stroke-miterlimit="10" d="M 2166.679688 454.179688 L 2166.679688 492.5 " transform="matrix(0.1, 0, 0, -0.1, 0, 410)"/>
<path fill="none" stroke-width="5" stroke-linecap="butt" stroke-linejoin="round" stroke="rgb(0%, 0%, 0%)" stroke-opacity="1" stroke-miterlimit="10" d="M 2166.679688 3792.5 L 2166.679688 3755 " transform="matrix(0.1, 0, 0, -0.1, 0, 410)"/>
<g fill="rgb(0%, 0%, 0%)" fill-opacity="1">
<use xlink:href="#glyph-0-0" x="206.333" y="384.75"/>
<use xlink:href="#glyph-0-1" x="214.117" y="384.75"/>
</g>
<g fill="rgb(0%, 0%, 0%)" fill-opacity="1">
<use xlink:href="#glyph-1-2" x="221.833" y="376.0832"/>
</g>
<path fill="none" stroke-width="5" stroke-linecap="butt" stroke-linejoin="round" stroke="rgb(0%, 0%, 0%)" stroke-opacity="1" stroke-miterlimit="10" d="M 2395.820312 454.179688 L 2395.820312 473.320312 " transform="matrix(0.1, 0, 0, -0.1, 0, 410)"/>
<path fill="none" stroke-width="5" stroke-linecap="butt" stroke-linejoin="round" stroke="rgb(0%, 0%, 0%)" stroke-opacity="1" stroke-miterlimit="10" d="M 2395.820312 3792.5 L 2395.820312 3774.179688 " transform="matrix(0.1, 0, 0, -0.1, 0, 410)"/>
<path fill="none" stroke-width="5" stroke-linecap="butt" stroke-linejoin="round" stroke="rgb(0%, 0%, 0%)" stroke-opacity="1" stroke-miterlimit="10" d="M 2530.820312 454.179688 L 2530.820312 473.320312 " transform="matrix(0.1, 0, 0, -0.1, 0, 410)"/>
<path fill="none" stroke-width="5" stroke-linecap="butt" stroke-linejoin="round" stroke="rgb(0%, 0%, 0%)" stroke-opacity="1" stroke-miterlimit="10" d="M 2530.820312 3792.5 L 2530.820312 3774.179688 " transform="matrix(0.1, 0, 0, -0.1, 0, 410)"/>
<path fill="none" stroke-width="5" stroke-linecap="butt" stroke-linejoin="round" stroke="rgb(0%, 0%, 0%)" stroke-opacity="1" stroke-miterlimit="10" d="M 2625.820312 454.179688 L 2625.820312 473.320312 " transform="matrix(0.1, 0, 0, -0.1, 0, 410)"/>
<path fill="none" stroke-width="5" stroke-linecap="butt" stroke-linejoin="round" stroke="rgb(0%, 0%, 0%)" stroke-opacity="1" stroke-miterlimit="10" d="M 2625.820312 3792.5 L 2625.820312 3774.179688 " transform="matrix(0.1, 0, 0, -0.1, 0, 410)"/>
<path fill="none" stroke-width="5" stroke-linecap="butt" stroke-linejoin="round" stroke="rgb(0%, 0%, 0%)" stroke-opacity="1" stroke-miterlimit="10" d="M 2700 454.179688 L 2700 473.320312 " transform="matrix(0.1, 0, 0, -0.1, 0, 410)"/>
<path fill="none" stroke-width="5" stroke-linecap="butt" stroke-linejoin="round" stroke="rgb(0%, 0%, 0%)" stroke-opacity="1" stroke-miterlimit="10" d="M 2700 3792.5 L 2700 3774.179688 " transform="matrix(0.1, 0, 0, -0.1, 0, 410)"/>
<path fill="none" stroke-width="5" stroke-linecap="butt" stroke-linejoin="round" stroke="rgb(0%, 0%, 0%)" stroke-opacity="1" stroke-miterlimit="10" d="M 2760 454.179688 L 2760 473.320312 " transform="matrix(0.1, 0, 0, -0.1, 0, 410)"/>
<path fill="none" stroke-width="5" stroke-linecap="butt" stroke-linejoin="round" stroke="rgb(0%, 0%, 0%)" stroke-opacity="1" stroke-miterlimit="10" d="M 2760 3792.5 L 2760 3774.179688 " transform="matrix(0.1, 0, 0, -0.1, 0, 410)"/>
<path fill="none" stroke-width="5" stroke-linecap="butt" stroke-linejoin="round" stroke="rgb(0%, 0%, 0%)" stroke-opacity="1" stroke-miterlimit="10" d="M 2811.679688 454.179688 L 2811.679688 473.320312 " transform="matrix(0.1, 0, 0, -0.1, 0, 410)"/>
<path fill="none" stroke-width="5" stroke-linecap="butt" stroke-linejoin="round" stroke="rgb(0%, 0%, 0%)" stroke-opacity="1" stroke-miterlimit="10" d="M 2811.679688 3792.5 L 2811.679688 3774.179688 " transform="matrix(0.1, 0, 0, -0.1, 0, 410)"/>
<path fill="none" stroke-width="5" stroke-linecap="butt" stroke-linejoin="round" stroke="rgb(0%, 0%, 0%)" stroke-opacity="1" stroke-miterlimit="10" d="M 2855.820312 454.179688 L 2855.820312 473.320312 " transform="matrix(0.1, 0, 0, -0.1, 0, 410)"/>
<path fill="none" stroke-width="5" stroke-linecap="butt" stroke-linejoin="round" stroke="rgb(0%, 0%, 0%)" stroke-opacity="1" stroke-miterlimit="10" d="M 2855.820312 3792.5 L 2855.820312 3774.179688 " transform="matrix(0.1, 0, 0, -0.1, 0, 410)"/>
<path fill="none" stroke-width="5" stroke-linecap="butt" stroke-linejoin="round" stroke="rgb(0%, 0%, 0%)" stroke-opacity="1" stroke-miterlimit="10" d="M 2895 454.179688 L 2895 473.320312 " transform="matrix(0.1, 0, 0, -0.1, 0, 410)"/>
<path fill="none" stroke-width="5" stroke-linecap="butt" stroke-linejoin="round" stroke="rgb(0%, 0%, 0%)" stroke-opacity="1" stroke-miterlimit="10" d="M 2895 3792.5 L 2895 3774.179688 " transform="matrix(0.1, 0, 0, -0.1, 0, 410)"/>
<path fill="none" stroke-width="5" stroke-linecap="butt" stroke-linejoin="round" stroke="rgb(0%, 0%, 0%)" stroke-opacity="1" stroke-miterlimit="10" d="M 2930 454.179688 L 2930 473.320312 " transform="matrix(0.1, 0, 0, -0.1, 0, 410)"/>
<path fill="none" stroke-width="5" stroke-linecap="butt" stroke-linejoin="round" stroke="rgb(0%, 0%, 0%)" stroke-opacity="1" stroke-miterlimit="10" d="M 2930 3792.5 L 2930 3774.179688 " transform="matrix(0.1, 0, 0, -0.1, 0, 410)"/>
<path fill="none" stroke-width="5" stroke-linecap="butt" stroke-linejoin="round" stroke="rgb(0%, 0%, 0%)" stroke-opacity="1" stroke-miterlimit="10" d="M 2930 454.179688 L 2930 492.5 " transform="matrix(0.1, 0, 0, -0.1, 0, 410)"/>
<path fill="none" stroke-width="5" stroke-linecap="butt" stroke-linejoin="round" stroke="rgb(0%, 0%, 0%)" stroke-opacity="1" stroke-miterlimit="10" d="M 2930 3792.5 L 2930 3755 " transform="matrix(0.1, 0, 0, -0.1, 0, 410)"/>
<g fill="rgb(0%, 0%, 0%)" fill-opacity="1">
<use xlink:href="#glyph-0-0" x="282.667" y="384.75"/>
<use xlink:href="#glyph-0-1" x="290.451" y="384.75"/>
</g>
<g fill="rgb(0%, 0%, 0%)" fill-opacity="1">
<use xlink:href="#glyph-1-3" x="298.167" y="376.0832"/>
</g>
<path fill="none" stroke-width="5" stroke-linecap="butt" stroke-linejoin="round" stroke="rgb(0%, 0%, 0%)" stroke-opacity="1" stroke-miterlimit="10" d="M 3159.179688 454.179688 L 3159.179688 473.320312 " transform="matrix(0.1, 0, 0, -0.1, 0, 410)"/>
<path fill="none" stroke-width="5" stroke-linecap="butt" stroke-linejoin="round" stroke="rgb(0%, 0%, 0%)" stroke-opacity="1" stroke-miterlimit="10" d="M 3159.179688 3792.5 L 3159.179688 3774.179688 " transform="matrix(0.1, 0, 0, -0.1, 0, 410)"/>
<path fill="none" stroke-width="5" stroke-linecap="butt" stroke-linejoin="round" stroke="rgb(0%, 0%, 0%)" stroke-opacity="1" stroke-miterlimit="10" d="M 3294.179688 454.179688 L 3294.179688 473.320312 " transform="matrix(0.1, 0, 0, -0.1, 0, 410)"/>
<path fill="none" stroke-width="5" stroke-linecap="butt" stroke-linejoin="round" stroke="rgb(0%, 0%, 0%)" stroke-opacity="1" stroke-miterlimit="10" d="M 3294.179688 3792.5 L 3294.179688 3774.179688 " transform="matrix(0.1, 0, 0, -0.1, 0, 410)"/>
<path fill="none" stroke-width="5" stroke-linecap="butt" stroke-linejoin="round" stroke="rgb(0%, 0%, 0%)" stroke-opacity="1" stroke-miterlimit="10" d="M 3389.179688 454.179688 L 3389.179688 473.320312 " transform="matrix(0.1, 0, 0, -0.1, 0, 410)"/>
<path fill="none" stroke-width="5" stroke-linecap="butt" stroke-linejoin="round" stroke="rgb(0%, 0%, 0%)" stroke-opacity="1" stroke-miterlimit="10" d="M 3389.179688 3792.5 L 3389.179688 3774.179688 " transform="matrix(0.1, 0, 0, -0.1, 0, 410)"/>
<path fill="none" stroke-width="5" stroke-linecap="butt" stroke-linejoin="round" stroke="rgb(0%, 0%, 0%)" stroke-opacity="1" stroke-miterlimit="10" d="M 3463.320312 454.179688 L 3463.320312 473.320312 " transform="matrix(0.1, 0, 0, -0.1, 0, 410)"/>
<path fill="none" stroke-width="5" stroke-linecap="butt" stroke-linejoin="round" stroke="rgb(0%, 0%, 0%)" stroke-opacity="1" stroke-miterlimit="10" d="M 3463.320312 3792.5 L 3463.320312 3774.179688 " transform="matrix(0.1, 0, 0, -0.1, 0, 410)"/>
<path fill="none" stroke-width="5" stroke-linecap="butt" stroke-linejoin="round" stroke="rgb(0%, 0%, 0%)" stroke-opacity="1" stroke-miterlimit="10" d="M 3523.320312 454.179688 L 3523.320312 473.320312 " transform="matrix(0.1, 0, 0, -0.1, 0, 410)"/>
<path fill="none" stroke-width="5" stroke-linecap="butt" stroke-linejoin="round" stroke="rgb(0%, 0%, 0%)" stroke-opacity="1" stroke-miterlimit="10" d="M 3523.320312 3792.5 L 3523.320312 3774.179688 " transform="matrix(0.1, 0, 0, -0.1, 0, 410)"/>
<path fill="none" stroke-width="5" stroke-linecap="butt" stroke-linejoin="round" stroke="rgb(0%, 0%, 0%)" stroke-opacity="1" stroke-miterlimit="10" d="M 3575 454.179688 L 3575 473.320312 " transform="matrix(0.1, 0, 0, -0.1, 0, 410)"/>
<path fill="none" stroke-width="5" stroke-linecap="butt" stroke-linejoin="round" stroke="rgb(0%, 0%, 0%)" stroke-opacity="1" stroke-miterlimit="10" d="M 3575 3792.5 L 3575 3774.179688 " transform="matrix(0.1, 0, 0, -0.1, 0, 410)"/>
<path fill="none" stroke-width="5" stroke-linecap="butt" stroke-linejoin="round" stroke="rgb(0%, 0%, 0%)" stroke-opacity="1" stroke-miterlimit="10" d="M 3619.179688 454.179688 L 3619.179688 473.320312 " transform="matrix(0.1, 0, 0, -0.1, 0, 410)"/>
<path fill="none" stroke-width="5" stroke-linecap="butt" stroke-linejoin="round" stroke="rgb(0%, 0%, 0%)" stroke-opacity="1" stroke-miterlimit="10" d="M 3619.179688 3792.5 L 3619.179688 3774.179688 " transform="matrix(0.1, 0, 0, -0.1, 0, 410)"/>
<path fill="none" stroke-width="5" stroke-linecap="butt" stroke-linejoin="round" stroke="rgb(0%, 0%, 0%)" stroke-opacity="1" stroke-miterlimit="10" d="M 3658.320312 454.179688 L 3658.320312 473.320312 " transform="matrix(0.1, 0, 0, -0.1, 0, 410)"/>
<path fill="none" stroke-width="5" stroke-linecap="butt" stroke-linejoin="round" stroke="rgb(0%, 0%, 0%)" stroke-opacity="1" stroke-miterlimit="10" d="M 3658.320312 3792.5 L 3658.320312 3774.179688 " transform="matrix(0.1, 0, 0, -0.1, 0, 410)"/>
<path fill="none" stroke-width="5" stroke-linecap="butt" stroke-linejoin="round" stroke="rgb(0%, 0%, 0%)" stroke-opacity="1" stroke-miterlimit="10" d="M 3693.320312 454.179688 L 3693.320312 473.320312 " transform="matrix(0.1, 0, 0, -0.1, 0, 410)"/>
<path fill="none" stroke-width="5" stroke-linecap="butt" stroke-linejoin="round" stroke="rgb(0%, 0%, 0%)" stroke-opacity="1" stroke-miterlimit="10" d="M 3693.320312 3792.5 L 3693.320312 3774.179688 " transform="matrix(0.1, 0, 0, -0.1, 0, 410)"/>
<path fill="none" stroke-width="5" stroke-linecap="butt" stroke-linejoin="round" stroke="rgb(0%, 0%, 0%)" stroke-opacity="1" stroke-miterlimit="10" d="M 3693.320312 454.179688 L 3693.320312 492.5 " transform="matrix(0.1, 0, 0, -0.1, 0, 410)"/>
<path fill="none" stroke-width="5" stroke-linecap="butt" stroke-linejoin="round" stroke="rgb(0%, 0%, 0%)" stroke-opacity="1" stroke-miterlimit="10" d="M 3693.320312 3792.5 L 3693.320312 3755 " transform="matrix(0.1, 0, 0, -0.1, 0, 410)"/>
<g fill="rgb(0%, 0%, 0%)" fill-opacity="1">
<use xlink:href="#glyph-0-0" x="359" y="384.75"/>
<use xlink:href="#glyph-0-1" x="366.784" y="384.75"/>
</g>
<g fill="rgb(0%, 0%, 0%)" fill-opacity="1">
<use xlink:href="#glyph-1-4" x="374.5" y="376.0832"/>
</g>
<path fill="none" stroke-width="5" stroke-linecap="butt" stroke-linejoin="round" stroke="rgb(0%, 0%, 0%)" stroke-opacity="1" stroke-miterlimit="10" d="M 3922.5 454.179688 L 3922.5 473.320312 " transform="matrix(0.1, 0, 0, -0.1, 0, 410)"/>
<path fill="none" stroke-width="5" stroke-linecap="butt" stroke-linejoin="round" stroke="rgb(0%, 0%, 0%)" stroke-opacity="1" stroke-miterlimit="10" d="M 3922.5 3792.5 L 3922.5 3774.179688 " transform="matrix(0.1, 0, 0, -0.1, 0, 410)"/>
<path fill="none" stroke-width="5" stroke-linecap="butt" stroke-linejoin="round" stroke="rgb(0%, 0%, 0%)" stroke-opacity="1" stroke-miterlimit="10" d="M 4057.5 454.179688 L 4057.5 473.320312 " transform="matrix(0.1, 0, 0, -0.1, 0, 410)"/>
<path fill="none" stroke-width="5" stroke-linecap="butt" stroke-linejoin="round" stroke="rgb(0%, 0%, 0%)" stroke-opacity="1" stroke-miterlimit="10" d="M 4057.5 3792.5 L 4057.5 3774.179688 " transform="matrix(0.1, 0, 0, -0.1, 0, 410)"/>
<path fill="none" stroke-width="5" stroke-linecap="butt" stroke-linejoin="round" stroke="rgb(0%, 0%, 0%)" stroke-opacity="1" stroke-miterlimit="10" d="M 4152.5 454.179688 L 4152.5 473.320312 " transform="matrix(0.1, 0, 0, -0.1, 0, 410)"/>
<path fill="none" stroke-width="5" stroke-linecap="butt" stroke-linejoin="round" stroke="rgb(0%, 0%, 0%)" stroke-opacity="1" stroke-miterlimit="10" d="M 4152.5 3792.5 L 4152.5 3774.179688 " transform="matrix(0.1, 0, 0, -0.1, 0, 410)"/>
<path fill="none" stroke-width="5" stroke-linecap="butt" stroke-linejoin="round" stroke="rgb(0%, 0%, 0%)" stroke-opacity="1" stroke-miterlimit="10" d="M 4226.679688 454.179688 L 4226.679688 473.320312 " transform="matrix(0.1, 0, 0, -0.1, 0, 410)"/>
<path fill="none" stroke-width="5" stroke-linecap="butt" stroke-linejoin="round" stroke="rgb(0%, 0%, 0%)" stroke-opacity="1" stroke-miterlimit="10" d="M 4226.679688 3792.5 L 4226.679688 3774.179688 " transform="matrix(0.1, 0, 0, -0.1, 0, 410)"/>
<path fill="none" stroke-width="5" stroke-linecap="butt" stroke-linejoin="round" stroke="rgb(0%, 0%, 0%)" stroke-opacity="1" stroke-miterlimit="10" d="M 4286.679688 454.179688 L 4286.679688 473.320312 " transform="matrix(0.1, 0, 0, -0.1, 0, 410)"/>
<path fill="none" stroke-width="5" stroke-linecap="butt" stroke-linejoin="round" stroke="rgb(0%, 0%, 0%)" stroke-opacity="1" stroke-miterlimit="10" d="M 4286.679688 3792.5 L 4286.679688 3774.179688 " transform="matrix(0.1, 0, 0, -0.1, 0, 410)"/>
<path fill="none" stroke-width="5" stroke-linecap="butt" stroke-linejoin="round" stroke="rgb(0%, 0%, 0%)" stroke-opacity="1" stroke-miterlimit="10" d="M 4338.320312 454.179688 L 4338.320312 473.320312 " transform="matrix(0.1, 0, 0, -0.1, 0, 410)"/>
<path fill="none" stroke-width="5" stroke-linecap="butt" stroke-linejoin="round" stroke="rgb(0%, 0%, 0%)" stroke-opacity="1" stroke-miterlimit="10" d="M 4338.320312 3792.5 L 4338.320312 3774.179688 " transform="matrix(0.1, 0, 0, -0.1, 0, 410)"/>
<path fill="none" stroke-width="5" stroke-linecap="butt" stroke-linejoin="round" stroke="rgb(0%, 0%, 0%)" stroke-opacity="1" stroke-miterlimit="10" d="M 4382.5 454.179688 L 4382.5 473.320312 " transform="matrix(0.1, 0, 0, -0.1, 0, 410)"/>
<path fill="none" stroke-width="5" stroke-linecap="butt" stroke-linejoin="round" stroke="rgb(0%, 0%, 0%)" stroke-opacity="1" stroke-miterlimit="10" d="M 4382.5 3792.5 L 4382.5 3774.179688 " transform="matrix(0.1, 0, 0, -0.1, 0, 410)"/>
<path fill="none" stroke-width="5" stroke-linecap="butt" stroke-linejoin="round" stroke="rgb(0%, 0%, 0%)" stroke-opacity="1" stroke-miterlimit="10" d="M 4421.679688 454.179688 L 4421.679688 473.320312 " transform="matrix(0.1, 0, 0, -0.1, 0, 410)"/>
<path fill="none" stroke-width="5" stroke-linecap="butt" stroke-linejoin="round" stroke="rgb(0%, 0%, 0%)" stroke-opacity="1" stroke-miterlimit="10" d="M 4421.679688 3792.5 L 4421.679688 3774.179688 " transform="matrix(0.1, 0, 0, -0.1, 0, 410)"/>
<path fill="none" stroke-width="5" stroke-linecap="butt" stroke-linejoin="round" stroke="rgb(0%, 0%, 0%)" stroke-opacity="1" stroke-miterlimit="10" d="M 4456.679688 454.179688 L 4456.679688 473.320312 " transform="matrix(0.1, 0, 0, -0.1, 0, 410)"/>
<path fill="none" stroke-width="5" stroke-linecap="butt" stroke-linejoin="round" stroke="rgb(0%, 0%, 0%)" stroke-opacity="1" stroke-miterlimit="10" d="M 4456.679688 3792.5 L 4456.679688 3774.179688 " transform="matrix(0.1, 0, 0, -0.1, 0, 410)"/>
<path fill="none" stroke-width="5" stroke-linecap="butt" stroke-linejoin="round" stroke="rgb(0%, 0%, 0%)" stroke-opacity="1" stroke-miterlimit="10" d="M 4456.679688 454.179688 L 4456.679688 492.5 " transform="matrix(0.1, 0, 0, -0.1, 0, 410)"/>
<path fill="none" stroke-width="5" stroke-linecap="butt" stroke-linejoin="round" stroke="rgb(0%, 0%, 0%)" stroke-opacity="1" stroke-miterlimit="10" d="M 4456.679688 3792.5 L 4456.679688 3755 " transform="matrix(0.1, 0, 0, -0.1, 0, 410)"/>
<g fill="rgb(0%, 0%, 0%)" fill-opacity="1">
<use xlink:href="#glyph-0-0" x="435.333" y="384.75"/>
<use xlink:href="#glyph-0-1" x="443.117" y="384.75"/>
</g>
<g fill="rgb(0%, 0%, 0%)" fill-opacity="1">
<use xlink:href="#glyph-1-5" x="450.833" y="376.0832"/>
</g>
<path fill="none" stroke-width="5" stroke-linecap="butt" stroke-linejoin="round" stroke="rgb(0%, 0%, 0%)" stroke-opacity="1" stroke-miterlimit="10" d="M 640 454.179688 L 677.5 454.179688 " transform="matrix(0.1, 0, 0, -0.1, 0, 410)"/>
<path fill="none" stroke-width="5" stroke-linecap="butt" stroke-linejoin="round" stroke="rgb(0%, 0%, 0%)" stroke-opacity="1" stroke-miterlimit="10" d="M 4456.679688 454.179688 L 4418.320312 454.179688 " transform="matrix(0.1, 0, 0, -0.1, 0, 410)"/>
<g fill="rgb(0%, 0%, 0%)" fill-opacity="1">
<use xlink:href="#glyph-0-1" x="53.3332" y="369.75"/>
</g>
<path fill="none" stroke-width="5" stroke-linecap="butt" stroke-linejoin="round" stroke="rgb(0%, 0%, 0%)" stroke-opacity="1" stroke-miterlimit="10" d="M 640 931.679688 L 677.5 931.679688 " transform="matrix(0.1, 0, 0, -0.1, 0, 410)"/>
<path fill="none" stroke-width="5" stroke-linecap="butt" stroke-linejoin="round" stroke="rgb(0%, 0%, 0%)" stroke-opacity="1" stroke-miterlimit="10" d="M 4456.679688 931.679688 L 4418.320312 931.679688 " transform="matrix(0.1, 0, 0, -0.1, 0, 410)"/>
<g fill="rgb(0%, 0%, 0%)" fill-opacity="1">
<use xlink:href="#glyph-0-1" x="41.6668" y="322"/>
<use xlink:href="#glyph-0-2" x="49.4508" y="322"/>
<use xlink:href="#glyph-0-3" x="53.3428" y="322"/>
</g>
<path fill="none" stroke-width="5" stroke-linecap="butt" stroke-linejoin="round" stroke="rgb(0%, 0%, 0%)" stroke-opacity="1" stroke-miterlimit="10" d="M 640 1408.320312 L 677.5 1408.320312 " transform="matrix(0.1, 0, 0, -0.1, 0, 410)"/>
<path fill="none" stroke-width="5" stroke-linecap="butt" stroke-linejoin="round" stroke="rgb(0%, 0%, 0%)" stroke-opacity="1" stroke-miterlimit="10" d="M 4456.679688 1408.320312 L 4418.320312 1408.320312 " transform="matrix(0.1, 0, 0, -0.1, 0, 410)"/>
<g fill="rgb(0%, 0%, 0%)" fill-opacity="1">
<use xlink:href="#glyph-0-0" x="53.3332" y="274.333"/>
</g>
<path fill="none" stroke-width="5" stroke-linecap="butt" stroke-linejoin="round" stroke="rgb(0%, 0%, 0%)" stroke-opacity="1" stroke-miterlimit="10" d="M 640 1885 L 677.5 1885 " transform="matrix(0.1, 0, 0, -0.1, 0, 410)"/>
<path fill="none" stroke-width="5" stroke-linecap="butt" stroke-linejoin="round" stroke="rgb(0%, 0%, 0%)" stroke-opacity="1" stroke-miterlimit="10" d="M 4456.679688 1885 L 4418.320312 1885 " transform="matrix(0.1, 0, 0, -0.1, 0, 410)"/>
<g fill="rgb(0%, 0%, 0%)" fill-opacity="1">
<use xlink:href="#glyph-0-0" x="41.6668" y="226.667"/>
<use xlink:href="#glyph-0-2" x="49.4508" y="226.667"/>
<use xlink:href="#glyph-0-3" x="53.3428" y="226.667"/>
</g>
<path fill="none" stroke-width="5" stroke-linecap="butt" stroke-linejoin="round" stroke="rgb(0%, 0%, 0%)" stroke-opacity="1" stroke-miterlimit="10" d="M 640 2362.5 L 677.5 2362.5 " transform="matrix(0.1, 0, 0, -0.1, 0, 410)"/>
<path fill="none" stroke-width="5" stroke-linecap="butt" stroke-linejoin="round" stroke="rgb(0%, 0%, 0%)" stroke-opacity="1" stroke-miterlimit="10" d="M 4456.679688 2362.5 L 4418.320312 2362.5 " transform="matrix(0.1, 0, 0, -0.1, 0, 410)"/>
<g fill="rgb(0%, 0%, 0%)" fill-opacity="1">
<use xlink:href="#glyph-0-4" x="53.3332" y="178.917"/>
</g>
<path fill="none" stroke-width="5" stroke-linecap="butt" stroke-linejoin="round" stroke="rgb(0%, 0%, 0%)" stroke-opacity="1" stroke-miterlimit="10" d="M 640 2839.179688 L 677.5 2839.179688 " transform="matrix(0.1, 0, 0, -0.1, 0, 410)"/>
<path fill="none" stroke-width="5" stroke-linecap="butt" stroke-linejoin="round" stroke="rgb(0%, 0%, 0%)" stroke-opacity="1" stroke-miterlimit="10" d="M 4456.679688 2839.179688 L 4418.320312 2839.179688 " transform="matrix(0.1, 0, 0, -0.1, 0, 410)"/>
<g fill="rgb(0%, 0%, 0%)" fill-opacity="1">
<use xlink:href="#glyph-0-4" x="41.6668" y="131.25"/>
<use xlink:href="#glyph-0-2" x="49.4508" y="131.25"/>
<use xlink:href="#glyph-0-3" x="53.3428" y="131.25"/>
</g>
<path fill="none" stroke-width="5" stroke-linecap="butt" stroke-linejoin="round" stroke="rgb(0%, 0%, 0%)" stroke-opacity="1" stroke-miterlimit="10" d="M 640 3315.820312 L 677.5 3315.820312 " transform="matrix(0.1, 0, 0, -0.1, 0, 410)"/>
<path fill="none" stroke-width="5" stroke-linecap="butt" stroke-linejoin="round" stroke="rgb(0%, 0%, 0%)" stroke-opacity="1" stroke-miterlimit="10" d="M 4456.679688 3315.820312 L 4418.320312 3315.820312 " transform="matrix(0.1, 0, 0, -0.1, 0, 410)"/>
<g fill="rgb(0%, 0%, 0%)" fill-opacity="1">
<use xlink:href="#glyph-0-5" x="53.3332" y="83.583"/>
</g>
<path fill="none" stroke-width="5" stroke-linecap="butt" stroke-linejoin="round" stroke="rgb(0%, 0%, 0%)" stroke-opacity="1" stroke-miterlimit="10" d="M 640 3792.5 L 677.5 3792.5 " transform="matrix(0.1, 0, 0, -0.1, 0, 410)"/>
<path fill="none" stroke-width="5" stroke-linecap="butt" stroke-linejoin="round" stroke="rgb(0%, 0%, 0%)" stroke-opacity="1" stroke-miterlimit="10" d="M 4456.679688 3792.5 L 4418.320312 3792.5 " transform="matrix(0.1, 0, 0, -0.1, 0, 410)"/>
<g fill="rgb(0%, 0%, 0%)" fill-opacity="1">
<use xlink:href="#glyph-0-5" x="41.6668" y="35.917"/>
<use xlink:href="#glyph-0-2" x="49.4508" y="35.917"/>
<use xlink:href="#glyph-0-3" x="53.3428" y="35.917"/>
</g>
<g fill="rgb(0%, 0%, 0%)" fill-opacity="1">
<use xlink:href="#glyph-0-6" x="64" y="26.2502"/>
<use xlink:href="#glyph-0-7" x="71" y="26.2502"/>
<use xlink:href="#glyph-0-0" x="74.892" y="26.2502"/>
<use xlink:href="#glyph-0-1" x="82.676" y="26.2502"/>
</g>
<g fill="rgb(0%, 0%, 0%)" fill-opacity="1">
<use xlink:href="#glyph-1-5" x="90.4168" y="17.5834"/>
</g>
<path fill="none" stroke-width="5" stroke-linecap="butt" stroke-linejoin="round" stroke="rgb(0%, 0%, 0%)" stroke-opacity="1" stroke-miterlimit="10" d="M 640 3793.320312 L 4456.679688 3793.320312 " transform="matrix(0.1, 0, 0, -0.1, 0, 410)"/>
<path fill="none" stroke-width="5" stroke-linecap="butt" stroke-linejoin="round" stroke="rgb(0%, 0%, 0%)" stroke-opacity="1" stroke-miterlimit="10" d="M 640 454.179688 L 4456.679688 454.179688 " transform="matrix(0.1, 0, 0, -0.1, 0, 410)"/>
<path fill="none" stroke-width="5" stroke-linecap="butt" stroke-linejoin="round" stroke="rgb(0%, 0%, 0%)" stroke-opacity="1" stroke-miterlimit="10" d="M 4456.679688 454.179688 L 4456.679688 3793.320312 " transform="matrix(0.1, 0, 0, -0.1, 0, 410)"/>
<path fill="none" stroke-width="5" stroke-linecap="butt" stroke-linejoin="round" stroke="rgb(0%, 0%, 0%)" stroke-opacity="1" stroke-miterlimit="10" d="M 640 454.179688 L 640 3793.320312 " transform="matrix(0.1, 0, 0, -0.1, 0, 410)"/>
<path fill-rule="evenodd" fill="rgb(0%, 0%, 0%)" fill-opacity="1" d="M 64 80.667969 L 67.417969 74.75 L 60.582031 74.75 Z M 64 80.667969 "/>
<g clip-path="url(#clip-1)">
<path fill="none" stroke-width="5" stroke-linecap="butt" stroke-linejoin="miter" stroke="rgb(0%, 0%, 0%)" stroke-opacity="1" stroke-miterlimit="10" d="M 640 3293.320312 L 674.179688 3352.5 L 605.820312 3352.5 Z M 640 3293.320312 " transform="matrix(0.1, 0, 0, -0.1, 0, 410)"/>
</g>
<path fill-rule="evenodd" fill="rgb(0%, 0%, 0%)" fill-opacity="1" d="M 140.332031 80.667969 L 143.75 74.75 L 136.917969 74.75 Z M 140.332031 80.667969 "/>
<g clip-path="url(#clip-2)">
<path fill="none" stroke-width="5" stroke-linecap="butt" stroke-linejoin="miter" stroke="rgb(0%, 0%, 0%)" stroke-opacity="1" stroke-miterlimit="10" d="M 1403.320312 3293.320312 L 1437.5 3352.5 L 1369.179688 3352.5 Z M 1403.320312 3293.320312 " transform="matrix(0.1, 0, 0, -0.1, 0, 410)"/>
</g>
<path fill-rule="evenodd" fill="rgb(0%, 0%, 0%)" fill-opacity="1" stroke-width="5" stroke-linecap="butt" stroke-linejoin="miter" stroke="rgb(0%, 0%, 0%)" stroke-opacity="1" stroke-miterlimit="10" d="M 2166.679688 3217.5 L 2200.820312 3276.679688 L 2132.5 3276.679688 Z M 2166.679688 3217.5 " transform="matrix(0.1, 0, 0, -0.1, 0, 410)"/>
<path fill-rule="evenodd" fill="rgb(0%, 0%, 0%)" fill-opacity="1" stroke-width="5" stroke-linecap="butt" stroke-linejoin="miter" stroke="rgb(0%, 0%, 0%)" stroke-opacity="1" stroke-miterlimit="10" d="M 2700 3007.5 L 2734.179688 3066.679688 L 2665.820312 3066.679688 Z M 2700 3007.5 " transform="matrix(0.1, 0, 0, -0.1, 0, 410)"/>
<path fill-rule="evenodd" fill="rgb(0%, 0%, 0%)" fill-opacity="1" stroke-width="5" stroke-linecap="butt" stroke-linejoin="miter" stroke="rgb(0%, 0%, 0%)" stroke-opacity="1" stroke-miterlimit="10" d="M 2930 2835.820312 L 2964.179688 2895 L 2895.820312 2895 Z M 2930 2835.820312 " transform="matrix(0.1, 0, 0, -0.1, 0, 410)"/>
<path fill-rule="evenodd" fill="rgb(0%, 0%, 0%)" fill-opacity="1" stroke-width="5" stroke-linecap="butt" stroke-linejoin="miter" stroke="rgb(0%, 0%, 0%)" stroke-opacity="1" stroke-miterlimit="10" d="M 3233.320312 2227.5 L 3267.5 2286.679688 L 3199.179688 2286.679688 Z M 3233.320312 2227.5 " transform="matrix(0.1, 0, 0, -0.1, 0, 410)"/>
<path fill-rule="evenodd" fill="rgb(0%, 0%, 0%)" fill-opacity="1" stroke-width="5" stroke-linecap="butt" stroke-linejoin="miter" stroke="rgb(0%, 0%, 0%)" stroke-opacity="1" stroke-miterlimit="10" d="M 3463.320312 1910.820312 L 3497.5 1970 L 3429.179688 1970 Z M 3463.320312 1910.820312 " transform="matrix(0.1, 0, 0, -0.1, 0, 410)"/>
<path fill-rule="evenodd" fill="rgb(0%, 0%, 0%)" fill-opacity="1" stroke-width="5" stroke-linecap="butt" stroke-linejoin="miter" stroke="rgb(0%, 0%, 0%)" stroke-opacity="1" stroke-miterlimit="10" d="M 3693.320312 1438.320312 L 3727.5 1497.5 L 3659.179688 1497.5 Z M 3693.320312 1438.320312 " transform="matrix(0.1, 0, 0, -0.1, 0, 410)"/>
<path fill-rule="evenodd" fill="rgb(0%, 0%, 0%)" fill-opacity="1" stroke-width="5" stroke-linecap="butt" stroke-linejoin="miter" stroke="rgb(0%, 0%, 0%)" stroke-opacity="1" stroke-miterlimit="10" d="M 3922.5 1052.5 L 3956.679688 1111.679688 L 3888.320312 1111.679688 Z M 3922.5 1052.5 " transform="matrix(0.1, 0, 0, -0.1, 0, 410)"/>
<path fill-rule="evenodd" fill="rgb(0%, 0%, 0%)" fill-opacity="1" d="M 422.667969 340.082031 L 426.082031 334.167969 L 419.25 334.167969 Z M 422.667969 340.082031 "/>
<g clip-path="url(#clip-3)">
<path fill="none" stroke-width="5" stroke-linecap="butt" stroke-linejoin="miter" stroke="rgb(0%, 0%, 0%)" stroke-opacity="1" stroke-miterlimit="10" d="M 4226.679688 699.179688 L 4260.820312 758.320312 L 4192.5 758.320312 Z M 4226.679688 699.179688 " transform="matrix(0.1, 0, 0, -0.1, 0, 410)"/>
</g>
<g fill="rgb(0%, 0%, 0%)" fill-opacity="1">
<use xlink:href="#glyph-0-8" x="160.25" y="404.4168"/>
<use xlink:href="#glyph-0-9" x="169.588" y="404.4168"/>
<use xlink:href="#glyph-0-10" x="172.696" y="404.4168"/>
<use xlink:href="#glyph-0-11" x="180.48" y="404.4168"/>
<use xlink:href="#glyph-0-12" x="188.264" y="404.4168"/>
<use xlink:href="#glyph-0-13" x="199.926" y="404.4168"/>
<use xlink:href="#glyph-0-14" x="207.71" y="404.4168"/>
<use xlink:href="#glyph-0-9" x="211.602" y="404.4168"/>
<use xlink:href="#glyph-0-15" x="214.71" y="404.4168"/>
<use xlink:href="#glyph-0-7" x="221.71" y="404.4168"/>
<use xlink:href="#glyph-0-16" x="225.602" y="404.4168"/>
<use xlink:href="#glyph-0-9" x="234.94" y="404.4168"/>
<use xlink:href="#glyph-0-17" x="238.048" y="404.4168"/>
<use xlink:href="#glyph-0-15" x="245.048" y="404.4168"/>
<use xlink:href="#glyph-0-18" x="252.048" y="404.4168"/>
<use xlink:href="#glyph-0-17" x="259.832" y="404.4168"/>
<use xlink:href="#glyph-0-9" x="266.832" y="404.4168"/>
<use xlink:href="#glyph-0-14" x="269.94" y="404.4168"/>
<use xlink:href="#glyph-0-19" x="273.832" y="404.4168"/>
<use xlink:href="#glyph-0-20" x="280.832" y="404.4168"/>
<use xlink:href="#glyph-0-7" x="284.724" y="404.4168"/>
</g>
<g fill="rgb(0%, 0%, 0%)" fill-opacity="1">
<use xlink:href="#glyph-2-0" x="286.5" y="404.4168"/>
</g>
<g fill="rgb(0%, 0%, 0%)" fill-opacity="1">
<use xlink:href="#glyph-0-7" x="293.75" y="404.4168"/>
<use xlink:href="#glyph-0-21" x="297.642" y="404.4168"/>
<use xlink:href="#glyph-0-12" x="302.304" y="404.4168"/>
</g>
<g fill="rgb(0%, 0%, 0%)" fill-opacity="1">
<use xlink:href="#glyph-3-0" x="313.9168" y="397.4168"/>
</g>
<g fill="rgb(0%, 0%, 0%)" fill-opacity="1">
<use xlink:href="#glyph-0-7" x="320" y="404.4168"/>
<use xlink:href="#glyph-0-17" x="323.892" y="404.4168"/>
</g>
<g fill="rgb(0%, 0%, 0%)" fill-opacity="1">
<use xlink:href="#glyph-3-1" x="330.8332" y="397.4168"/>
<use xlink:href="#glyph-3-2" x="337.2572" y="397.4168"/>
</g>
<g fill="rgb(0%, 0%, 0%)" fill-opacity="1">
<use xlink:href="#glyph-0-22" x="343.3332" y="404.4168"/>
</g>
<g fill="rgb(0%, 0%, 0%)" fill-opacity="1">
<use xlink:href="#glyph-4-0" x="33" y="285.583"/>
<use xlink:href="#glyph-4-1" x="33" y="277.029"/>
<use xlink:href="#glyph-4-2" x="33" y="269.245"/>
<use xlink:href="#glyph-4-3" x="33" y="265.353"/>
<use xlink:href="#glyph-4-4" x="33" y="257.569"/>
<use xlink:href="#glyph-4-5" x="33" y="254.461"/>
<use xlink:href="#glyph-4-6" x="33" y="250.569"/>
<use xlink:href="#glyph-4-7" x="33" y="241.231"/>
<use xlink:href="#glyph-4-8" x="33" y="233.447"/>
<use xlink:href="#glyph-4-9" x="33" y="225.663"/>
<use xlink:href="#glyph-4-10" x="33" y="221.001"/>
<use xlink:href="#glyph-4-11" x="33" y="213.217"/>
<use xlink:href="#glyph-4-5" x="33" y="206.217"/>
<use xlink:href="#glyph-4-12" x="33" y="202.325"/>
<use xlink:href="#glyph-4-3" x="33" y="192.217"/>
<use xlink:href="#glyph-4-4" x="33" y="184.433"/>
<use xlink:href="#glyph-4-13" x="33" y="181.325"/>
<use xlink:href="#glyph-4-14" x="33" y="177.433"/>
<use xlink:href="#glyph-4-15" x="33" y="169.257"/>
<use xlink:href="#glyph-4-16" x="33" y="161.473"/>
<use xlink:href="#glyph-4-13" x="33" y="158.365"/>
<use xlink:href="#glyph-4-8" x="33" y="154.473"/>
<use xlink:href="#glyph-4-17" x="33" y="146.689"/>
<use xlink:href="#glyph-4-5" x="33" y="142.797"/>
<use xlink:href="#glyph-4-5" x="33" y="138.905"/>
</g>
<g fill="rgb(0%, 0%, 0%)" fill-opacity="1">
<use xlink:href="#glyph-5-0" x="33" y="137.333"/>
</g>
<g fill="rgb(0%, 0%, 0%)" fill-opacity="1">
<use xlink:href="#glyph-4-5" x="33" y="131.2498"/>
<use xlink:href="#glyph-4-18" x="33" y="127.3578"/>
<use xlink:href="#glyph-4-19" x="33" y="122.6958"/>
<use xlink:href="#glyph-4-20" x="33" y="115.6958"/>
</g>
<g fill="rgb(0%, 0%, 0%)" fill-opacity="1">
<use xlink:href="#glyph-0-23" x="116.5" y="19.75"/>
<use xlink:href="#glyph-0-10" x="125.838" y="19.75"/>
<use xlink:href="#glyph-0-11" x="133.622" y="19.75"/>
<use xlink:href="#glyph-0-24" x="141.406" y="19.75"/>
<use xlink:href="#glyph-0-25" x="146.068" y="19.75"/>
<use xlink:href="#glyph-0-19" x="153.852" y="19.75"/>
<use xlink:href="#glyph-0-7" x="160.852" y="19.75"/>
<use xlink:href="#glyph-0-26" x="164.744" y="19.75"/>
<use xlink:href="#glyph-0-13" x="174.852" y="19.75"/>
<use xlink:href="#glyph-0-27" x="182.636" y="19.75"/>
<use xlink:href="#glyph-0-28" x="185.744" y="19.75"/>
<use xlink:href="#glyph-0-29" x="189.636" y="19.75"/>
<use xlink:href="#glyph-0-30" x="197.812" y="19.75"/>
<use xlink:href="#glyph-0-9" x="205.596" y="19.75"/>
<use xlink:href="#glyph-0-28" x="208.704" y="19.75"/>
<use xlink:href="#glyph-0-11" x="212.596" y="19.75"/>
<use xlink:href="#glyph-0-7" x="220.38" y="19.75"/>
<use xlink:href="#glyph-0-31" x="224.272" y="19.75"/>
<use xlink:href="#glyph-0-11" x="234.38" y="19.75"/>
<use xlink:href="#glyph-0-32" x="242.164" y="19.75"/>
<use xlink:href="#glyph-0-11" x="249.948" y="19.75"/>
<use xlink:href="#glyph-0-10" x="257.732" y="19.75"/>
<use xlink:href="#glyph-0-33" x="265.516" y="19.75"/>
<use xlink:href="#glyph-0-11" x="273.3" y="19.75"/>
<use xlink:href="#glyph-0-10" x="281.084" y="19.75"/>
<use xlink:href="#glyph-0-15" x="288.868" y="19.75"/>
<use xlink:href="#glyph-0-11" x="295.868" y="19.75"/>
<use xlink:href="#glyph-0-7" x="303.652" y="19.75"/>
<use xlink:href="#glyph-0-34" x="307.544" y="19.75"/>
<use xlink:href="#glyph-0-9" x="320.76" y="19.75"/>
<use xlink:href="#glyph-0-14" x="323.868" y="19.75"/>
<use xlink:href="#glyph-0-35" x="327.76" y="19.75"/>
<use xlink:href="#glyph-0-7" x="335.544" y="19.75"/>
<use xlink:href="#glyph-0-16" x="339.436" y="19.75"/>
<use xlink:href="#glyph-0-9" x="348.774" y="19.75"/>
<use xlink:href="#glyph-0-17" x="351.882" y="19.75"/>
<use xlink:href="#glyph-0-15" x="358.882" y="19.75"/>
<use xlink:href="#glyph-0-18" x="365.882" y="19.75"/>
<use xlink:href="#glyph-0-17" x="373.666" y="19.75"/>
<use xlink:href="#glyph-0-9" x="380.666" y="19.75"/>
<use xlink:href="#glyph-0-14" x="383.774" y="19.75"/>
<use xlink:href="#glyph-0-19" x="387.666" y="19.75"/>
</g>
<g clip-path="url(#clip-4)">
<path fill="none" stroke-width="5" stroke-linecap="butt" stroke-linejoin="round" stroke="rgb(0%, 0%, 0%)" stroke-opacity="1" stroke-dasharray="60" stroke-miterlimit="10" d="M 2395.820312 454.179688 L 2395.820312 3792.5 " transform="matrix(0.1, 0, 0, -0.1, 0, 410)"/>
</g>
<g clip-path="url(#clip-5)">
<path fill="none" stroke-width="5" stroke-linecap="butt" stroke-linejoin="round" stroke="rgb(0%, 0%, 0%)" stroke-opacity="1" stroke-dasharray="60" stroke-miterlimit="10" d="M 3159.179688 454.179688 L 3159.179688 3792.5 " transform="matrix(0.1, 0, 0, -0.1, 0, 410)"/>
</g>
<g fill="rgb(0%, 0%, 0%)" fill-opacity="1">
<use xlink:href="#glyph-6-0" x="252.417" y="207.917"/>
<use xlink:href="#glyph-6-1" x="259.749" y="207.917"/>
<use xlink:href="#glyph-6-2" x="264.417" y="207.917"/>
<use xlink:href="#glyph-6-3" x="271.089" y="207.917"/>
<use xlink:href="#glyph-6-4" x="278.421" y="207.917"/>
<use xlink:href="#glyph-6-5" x="285.093" y="207.917"/>
<use xlink:href="#glyph-6-6" x="288.429" y="207.917"/>
<use xlink:href="#glyph-6-5" x="292.425" y="207.917"/>
<use xlink:href="#glyph-6-7" x="295.761" y="207.917"/>
<use xlink:href="#glyph-6-3" x="303.093" y="207.917"/>
</g>
<g fill="rgb(0%, 0%, 0%)" fill-opacity="1">
<use xlink:href="#glyph-6-1" x="252.417" y="222.0834"/>
<use xlink:href="#glyph-6-8" x="257.085" y="222.0834"/>
<use xlink:href="#glyph-6-9" x="263.757" y="222.0834"/>
<use xlink:href="#glyph-6-5" x="271.089" y="222.0834"/>
<use xlink:href="#glyph-6-7" x="274.425" y="222.0834"/>
<use xlink:href="#glyph-6-3" x="281.757" y="222.0834"/>
</g>
<g fill="rgb(0%, 0%, 0%)" fill-opacity="1">
<use xlink:href="#glyph-6-10" x="347.7502" y="85.5834"/>
<use xlink:href="#glyph-6-5" x="356.4142" y="85.5834"/>
<use xlink:href="#glyph-6-9" x="359.7502" y="85.5834"/>
<use xlink:href="#glyph-6-11" x="367.0822" y="85.5834"/>
<use xlink:href="#glyph-6-12" x="374.4142" y="85.5834"/>
<use xlink:href="#glyph-6-13" x="377.7502" y="85.5834"/>
<use xlink:href="#glyph-6-5" x="384.4222" y="85.5834"/>
<use xlink:href="#glyph-6-4" x="387.7582" y="85.5834"/>
<use xlink:href="#glyph-6-14" x="394.4302" y="85.5834"/>
<use xlink:href="#glyph-6-7" x="401.1022" y="85.5834"/>
<use xlink:href="#glyph-6-4" x="408.4342" y="85.5834"/>
<use xlink:href="#glyph-6-5" x="415.1062" y="85.5834"/>
<use xlink:href="#glyph-6-6" x="418.4422" y="85.5834"/>
<use xlink:href="#glyph-6-15" x="422.4382" y="85.5834"/>
</g>
<g fill="rgb(0%, 0%, 0%)" fill-opacity="1">
<use xlink:href="#glyph-6-1" x="347.7502" y="99.7498"/>
<use xlink:href="#glyph-6-8" x="352.4182" y="99.7498"/>
<use xlink:href="#glyph-6-9" x="359.0902" y="99.7498"/>
<use xlink:href="#glyph-6-5" x="366.4222" y="99.7498"/>
<use xlink:href="#glyph-6-7" x="369.7582" y="99.7498"/>
<use xlink:href="#glyph-6-3" x="377.0902" y="99.7498"/>
</g>
<g fill="rgb(0%, 0%, 0%)" fill-opacity="1">
<use xlink:href="#glyph-6-16" x="130.0832" y="306.9168"/>
<use xlink:href="#glyph-6-7" x="137.4152" y="306.9168"/>
<use xlink:href="#glyph-6-17" x="144.7472" y="306.9168"/>
<use xlink:href="#glyph-6-12" x="154.0832" y="306.9168"/>
<use xlink:href="#glyph-6-13" x="157.4192" y="306.9168"/>
<use xlink:href="#glyph-6-5" x="164.0912" y="306.9168"/>
<use xlink:href="#glyph-6-4" x="167.4272" y="306.9168"/>
<use xlink:href="#glyph-6-14" x="174.0992" y="306.9168"/>
<use xlink:href="#glyph-6-7" x="180.7712" y="306.9168"/>
<use xlink:href="#glyph-6-4" x="188.1032" y="306.9168"/>
<use xlink:href="#glyph-6-5" x="194.7752" y="306.9168"/>
<use xlink:href="#glyph-6-6" x="198.1112" y="306.9168"/>
<use xlink:href="#glyph-6-15" x="202.1072" y="306.9168"/>
</g>
<g fill="rgb(0%, 0%, 0%)" fill-opacity="1">
<use xlink:href="#glyph-6-1" x="130.0832" y="321.0832"/>
<use xlink:href="#glyph-6-8" x="134.7512" y="321.0832"/>
<use xlink:href="#glyph-6-9" x="141.4232" y="321.0832"/>
<use xlink:href="#glyph-6-5" x="148.7552" y="321.0832"/>
<use xlink:href="#glyph-6-7" x="152.0912" y="321.0832"/>
<use xlink:href="#glyph-6-3" x="159.4232" y="321.0832"/>
</g>
</svg>
