<?xml version="1.0" encoding="UTF-8"?>
<svg xmlns="http://www.w3.org/2000/svg" xmlns:xlink="http://www.w3.org/1999/xlink" width="397" height="284" viewBox="0 0 397 284">
<path fill="none" stroke-width="19.8425" stroke-linecap="butt" stroke-linejoin="miter" stroke="rgb(0%, 0%, 0%)" stroke-opacity="1" stroke-miterlimit="10" d="M 165.78125 300.859375 C 828.867188 351.328125 951.40625 243.203125 1859.53125 250.390625 C 2767.695312 257.617188 2933.476562 300.859375 3322.695312 315.273438 C 3711.875 329.6875 3747.929688 322.5 3747.929688 322.5 " transform="matrix(0.1, 0, 0, -0.1, 0, 284)"/>
<path fill="none" stroke-width="17.4922" stroke-linecap="butt" stroke-linejoin="miter" stroke="rgb(0%, 0%, 0%)" stroke-opacity="1" stroke-miterlimit="10" d="M 3130.697148 -1981.209349 C 3130.697148 -1807.310453 2981.231451 -1666.186125 2797.103545 -1666.186125 C 2612.975639 -1666.186125 2463.509943 -1807.310453 2463.509943 -1981.209349 C 2463.509943 -2155.146222 2612.975639 -2296.27055 2797.103545 -2296.27055 C 2981.231451 -2296.27055 3130.697148 -2155.146222 3130.697148 -1981.209349 Z M 3130.697148 -1981.209349 " transform="matrix(0.0971429, 0, 0, 0.102857, 0, 284)"/>
<path fill="none" stroke-width="18.172" stroke-linecap="butt" stroke-linejoin="miter" stroke="rgb(0%, 0%, 0%)" stroke-opacity="1" stroke-miterlimit="10" d="M 3123.302453 -1407.270993 C 3123.302453 -1303.120928 3026.706333 -1218.599708 2907.677145 -1218.599708 C 2788.647957 -1218.599708 2692.051837 -1303.120928 2692.051837 -1407.270993 C 2692.051837 -1511.421058 2788.647957 -1595.942278 2907.677145 -1595.942278 C 3026.706333 -1595.942278 3123.302453 -1511.421058 3123.302453 -1407.270993 Z M 3123.302453 -1407.270993 " transform="matrix(0.0933332, 0, 0, 0.106667, 0, 284)"/>
<path fill="none" stroke-width="17.4201" stroke-linecap="butt" stroke-linejoin="miter" stroke="rgb(0%, 0%, 0%)" stroke-opacity="1" stroke-miterlimit="10" d="M 2934.334936 -1118.521341 C 2934.334936 -1039.0625 2866.50641 -974.580793 2782.972756 -974.580793 C 2699.439103 -974.580793 2631.650641 -1039.0625 2631.650641 -1118.521341 C 2631.650641 -1197.980183 2699.439103 -1262.46189 2782.972756 -1262.46189 C 2866.50641 -1262.46189 2934.334936 -1197.980183 2934.334936 -1118.521341 Z M 2934.334936 -1118.521341 " transform="matrix(0.0975, 0, 0, 0.1025, 0, 284)"/>
<path fill="none" stroke-width="17.6827" stroke-linecap="butt" stroke-linejoin="miter" stroke="rgb(0%, 0%, 0%)" stroke-opacity="1" stroke-miterlimit="10" d="M 2924.837974 -871.122212 C 2924.837974 -823.572365 2882.895024 -784.947488 2831.169463 -784.947488 C 2779.484662 -784.947488 2737.500952 -823.572365 2737.500952 -871.122212 C 2737.500952 -918.70956 2779.484662 -957.296937 2831.169463 -957.296937 C 2882.895024 -957.296937 2924.837974 -918.70956 2924.837974 -871.122212 Z M 2924.837974 -871.122212 " transform="matrix(0.0958333, 0, 0, 0.104167, 0, 284)"/>
<path fill="none" stroke-width="11.3386" stroke-linecap="butt" stroke-linejoin="miter" stroke="rgb(0%, 0%, 0%)" stroke-opacity="1" stroke-dasharray="45.3543 22.6772 11.3386 22.6772" stroke-miterlimit="10" d="M 301.757812 2016.25 L 3772.851562 2010.78125 " transform="matrix(0.1, 0, 0, -0.1, 0, 284)"/>
<path fill="none" stroke-width="34.8188" stroke-linecap="butt" stroke-linejoin="miter" stroke="rgb(0%, 0%, 0%)" stroke-opacity="1" stroke-miterlimit="10" d="M 2872.969353 -1673.522349 C 2985.976912 -1867.369873 3204.359062 -1998.814868 3455.057409 -1998.814868 C 3707.490522 -1998.814868 3927.161355 -1865.564841 4039.425443 -1669.557726 " transform="matrix(0.0788111, 0, 0, 0.121189, 0, 284)"/>
<path fill="none" stroke-width="34.8188" stroke-linecap="butt" stroke-linejoin="miter" stroke="rgb(0%, 0%, 0%)" stroke-opacity="1" stroke-miterlimit="10" d="M 1707.058476 -1670.234613 C 1820.066034 -1476.38709 2038.448185 -1344.942095 2289.146532 -1344.942095 C 2541.579644 -1344.942095 2761.250477 -1478.192121 2873.56413 -1674.199236 " transform="matrix(0.0788111, 0, 0, 0.121189, 0, 284)"/>
<path fill="none" stroke-width="34.8188" stroke-linecap="butt" stroke-linejoin="miter" stroke="rgb(0%, 0%, 0%)" stroke-opacity="1" stroke-miterlimit="10" d="M 1707.058476 1672.942161 C 1820.066034 1479.094637 2038.448185 1347.649642 2289.196097 1347.649642 C 2541.579644 1347.649642 2761.250477 1480.867436 2873.56413 1676.906784 " transform="matrix(0.0788111, 0, 0, -0.121189, 0, 284)"/>
<path fill="none" stroke-width="34.8188" stroke-linecap="butt" stroke-linejoin="miter" stroke="rgb(0%, 0%, 0%)" stroke-opacity="1" stroke-miterlimit="10" d="M 541.197163 1676.197664 C 654.155157 1870.045188 872.586872 2001.490183 1123.285219 2001.490183 C 1375.668767 2001.490183 1595.3396 1868.272389 1707.653253 1672.233041 " transform="matrix(0.0788111, 0, 0, -0.121189, 0, 284)"/>
<path fill="none" stroke-width="8.50394" stroke-linecap="butt" stroke-linejoin="miter" stroke="rgb(0%, 0%, 0%)" stroke-opacity="1" stroke-miterlimit="10" d="M 876.601562 2518.085938 L 2710.039062 2502.773438 " transform="matrix(0.1, 0, 0, -0.1, 0, 284)"/>
<path fill-rule="evenodd" fill="rgb(0%, 0%, 0%)" fill-opacity="1" d="M 92.09375 34.285156 L 86.535156 32.191406 L 92.128906 30.1875 C 91.226562 31.390625 91.21875 33.046875 92.09375 34.285156 "/>
<path fill-rule="evenodd" fill="rgb(0%, 0%, 0%)" fill-opacity="1" d="M 266.574219 31.628906 L 272.128906 33.722656 L 266.539062 35.726562 C 267.4375 34.523438 267.449219 32.867188 266.574219 31.628906 "/>
<path fill="none" stroke-width="9.46044" stroke-linecap="butt" stroke-linejoin="miter" stroke="rgb(0%, 0%, 0%)" stroke-opacity="1" stroke-miterlimit="10" d="M 884.0625 2050.625 L 884.0625 2401.171875 " transform="matrix(0.1, 0, 0, -0.1, 0, 284)"/>
<path fill="none" stroke-width="4.73022" stroke-linecap="butt" stroke-linejoin="miter" stroke="rgb(0%, 0%, 0%)" stroke-opacity="1" stroke-miterlimit="10" d="M 905.429688 2050.625 L 862.695312 2050.625 " transform="matrix(0.1, 0, 0, -0.1, 0, 284)"/>
<path fill-rule="evenodd" fill="rgb(0%, 0%, 0%)" fill-opacity="1" d="M 86.117188 48.828125 L 88.398438 42.628906 L 90.675781 48.828125 C 89.332031 47.839844 87.488281 47.84375 86.117188 48.828125 "/>
<path fill="none" stroke-width="8.50394" stroke-linecap="butt" stroke-linejoin="miter" stroke="rgb(0%, 0%, 0%)" stroke-opacity="1" stroke-miterlimit="10" d="M 881.601562 323.476562 L 881.601562 1982.1875 " transform="matrix(0.1, 0, 0, -0.1, 0, 284)"/>
<path fill="none" stroke-width="4.25197" stroke-linecap="butt" stroke-linejoin="miter" stroke="rgb(0%, 0%, 0%)" stroke-opacity="1" stroke-miterlimit="10" d="M 900.820312 323.476562 L 862.382812 323.476562 " transform="matrix(0.1, 0, 0, -0.1, 0, 284)"/>
<path fill-rule="evenodd" fill="rgb(0%, 0%, 0%)" fill-opacity="1" d="M 86.101562 90.230469 L 88.152344 84.65625 L 90.203125 90.230469 C 88.992188 89.339844 87.335938 89.347656 86.101562 90.230469 "/>
<path fill-rule="nonzero" fill="rgb(0%, 0%, 0%)" fill-opacity="1" d="M 82.609375 95.003906 L 82.609375 94.96875 L 82.605469 94.960938 L 82.605469 94.949219 L 82.601562 94.941406 L 82.601562 94.933594 L 82.597656 94.921875 L 82.59375 94.914062 L 82.589844 94.902344 L 82.585938 94.894531 L 82.578125 94.886719 L 82.574219 94.875 L 82.566406 94.867188 L 82.558594 94.855469 L 82.535156 94.832031 L 82.527344 94.828125 L 82.523438 94.824219 L 82.515625 94.820312 L 82.511719 94.816406 L 82.503906 94.8125 L 82.492188 94.808594 L 82.484375 94.804688 L 82.480469 94.800781 L 82.472656 94.800781 L 82.460938 94.796875 L 82.453125 94.792969 L 82.445312 94.792969 L 82.4375 94.789062 L 82.429688 94.789062 L 82.417969 94.785156 L 82.398438 94.785156 L 82.386719 94.78125 L 82.347656 94.78125 C 82.046875 94.78125 80.132812 94.964844 79.789062 95.003906 C 79.628906 95.023438 79.503906 95.125 79.503906 95.386719 C 79.503906 95.628906 79.6875 95.628906 79.992188 95.628906 C 80.960938 95.628906 81 95.769531 81 95.972656 L 80.9375 96.371094 L 79.726562 101.15625 C 79.363281 100.410156 78.78125 99.863281 77.875 99.863281 L 77.894531 100.308594 C 79.207031 100.308594 79.484375 101.960938 79.484375 102.082031 C 79.484375 102.203125 79.445312 102.324219 79.425781 102.425781 L 78.414062 106.378906 C 78.316406 106.742188 78.316406 106.78125 78.015625 107.121094 C 77.128906 108.238281 76.296875 108.558594 75.734375 108.558594 C 74.726562 108.558594 74.445312 107.445312 74.445312 106.660156 C 74.445312 105.652344 75.085938 103.171875 75.554688 102.242188 C 76.175781 101.054688 77.085938 100.308594 77.894531 100.308594 L 77.875 99.863281 C 75.511719 99.863281 73.011719 102.828125 73.011719 105.773438 C 73.011719 107.671875 74.121094 109.003906 75.695312 109.003906 C 76.09375 109.003906 77.109375 108.921875 78.316406 107.488281 C 78.476562 108.335938 79.179688 109.003906 80.148438 109.003906 C 80.859375 109.003906 81.324219 108.535156 81.644531 107.894531 C 81.988281 107.167969 82.25 105.9375 82.25 105.894531 C 82.25 105.695312 82.070312 105.695312 82.007812 105.695312 C 81.804688 105.695312 81.785156 105.773438 81.722656 106.054688 C 81.378906 107.367188 81.019531 108.558594 80.195312 108.558594 C 79.648438 108.558594 79.585938 108.035156 79.585938 107.628906 C 79.585938 107.144531 79.628906 107.007812 79.707031 106.660156 L 82.609375 95.003906 "/>
<path fill="none" stroke-width="1.2" stroke-linecap="butt" stroke-linejoin="miter" stroke="rgb(0%, 0%, 0%)" stroke-opacity="1" stroke-miterlimit="10" d="M 826.09375 1889.960938 L 826.09375 1890.3125 L 826.054688 1890.390625 L 826.054688 1890.507812 L 826.015625 1890.585938 L 826.015625 1890.664062 L 825.976562 1890.78125 L 825.9375 1890.859375 L 825.898438 1890.976562 L 825.859375 1891.054688 L 825.78125 1891.132812 L 825.742188 1891.25 L 825.664062 1891.328125 L 825.585938 1891.445312 L 825.351562 1891.679688 L 825.273438 1891.71875 L 825.234375 1891.757812 L 825.15625 1891.796875 L 825.117188 1891.835938 L 825.039062 1891.875 L 824.921875 1891.914062 L 824.84375 1891.953125 L 824.804688 1891.992188 L 824.726562 1891.992188 L 824.609375 1892.03125 L 824.53125 1892.070312 L 824.453125 1892.070312 L 824.375 1892.109375 L 824.296875 1892.109375 L 824.179688 1892.148438 L 823.984375 1892.148438 L 823.867188 1892.1875 L 823.476562 1892.1875 C 820.46875 1892.1875 801.328125 1890.351562 797.890625 1889.960938 C 796.289062 1889.765625 795.039062 1888.75 795.039062 1886.132812 C 795.039062 1883.710938 796.875 1883.710938 799.921875 1883.710938 C 809.609375 1883.710938 810 1882.304688 810 1880.273438 L 809.375 1876.289062 L 797.265625 1828.4375 C 793.632812 1835.898438 787.8125 1841.367188 778.75 1841.367188 L 778.945312 1836.914062 C 792.070312 1836.914062 794.84375 1820.390625 794.84375 1819.179688 C 794.84375 1817.96875 794.453125 1816.757812 794.257812 1815.742188 L 784.140625 1776.210938 C 783.164062 1772.578125 783.164062 1772.1875 780.15625 1768.789062 C 771.289062 1757.617188 762.96875 1754.414062 757.34375 1754.414062 C 747.265625 1754.414062 744.453125 1765.546875 744.453125 1773.398438 C 744.453125 1783.476562 750.859375 1808.28125 755.546875 1817.578125 C 761.757812 1829.453125 770.859375 1836.914062 778.945312 1836.914062 L 778.75 1841.367188 C 755.117188 1841.367188 730.117188 1811.71875 730.117188 1782.265625 C 730.117188 1763.28125 741.210938 1749.960938 756.953125 1749.960938 C 760.9375 1749.960938 771.09375 1750.78125 783.164062 1765.117188 C 784.765625 1756.640625 791.796875 1749.960938 801.484375 1749.960938 C 808.59375 1749.960938 813.242188 1754.648438 816.445312 1761.054688 C 819.882812 1768.320312 822.5 1780.625 822.5 1781.054688 C 822.5 1783.046875 820.703125 1783.046875 820.078125 1783.046875 C 818.046875 1783.046875 817.851562 1782.265625 817.226562 1779.453125 C 813.789062 1766.328125 810.195312 1754.414062 801.953125 1754.414062 C 796.484375 1754.414062 795.859375 1759.648438 795.859375 1763.710938 C 795.859375 1768.554688 796.289062 1769.921875 797.070312 1773.398438 Z M 826.09375 1889.960938 " transform="matrix(0.1, 0, 0, -0.1, 0, 284)"/>
<path fill-rule="nonzero" fill="rgb(0%, 0%, 0%)" fill-opacity="1" d="M 180.816406 19.945312 L 180.894531 20.144531 L 180.972656 20.351562 L 181.128906 20.777344 L 181.289062 21.214844 L 181.449219 21.660156 L 181.605469 22.105469 L 181.761719 22.546875 L 181.914062 22.980469 L 181.988281 23.191406 L 182.0625 23.398438 L 182.132812 23.601562 L 182.203125 23.800781 L 182.269531 23.988281 L 182.339844 24.175781 L 182.40625 24.351562 L 182.464844 24.519531 L 182.527344 24.683594 L 182.582031 24.832031 L 182.636719 24.96875 L 182.6875 25.097656 L 182.738281 25.214844 L 182.78125 25.324219 L 182.824219 25.417969 L 182.867188 25.496094 L 182.902344 25.5625 L 182.9375 25.613281 C 183.253906 26.058594 183.457031 26.058594 184 26.058594 L 184.445312 26.058594 C 184.648438 26.039062 184.667969 25.917969 184.667969 25.855469 C 184.667969 25.796875 184.628906 25.753906 184.566406 25.675781 C 184.363281 25.449219 184.242188 25.148438 184.101562 24.746094 L 179.988281 13.265625 C 179.566406 12.101562 178.472656 11.835938 177.523438 11.835938 C 177.425781 11.835938 177.164062 11.835938 177.164062 12.058594 C 177.164062 12.222656 177.324219 12.261719 177.34375 12.261719 C 178.011719 12.378906 178.152344 12.5 178.65625 13.871094 C 179.183594 15.328125 180.289062 18.414062 180.613281 19.359375 L 175.046875 24.886719 C 174.804688 25.132812 174.683594 25.246094 174.683594 25.511719 C 174.683594 25.855469 174.964844 26.097656 175.285156 26.097656 C 175.609375 26.097656 175.792969 25.875 175.953125 25.675781 L 180.816406 19.945312 "/>
<path fill="none" stroke-width="1.2" stroke-linecap="butt" stroke-linejoin="miter" stroke="rgb(0%, 0%, 0%)" stroke-opacity="1" stroke-miterlimit="10" d="M 1808.164062 2640.546875 L 1808.945312 2638.554688 L 1809.726562 2636.484375 L 1811.289062 2632.226562 L 1812.890625 2627.851562 L 1814.492188 2623.398438 L 1816.054688 2618.945312 L 1817.617188 2614.53125 L 1819.140625 2610.195312 L 1819.882812 2608.085938 L 1820.625 2606.015625 L 1821.328125 2603.984375 L 1822.03125 2601.992188 L 1822.695312 2600.117188 L 1823.398438 2598.242188 L 1824.0625 2596.484375 L 1824.648438 2594.804688 L 1825.273438 2593.164062 L 1825.820312 2591.679688 L 1826.367188 2590.3125 L 1826.875 2589.023438 L 1827.382812 2587.851562 L 1827.8125 2586.757812 L 1828.242188 2585.820312 L 1828.671875 2585.039062 L 1829.023438 2584.375 L 1829.375 2583.867188 C 1832.539062 2579.414062 1834.570312 2579.414062 1840 2579.414062 L 1844.453125 2579.414062 C 1846.484375 2579.609375 1846.679688 2580.820312 1846.679688 2581.445312 C 1846.679688 2582.03125 1846.289062 2582.460938 1845.664062 2583.242188 C 1843.632812 2585.507812 1842.421875 2588.515625 1841.015625 2592.539062 L 1799.882812 2707.34375 C 1795.664062 2718.984375 1784.726562 2721.640625 1775.234375 2721.640625 C 1774.257812 2721.640625 1771.640625 2721.640625 1771.640625 2719.414062 C 1771.640625 2717.773438 1773.242188 2717.382812 1773.4375 2717.382812 C 1780.117188 2716.210938 1781.523438 2715 1786.5625 2701.289062 C 1791.835938 2686.71875 1802.890625 2655.859375 1806.132812 2646.40625 L 1750.46875 2591.132812 C 1748.046875 2588.671875 1746.835938 2587.539062 1746.835938 2584.882812 C 1746.835938 2581.445312 1749.648438 2579.023438 1752.851562 2579.023438 C 1756.09375 2579.023438 1757.929688 2581.25 1759.53125 2583.242188 Z M 1808.164062 2640.546875 " transform="matrix(0.1, 0, 0, -0.1, 0, 284)"/>
<path fill="none" stroke-width="8" stroke-linecap="butt" stroke-linejoin="miter" stroke="rgb(0%, 0%, 0%)" stroke-opacity="1" stroke-miterlimit="10" d="M 136.953125 63.007812 L 598.242188 279.257812 " transform="matrix(0.1, 0, 0, -0.1, 0, 284)"/>
<path fill="none" stroke-width="8" stroke-linecap="butt" stroke-linejoin="miter" stroke="rgb(0%, 0%, 0%)" stroke-opacity="1" stroke-miterlimit="10" d="M 562.1875 34.179688 L 1023.476562 250.390625 " transform="matrix(0.1, 0, 0, -0.1, 0, 284)"/>
<path fill="none" stroke-width="8" stroke-linecap="butt" stroke-linejoin="miter" stroke="rgb(0%, 0%, 0%)" stroke-opacity="1" stroke-miterlimit="10" d="M 1095.546875 5.351562 L 1556.835938 221.5625 " transform="matrix(0.1, 0, 0, -0.1, 0, 284)"/>
<path fill="none" stroke-width="8" stroke-linecap="butt" stroke-linejoin="miter" stroke="rgb(0%, 0%, 0%)" stroke-opacity="1" stroke-miterlimit="10" d="M 3250.625 55.820312 L 3711.875 272.03125 " transform="matrix(0.1, 0, 0, -0.1, 0, 284)"/>
<path fill="none" stroke-width="8" stroke-linecap="butt" stroke-linejoin="miter" stroke="rgb(0%, 0%, 0%)" stroke-opacity="1" stroke-miterlimit="10" d="M 2717.265625 55.820312 L 3178.515625 272.03125 " transform="matrix(0.1, 0, 0, -0.1, 0, 284)"/>
<path fill="none" stroke-width="8" stroke-linecap="butt" stroke-linejoin="miter" stroke="rgb(0%, 0%, 0%)" stroke-opacity="1" stroke-miterlimit="10" d="M 2140.625 19.765625 L 2601.914062 235.976562 " transform="matrix(0.1, 0, 0, -0.1, 0, 284)"/>
<path fill="none" stroke-width="8" stroke-linecap="butt" stroke-linejoin="miter" stroke="rgb(0%, 0%, 0%)" stroke-opacity="1" stroke-miterlimit="10" d="M 1628.90625 -1.835938 L 2090.195312 214.375 " transform="matrix(0.1, 0, 0, -0.1, 0, 284)"/>
<path fill-rule="nonzero" fill="rgb(0%, 0%, 0%)" fill-opacity="1" d="M 71.289062 54.585938 L 71.289062 54.566406 L 71.285156 54.5625 L 71.285156 54.539062 L 71.28125 54.53125 L 71.28125 54.523438 L 71.277344 54.515625 L 71.273438 54.503906 L 71.269531 54.496094 L 71.265625 54.484375 L 71.261719 54.476562 L 71.257812 54.464844 L 71.25 54.453125 L 71.242188 54.445312 L 71.234375 54.433594 L 71.222656 54.421875 L 71.214844 54.417969 L 71.207031 54.410156 L 71.199219 54.40625 L 71.195312 54.402344 L 71.183594 54.398438 L 71.175781 54.394531 L 71.171875 54.390625 L 71.15625 54.382812 L 71.148438 54.382812 L 71.140625 54.378906 L 71.132812 54.371094 L 71.105469 54.371094 L 71.09375 54.363281 L 71.074219 54.363281 L 71.0625 54.359375 L 71.027344 54.359375 C 70.5625 54.359375 69.09375 54.523438 68.566406 54.5625 C 68.402344 54.585938 68.179688 54.605469 68.179688 54.96875 C 68.179688 55.207031 68.363281 55.207031 68.667969 55.207031 C 69.636719 55.207031 69.675781 55.347656 69.675781 55.550781 L 69.613281 55.953125 L 66.691406 67.574219 C 66.609375 67.855469 66.609375 67.898438 66.609375 68.015625 C 66.609375 68.480469 67.011719 68.582031 67.191406 68.582031 C 67.515625 68.582031 67.839844 68.339844 67.941406 68.058594 L 68.324219 66.527344 C 68.464844 65.917969 68.625 65.316406 68.769531 64.707031 C 68.890625 64.265625 69.011719 63.820312 69.113281 63.355469 C 69.152344 63.238281 69.3125 62.570312 69.332031 62.453125 C 69.390625 62.269531 70.019531 61.140625 70.703125 60.59375 C 71.148438 60.269531 71.773438 59.890625 72.640625 59.890625 C 73.511719 59.890625 73.730469 60.574219 73.730469 61.300781 C 73.730469 62.386719 72.964844 64.585938 72.476562 65.816406 C 72.320312 66.28125 72.21875 66.527344 72.21875 66.925781 C 72.21875 67.875 72.921875 68.582031 73.871094 68.582031 C 75.769531 68.582031 76.515625 65.636719 76.515625 65.476562 C 76.515625 65.273438 76.332031 65.273438 76.273438 65.273438 C 76.070312 65.273438 76.070312 65.335938 75.96875 65.636719 C 75.667969 66.703125 75.019531 68.136719 73.910156 68.136719 C 73.570312 68.136719 73.429688 67.933594 73.429688 67.472656 C 73.429688 66.96875 73.605469 66.484375 73.789062 66.039062 C 74.113281 65.171875 75.019531 62.773438 75.019531 61.601562 C 75.019531 60.289062 74.214844 59.441406 72.703125 59.441406 C 71.429688 59.441406 70.460938 60.070312 69.714844 60.996094 L 71.289062 54.585938 "/>
<path fill="none" stroke-width="1.2" stroke-linecap="butt" stroke-linejoin="miter" stroke="rgb(0%, 0%, 0%)" stroke-opacity="1" stroke-miterlimit="10" d="M 712.890625 2294.140625 L 712.890625 2294.335938 L 712.851562 2294.375 L 712.851562 2294.609375 L 712.8125 2294.6875 L 712.8125 2294.765625 L 712.773438 2294.84375 L 712.734375 2294.960938 L 712.695312 2295.039062 L 712.65625 2295.15625 L 712.617188 2295.234375 L 712.578125 2295.351562 L 712.5 2295.46875 L 712.421875 2295.546875 L 712.34375 2295.664062 L 712.226562 2295.78125 L 712.148438 2295.820312 L 712.070312 2295.898438 L 711.992188 2295.9375 L 711.953125 2295.976562 L 711.835938 2296.015625 L 711.757812 2296.054688 L 711.71875 2296.09375 L 711.5625 2296.171875 L 711.484375 2296.171875 L 711.40625 2296.210938 L 711.328125 2296.289062 L 711.054688 2296.289062 L 710.9375 2296.367188 L 710.742188 2296.367188 L 710.625 2296.40625 L 710.273438 2296.40625 C 705.625 2296.40625 690.9375 2294.765625 685.664062 2294.375 C 684.023438 2294.140625 681.796875 2293.945312 681.796875 2290.3125 C 681.796875 2287.929688 683.632812 2287.929688 686.679688 2287.929688 C 696.367188 2287.929688 696.757812 2286.523438 696.757812 2284.492188 L 696.132812 2280.46875 L 666.914062 2164.257812 C 666.09375 2161.445312 666.09375 2161.015625 666.09375 2159.84375 C 666.09375 2155.195312 670.117188 2154.179688 671.914062 2154.179688 C 675.15625 2154.179688 678.398438 2156.601562 679.414062 2159.414062 L 683.242188 2174.726562 C 684.648438 2180.820312 686.25 2186.835938 687.695312 2192.929688 C 688.90625 2197.34375 690.117188 2201.796875 691.132812 2206.445312 C 691.523438 2207.617188 693.125 2214.296875 693.320312 2215.46875 C 693.90625 2217.304688 700.195312 2228.59375 707.03125 2234.0625 C 711.484375 2237.304688 717.734375 2241.09375 726.40625 2241.09375 C 735.117188 2241.09375 737.304688 2234.257812 737.304688 2226.992188 C 737.304688 2216.132812 729.648438 2194.140625 724.765625 2181.835938 C 723.203125 2177.1875 722.1875 2174.726562 722.1875 2170.742188 C 722.1875 2161.25 729.21875 2154.179688 738.710938 2154.179688 C 757.695312 2154.179688 765.15625 2183.632812 765.15625 2185.234375 C 765.15625 2187.265625 763.320312 2187.265625 762.734375 2187.265625 C 760.703125 2187.265625 760.703125 2186.640625 759.6875 2183.632812 C 756.679688 2172.96875 750.195312 2158.632812 739.101562 2158.632812 C 735.703125 2158.632812 734.296875 2160.664062 734.296875 2165.273438 C 734.296875 2170.3125 736.054688 2175.15625 737.890625 2179.609375 C 741.132812 2188.28125 750.195312 2212.265625 750.195312 2223.984375 C 750.195312 2237.109375 742.148438 2245.585938 727.03125 2245.585938 C 714.296875 2245.585938 704.609375 2239.296875 697.148438 2230.039062 Z M 712.890625 2294.140625 " transform="matrix(0.1, 0, 0, -0.1, 0, 284)"/>
<path fill-rule="nonzero" fill="rgb(0%, 0%, 0%)" fill-opacity="1" d="M 84.125 66.691406 L 84.125 66.402344 L 84.117188 66.128906 L 84.101562 65.863281 L 84.085938 65.601562 L 84.0625 65.351562 L 84.03125 65.113281 L 83.992188 64.878906 L 83.949219 64.652344 L 83.902344 64.429688 L 83.839844 64.214844 L 83.773438 64.007812 L 83.695312 63.804688 L 83.609375 63.605469 L 83.511719 63.410156 L 83.40625 63.222656 L 83.351562 63.125 L 83.289062 63.03125 C 82.855469 62.382812 81.976562 61.820312 80.847656 61.820312 L 80.847656 62.214844 C 81.613281 62.214844 82.347656 62.679688 82.601562 63.5 C 82.828125 64.261719 82.839844 65.277344 82.839844 66.507812 C 82.839844 67.550781 82.839844 68.597656 82.65625 69.484375 C 82.375 70.769531 81.414062 71.082031 80.847656 71.082031 C 80.199219 71.082031 79.335938 70.699219 79.054688 69.542969 C 78.855469 68.710938 78.855469 67.550781 78.855469 66.507812 C 78.855469 65.476562 78.855469 64.402344 79.070312 63.628906 C 79.367188 62.507812 80.269531 62.214844 80.847656 62.214844 L 80.847656 61.820312 C 77.570312 61.820312 77.570312 65.675781 77.570312 66.691406 C 77.570312 67.707031 77.570312 71.480469 80.847656 71.480469 C 84.125 71.480469 84.125 67.707031 84.125 66.691406 "/>
<path fill="none" stroke-width="1.2" stroke-linecap="butt" stroke-linejoin="miter" stroke="rgb(0%, 0%, 0%)" stroke-opacity="1" stroke-miterlimit="10" d="M 841.25 2173.085938 L 841.25 2175.976562 L 841.171875 2178.710938 L 841.015625 2181.367188 L 840.859375 2183.984375 L 840.625 2186.484375 L 840.3125 2188.867188 L 839.921875 2191.210938 L 839.492188 2193.476562 L 839.023438 2195.703125 L 838.398438 2197.851562 L 837.734375 2199.921875 L 836.953125 2201.953125 L 836.09375 2203.945312 L 835.117188 2205.898438 L 834.0625 2207.773438 L 833.515625 2208.75 L 832.890625 2209.6875 C 828.554688 2216.171875 819.765625 2221.796875 808.476562 2221.796875 L 808.476562 2217.851562 C 816.132812 2217.851562 823.476562 2213.203125 826.015625 2205 C 828.28125 2197.382812 828.398438 2187.226562 828.398438 2174.921875 C 828.398438 2164.492188 828.398438 2154.023438 826.5625 2145.15625 C 823.75 2132.304688 814.140625 2129.179688 808.476562 2129.179688 C 801.992188 2129.179688 793.359375 2133.007812 790.546875 2144.570312 C 788.554688 2152.890625 788.554688 2164.492188 788.554688 2174.921875 C 788.554688 2185.234375 788.554688 2195.976562 790.703125 2203.710938 C 793.671875 2214.921875 802.695312 2217.851562 808.476562 2217.851562 L 808.476562 2221.796875 C 775.703125 2221.796875 775.703125 2183.242188 775.703125 2173.085938 C 775.703125 2162.929688 775.703125 2125.195312 808.476562 2125.195312 C 841.25 2125.195312 841.25 2162.929688 841.25 2173.085938 Z M 841.25 2173.085938 " transform="matrix(0.1, 0, 0, -0.1, 0, 284)"/>
</svg>
